STARTFONT 2.1
COMMENT
COMMENT Converted from OpenType font "Vollda-Bold.otf" by "otf2bdf 3.0".
COMMENT
FONT -FreeType-Vollda-Bold-R-Normal--19-140-100-100-P-108-ISO10646-1
SIZE 14 100 100
FONTBOUNDINGBOX 62 27 -3 -6
STARTPROPERTIES 19
FOUNDRY "FreeType"
FAMILY_NAME "Vollda"
WEIGHT_NAME "Bold"
SLANT "R"
SETWIDTH_NAME "Normal"
ADD_STYLE_NAME ""
PIXEL_SIZE 19
POINT_SIZE 140
RESOLUTION_X 100
RESOLUTION_Y 100
SPACING "P"
AVERAGE_WIDTH 108
CHARSET_REGISTRY "ISO10646"
CHARSET_ENCODING "1"
FONT_ASCENT 18
FONT_DESCENT 8
COPYRIGHT "Copyright 2023 Vollda (https://github.com/alexburba/vollda)"
_OTF_FONTFILE "Vollda-Bold.otf"
_OTF_PSNAME "Vollda-Bold"
ENDPROPERTIES
CHARS 1220
STARTCHAR 0000
ENCODING 0
SWIDTH 0 0
DWIDTH 0 0
BBX 0 0 0 0
BITMAP
ENDCHAR
STARTCHAR 000D
ENCODING 13
SWIDTH 154 0
DWIDTH 3 0
BBX 0 0 0 0
BITMAP
ENDCHAR
STARTCHAR 0020
ENCODING 32
SWIDTH 154 0
DWIDTH 3 0
BBX 0 0 0 0
BITMAP
ENDCHAR
STARTCHAR 0021
ENCODING 33
SWIDTH 360 0
DWIDTH 7 0
BBX 4 14 2 0
BITMAP
20
E0
60
60
60
60
60
60
60
00
00
60
F0
60
ENDCHAR
STARTCHAR 0022
ENCODING 34
SWIDTH 360 0
DWIDTH 7 0
BBX 5 5 1 9
BITMAP
48
D8
D8
48
48
ENDCHAR
STARTCHAR 0023
ENCODING 35
SWIDTH 565 0
DWIDTH 11 0
BBX 10 14 1 0
BITMAP
1880
1880
1180
1100
7FC0
FFC0
3100
2300
2200
FFC0
2200
6200
4600
4600
ENDCHAR
STARTCHAR 0024
ENCODING 36
SWIDTH 514 0
DWIDTH 10 0
BBX 9 17 1 -2
BITMAP
0800
0800
3F00
6B00
EB00
E900
F800
7C00
3F00
1F80
0F80
CB80
C980
EB00
7E00
0800
0800
ENDCHAR
STARTCHAR 0025
ENCODING 37
SWIDTH 822 0
DWIDTH 16 0
BBX 13 13 2 0
BITMAP
7810
CC20
CC60
CCC0
C980
7B00
0600
04F0
0D98
1998
3198
6198
40F0
ENDCHAR
STARTCHAR 0026
ENCODING 38
SWIDTH 771 0
DWIDTH 15 0
BBX 13 14 1 0
BITMAP
0F80
3980
3980
3980
3800
1C78
3E30
6E20
E720
E3C0
E3C0
E1E0
73F8
3E78
ENDCHAR
STARTCHAR 0027
ENCODING 39
SWIDTH 205 0
DWIDTH 4 0
BBX 2 5 1 9
BITMAP
40
C0
C0
40
40
ENDCHAR
STARTCHAR 0028
ENCODING 40
SWIDTH 308 0
DWIDTH 6 0
BBX 4 19 1 -5
BITMAP
10
20
60
60
40
C0
C0
C0
C0
C0
C0
C0
C0
C0
60
60
20
30
10
ENDCHAR
STARTCHAR 0029
ENCODING 41
SWIDTH 308 0
DWIDTH 6 0
BBX 5 19 1 -5
BITMAP
C0
40
60
20
30
30
30
38
38
38
38
30
30
30
30
60
60
40
80
ENDCHAR
STARTCHAR 002A
ENCODING 42
SWIDTH 462 0
DWIDTH 9 0
BBX 7 7 1 8
BITMAP
18
58
F2
1E
78
48
0C
ENDCHAR
STARTCHAR 002B
ENCODING 43
SWIDTH 514 0
DWIDTH 10 0
BBX 9 10 1 0
BITMAP
0800
0800
0800
0800
FF80
FF80
0800
0800
0800
0800
ENDCHAR
STARTCHAR 002C
ENCODING 44
SWIDTH 257 0
DWIDTH 5 0
BBX 3 5 1 -3
BITMAP
E0
E0
60
60
40
ENDCHAR
STARTCHAR 002D
ENCODING 45
SWIDTH 411 0
DWIDTH 8 0
BBX 6 2 1 4
BITMAP
FC
FC
ENDCHAR
STARTCHAR 002E
ENCODING 46
SWIDTH 257 0
DWIDTH 5 0
BBX 3 3 1 0
BITMAP
E0
E0
E0
ENDCHAR
STARTCHAR 002F
ENCODING 47
SWIDTH 360 0
DWIDTH 7 0
BBX 6 14 1 0
BITMAP
04
0C
08
18
10
10
30
20
20
60
40
C0
C0
80
ENDCHAR
STARTCHAR 0030
ENCODING 48
SWIDTH 565 0
DWIDTH 11 0
BBX 10 10 1 0
BITMAP
1E00
7780
E1C0
E1C0
C1C0
E1C0
E1C0
E1C0
7380
3F00
ENDCHAR
STARTCHAR 0031
ENCODING 49
SWIDTH 360 0
DWIDTH 7 0
BBX 6 10 1 0
BITMAP
FC
78
70
30
30
30
30
30
78
FC
ENDCHAR
STARTCHAR 0032
ENCODING 50
SWIDTH 514 0
DWIDTH 10 0
BBX 8 10 1 0
BITMAP
3C
EE
C7
C7
0E
1C
30
63
FF
FF
ENDCHAR
STARTCHAR 0033
ENCODING 51
SWIDTH 462 0
DWIDTH 9 0
BBX 8 13 1 -3
BITMAP
FF
FF
FE
CC
08
18
3E
0F
07
07
07
0E
FC
ENDCHAR
STARTCHAR 0034
ENCODING 52
SWIDTH 565 0
DWIDTH 11 0
BBX 10 13 1 -3
BITMAP
0300
0700
0F00
1F00
1700
3700
6700
C700
FFC0
FFC0
0700
0700
0700
ENDCHAR
STARTCHAR 0035
ENCODING 53
SWIDTH 462 0
DWIDTH 9 0
BBX 8 14 1 -3
BITMAP
02
7E
7E
7E
40
E0
FC
7E
1E
0F
06
0E
0E
F8
ENDCHAR
STARTCHAR 0036
ENCODING 54
SWIDTH 514 0
DWIDTH 10 0
BBX 9 12 1 0
BITMAP
0F00
3800
7000
6000
EE00
FF00
E380
E380
E380
E380
F300
3E00
ENDCHAR
STARTCHAR 0037
ENCODING 55
SWIDTH 462 0
DWIDTH 9 0
BBX 8 13 1 -3
BITMAP
FE
FF
FE
84
0C
08
18
18
30
30
70
70
60
ENDCHAR
STARTCHAR 0038
ENCODING 56
SWIDTH 514 0
DWIDTH 10 0
BBX 9 12 1 0
BITMAP
7E00
6300
E300
F300
7E00
3E00
6F00
E700
E380
E380
E300
7E00
ENDCHAR
STARTCHAR 0039
ENCODING 57
SWIDTH 514 0
DWIDTH 10 0
BBX 9 13 1 -3
BITMAP
3E00
7700
E380
E380
E380
E380
F380
7F80
0300
0700
0E00
1C00
7000
ENDCHAR
STARTCHAR 003A
ENCODING 58
SWIDTH 257 0
DWIDTH 5 0
BBX 3 9 1 0
BITMAP
60
E0
E0
00
00
00
E0
E0
60
ENDCHAR
STARTCHAR 003B
ENCODING 59
SWIDTH 257 0
DWIDTH 5 0
BBX 4 13 1 -4
BITMAP
60
F0
E0
00
00
00
00
60
F0
20
60
40
40
ENDCHAR
STARTCHAR 003C
ENCODING 60
SWIDTH 514 0
DWIDTH 10 0
BBX 8 10 1 0
BITMAP
01
07
1C
30
E0
E0
38
0E
07
01
ENDCHAR
STARTCHAR 003D
ENCODING 61
SWIDTH 514 0
DWIDTH 10 0
BBX 9 4 1 3
BITMAP
FF80
0000
0000
FF80
ENDCHAR
STARTCHAR 003E
ENCODING 62
SWIDTH 514 0
DWIDTH 10 0
BBX 7 10 2 0
BITMAP
80
E0
30
1C
06
06
1C
70
C0
80
ENDCHAR
STARTCHAR 003F
ENCODING 63
SWIDTH 514 0
DWIDTH 10 0
BBX 7 14 2 0
BITMAP
7C
EE
CE
CE
0C
1C
38
30
30
10
00
38
38
38
ENDCHAR
STARTCHAR 0040
ENCODING 64
SWIDTH 977 0
DWIDTH 19 0
BBX 15 17 2 -4
BITMAP
03E0
0C38
300C
6006
43F2
C672
CC72
CC72
DC72
DC72
CCF4
CFFC
4F78
6000
3006
1C38
07E0
ENDCHAR
STARTCHAR 0041
ENCODING 65
SWIDTH 668 0
DWIDTH 13 0
BBX 13 13 0 0
BITMAP
0300
0700
0700
0780
0B80
09C0
19C0
10E0
1FE0
20F0
2070
6078
F0F8
ENDCHAR
STARTCHAR 0042
ENCODING 66
SWIDTH 668 0
DWIDTH 13 0
BBX 11 13 1 0
BITMAP
FF80
71C0
71C0
71C0
71C0
7380
7FC0
71E0
70E0
70E0
70E0
79C0
FF80
ENDCHAR
STARTCHAR 0043
ENCODING 67
SWIDTH 617 0
DWIDTH 12 0
BBX 11 13 1 0
BITMAP
1FC0
30C0
6040
E040
E000
E000
E000
E000
E000
F000
7000
3CE0
1F80
ENDCHAR
STARTCHAR 0044
ENCODING 68
SWIDTH 720 0
DWIDTH 14 0
BBX 13 13 1 0
BITMAP
FFC0
70E0
7070
7070
7070
7038
7038
7038
7070
7070
7060
79C0
FF00
ENDCHAR
STARTCHAR 0045
ENCODING 69
SWIDTH 617 0
DWIDTH 12 0
BBX 10 13 1 0
BITMAP
FFC0
70C0
70C0
7000
7100
7300
7F00
7300
7100
7040
7040
78C0
FFC0
ENDCHAR
STARTCHAR 0046
ENCODING 70
SWIDTH 565 0
DWIDTH 11 0
BBX 10 13 1 0
BITMAP
FFC0
70C0
70C0
7000
7000
7100
7F00
7F00
7100
7000
7000
7800
FC00
ENDCHAR
STARTCHAR 0047
ENCODING 71
SWIDTH 668 0
DWIDTH 13 0
BBX 12 13 1 0
BITMAP
1FE0
3060
7060
E060
E000
E000
E000
E1F0
E060
E060
7060
38E0
1FC0
ENDCHAR
STARTCHAR 0048
ENCODING 72
SWIDTH 771 0
DWIDTH 15 0
BBX 13 13 1 0
BITMAP
FCF8
7070
7070
7070
7070
7070
7FF0
7070
7070
7070
7070
7070
FCF8
ENDCHAR
STARTCHAR 0049
ENCODING 73
SWIDTH 360 0
DWIDTH 7 0
BBX 6 13 1 0
BITMAP
FC
70
70
70
70
70
70
70
70
70
70
70
FC
ENDCHAR
STARTCHAR 004A
ENCODING 74
SWIDTH 360 0
DWIDTH 7 0
BBX 6 18 0 -5
BITMAP
7C
38
38
38
38
38
38
38
38
38
38
38
38
38
30
70
E0
80
ENDCHAR
STARTCHAR 004B
ENCODING 75
SWIDTH 720 0
DWIDTH 14 0
BBX 13 13 1 0
BITMAP
FDF0
70C0
7180
7100
7200
7600
7F00
7700
7380
73C0
71C0
70F0
FCF8
ENDCHAR
STARTCHAR 004C
ENCODING 76
SWIDTH 565 0
DWIDTH 11 0
BBX 10 13 1 0
BITMAP
FC00
7000
7000
7000
7000
7000
7000
7000
7000
7040
70C0
78C0
FFC0
ENDCHAR
STARTCHAR 004D
ENCODING 77
SWIDTH 925 0
DWIDTH 18 0
BBX 18 13 0 0
BITMAP
7C07C0
1C0700
1E0F00
1E0F00
1F0F00
371700
371300
33B380
23A380
21E380
21C380
70C380
F8C7C0
ENDCHAR
STARTCHAR 004E
ENCODING 78
SWIDTH 720 0
DWIDTH 14 0
BBX 12 13 1 0
BITMAP
F0F0
7820
7820
7C20
7E20
6F20
6720
63A0
63E0
61E0
60E0
6060
F060
ENDCHAR
STARTCHAR 004F
ENCODING 79
SWIDTH 720 0
DWIDTH 14 0
BBX 13 13 1 0
BITMAP
1FC0
30E0
6070
E070
E038
E038
E038
E038
E038
E070
7070
38E0
1F80
ENDCHAR
STARTCHAR 0050
ENCODING 80
SWIDTH 617 0
DWIDTH 12 0
BBX 11 13 1 0
BITMAP
FF80
71C0
71E0
70E0
70E0
70C0
71C0
7780
7000
7000
7000
7800
FC00
ENDCHAR
STARTCHAR 0051
ENCODING 81
SWIDTH 720 0
DWIDTH 14 0
BBX 14 17 1 -4
BITMAP
1FC0
30E0
6070
E070
E038
E038
E038
E038
E038
E070
7070
38E0
1F80
01C0
00F0
007C
0030
ENDCHAR
STARTCHAR 0052
ENCODING 82
SWIDTH 668 0
DWIDTH 13 0
BBX 12 13 1 0
BITMAP
FF80
71C0
70E0
70E0
70E0
71C0
7F80
7F00
7380
71C0
71C0
70E0
F8F0
ENDCHAR
STARTCHAR 0053
ENCODING 83
SWIDTH 514 0
DWIDTH 10 0
BBX 9 13 1 0
BITMAP
3F00
6300
E300
E100
F000
7C00
3F00
1F80
0780
C380
C180
E300
7E00
ENDCHAR
STARTCHAR 0054
ENCODING 84
SWIDTH 617 0
DWIDTH 12 0
BBX 11 13 1 0
BITMAP
FFE0
CE60
8E20
0E00
0E00
0E00
0E00
0E00
0E00
0E00
0E00
0E00
3F80
ENDCHAR
STARTCHAR 0055
ENCODING 85
SWIDTH 668 0
DWIDTH 13 0
BBX 12 13 1 0
BITMAP
F8F0
7060
7040
7040
7040
7040
7040
7040
7040
7040
7040
38C0
1F80
ENDCHAR
STARTCHAR 0056
ENCODING 86
SWIDTH 668 0
DWIDTH 13 0
BBX 13 13 0 0
BITMAP
FC78
7830
3830
3820
1C20
1C40
0E40
0EC0
0E80
0780
0700
0700
0300
ENDCHAR
STARTCHAR 0057
ENCODING 87
SWIDTH 977 0
DWIDTH 19 0
BBX 19 13 0 0
BITMAP
FC21E0
7870C0
3870C0
387080
38B880
1CB980
1DBD00
1D1D00
0F1D00
0F0E00
0E0E00
060E00
060600
ENDCHAR
STARTCHAR 0058
ENCODING 88
SWIDTH 668 0
DWIDTH 13 0
BBX 12 13 1 0
BITMAP
FCF0
78E0
38C0
3C80
1D00
0F00
0F00
0F00
1F80
33C0
21C0
61E0
F3F0
ENDCHAR
STARTCHAR 0059
ENCODING 89
SWIDTH 617 0
DWIDTH 12 0
BBX 12 13 0 0
BITMAP
FCF0
7860
3840
1C40
1C80
1E80
0F00
0F00
0700
0700
0700
0F00
1FC0
ENDCHAR
STARTCHAR 005A
ENCODING 90
SWIDTH 565 0
DWIDTH 11 0
BBX 10 13 1 0
BITMAP
7FC0
6380
C780
C700
0F00
0E00
1E00
1C00
3800
7880
70C0
F1C0
FF80
ENDCHAR
STARTCHAR 005B
ENCODING 91
SWIDTH 257 0
DWIDTH 5 0
BBX 4 19 1 -5
BITMAP
F0
C0
C0
C0
C0
C0
C0
C0
C0
C0
C0
C0
C0
C0
C0
C0
C0
C0
F0
ENDCHAR
STARTCHAR 005C
ENCODING 92
SWIDTH 360 0
DWIDTH 7 0
BBX 6 14 1 0
BITMAP
80
80
C0
40
60
60
20
30
10
10
18
08
08
0C
ENDCHAR
STARTCHAR 005D
ENCODING 93
SWIDTH 257 0
DWIDTH 5 0
BBX 4 19 1 -5
BITMAP
F0
30
30
30
30
30
30
30
30
30
30
30
30
30
30
30
30
30
F0
ENDCHAR
STARTCHAR 005E
ENCODING 94
SWIDTH 514 0
DWIDTH 10 0
BBX 8 7 1 7
BITMAP
08
1C
34
62
43
81
80
ENDCHAR
STARTCHAR 005F
ENCODING 95
SWIDTH 514 0
DWIDTH 10 0
BBX 10 1 0 -3
BITMAP
FFC0
ENDCHAR
STARTCHAR 0060
ENCODING 96
SWIDTH 257 0
DWIDTH 5 0
BBX 4 4 1 10
BITMAP
E0
60
20
30
ENDCHAR
STARTCHAR 0061
ENCODING 97
SWIDTH 462 0
DWIDTH 9 0
BBX 9 9 1 0
BITMAP
3C00
4E00
CE00
CE00
3E00
EE00
CE00
EF80
F780
ENDCHAR
STARTCHAR 0062
ENCODING 98
SWIDTH 565 0
DWIDTH 11 0
BBX 11 14 0 0
BITMAP
3000
F000
7000
7000
7000
7780
7FC0
70E0
70E0
70E0
70E0
70C0
71C0
3F00
ENDCHAR
STARTCHAR 0063
ENCODING 99
SWIDTH 462 0
DWIDTH 9 0
BBX 7 9 1 0
BITMAP
3E
66
E2
C0
C0
E0
E0
72
3E
ENDCHAR
STARTCHAR 0064
ENCODING 100
SWIDTH 565 0
DWIDTH 11 0
BBX 10 14 1 0
BITMAP
0180
0780
0380
0380
0380
3F80
7380
E380
E380
E380
E380
E380
F3C0
7FC0
ENDCHAR
STARTCHAR 0065
ENCODING 101
SWIDTH 462 0
DWIDTH 9 0
BBX 8 9 1 0
BITMAP
3E
67
E7
E3
FF
E0
E0
73
3E
ENDCHAR
STARTCHAR 0066
ENCODING 102
SWIDTH 360 0
DWIDTH 7 0
BBX 8 14 1 0
BITMAP
0F
33
33
70
70
FC
FC
70
70
70
70
70
70
FC
ENDCHAR
STARTCHAR 0067
ENCODING 103
SWIDTH 514 0
DWIDTH 10 0
BBX 9 14 1 -5
BITMAP
7F80
E700
E700
E700
E700
7E00
4000
FC00
FF80
7F80
C380
C300
E700
7C00
ENDCHAR
STARTCHAR 0068
ENCODING 104
SWIDTH 617 0
DWIDTH 12 0
BBX 11 14 1 0
BITMAP
3000
F000
7000
7000
7000
7780
7FC0
71C0
71C0
71C0
71C0
71C0
71C0
FBE0
ENDCHAR
STARTCHAR 0069
ENCODING 105
SWIDTH 308 0
DWIDTH 6 0
BBX 5 13 1 0
BITMAP
70
70
00
00
70
F0
70
70
70
70
70
70
F8
ENDCHAR
STARTCHAR 006A
ENCODING 106
SWIDTH 308 0
DWIDTH 6 0
BBX 4 18 1 -5
BITMAP
70
70
00
00
70
F0
70
70
70
70
70
70
70
70
60
E0
C0
80
ENDCHAR
STARTCHAR 006B
ENCODING 107
SWIDTH 617 0
DWIDTH 12 0
BBX 11 14 1 0
BITMAP
3000
F000
7000
7000
7000
73C0
7180
7300
7600
7E00
7700
7380
73C0
F9E0
ENDCHAR
STARTCHAR 006C
ENCODING 108
SWIDTH 308 0
DWIDTH 6 0
BBX 5 14 1 0
BITMAP
30
F0
70
70
70
70
70
70
70
70
70
70
70
F8
ENDCHAR
STARTCHAR 006D
ENCODING 109
SWIDTH 925 0
DWIDTH 18 0
BBX 17 9 1 0
BITMAP
778E00
FFFF00
71C700
71C700
71C700
71C700
71C700
71C700
FBEF80
ENDCHAR
STARTCHAR 006E
ENCODING 110
SWIDTH 617 0
DWIDTH 12 0
BBX 11 9 1 0
BITMAP
7780
FFC0
71C0
71C0
71C0
71C0
71C0
71C0
FBE0
ENDCHAR
STARTCHAR 006F
ENCODING 111
SWIDTH 565 0
DWIDTH 11 0
BBX 9 9 1 0
BITMAP
3E00
6700
E380
E380
E180
E180
E380
7300
3E00
ENDCHAR
STARTCHAR 0070
ENCODING 112
SWIDTH 617 0
DWIDTH 12 0
BBX 11 14 1 -5
BITMAP
7780
FFC0
71C0
70E0
70E0
70C0
71C0
7180
7F00
7000
7000
7000
F800
FC00
ENDCHAR
STARTCHAR 0071
ENCODING 113
SWIDTH 565 0
DWIDTH 11 0
BBX 11 14 1 -5
BITMAP
3F00
7380
E380
E380
E380
E380
E380
F780
7B80
0380
0380
0380
07C0
0FE0
ENDCHAR
STARTCHAR 0072
ENCODING 114
SWIDTH 462 0
DWIDTH 9 0
BBX 8 9 1 0
BITMAP
77
FF
73
72
70
70
70
70
FC
ENDCHAR
STARTCHAR 0073
ENCODING 115
SWIDTH 411 0
DWIDTH 8 0
BBX 7 9 1 0
BITMAP
7C
CE
C6
F0
7C
1E
8E
CE
FC
ENDCHAR
STARTCHAR 0074
ENCODING 116
SWIDTH 360 0
DWIDTH 7 0
BBX 7 12 0 0
BITMAP
10
30
30
FE
FE
30
30
30
30
30
38
3E
ENDCHAR
STARTCHAR 0075
ENCODING 117
SWIDTH 565 0
DWIDTH 11 0
BBX 11 9 0 0
BITMAP
73C0
F3C0
71C0
31C0
31C0
31C0
31C0
39E0
3FE0
ENDCHAR
STARTCHAR 0076
ENCODING 118
SWIDTH 514 0
DWIDTH 10 0
BBX 11 9 0 0
BITMAP
FDE0
78C0
3880
3980
1D00
1D00
0E00
0E00
0C00
ENDCHAR
STARTCHAR 0077
ENCODING 119
SWIDTH 771 0
DWIDTH 15 0
BBX 15 9 0 0
BITMAP
F89E
71CC
39CC
39E8
3AE8
1AE8
1E70
1C70
0C30
ENDCHAR
STARTCHAR 0078
ENCODING 120
SWIDTH 565 0
DWIDTH 11 0
BBX 9 9 1 0
BITMAP
FB80
7300
7B00
3E00
1C00
3E00
6F00
6780
EF80
ENDCHAR
STARTCHAR 0079
ENCODING 121
SWIDTH 514 0
DWIDTH 10 0
BBX 11 14 0 -5
BITMAP
FDE0
78C0
3880
3880
1D00
1D00
0F00
0E00
0E00
0400
0400
5800
7800
7000
ENDCHAR
STARTCHAR 007A
ENCODING 122
SWIDTH 462 0
DWIDTH 9 0
BBX 8 9 1 0
BITMAP
FF
CF
CE
1C
3C
38
71
F3
FF
ENDCHAR
STARTCHAR 007B
ENCODING 123
SWIDTH 360 0
DWIDTH 7 0
BBX 6 19 1 -4
BITMAP
18
30
30
70
30
30
30
70
E0
E0
70
70
30
30
30
70
30
30
1C
ENDCHAR
STARTCHAR 007C
ENCODING 124
SWIDTH 154 0
DWIDTH 3 0
BBX 2 19 1 -5
BITMAP
C0
C0
C0
C0
C0
80
80
80
80
80
80
80
80
C0
C0
C0
C0
C0
C0
ENDCHAR
STARTCHAR 007D
ENCODING 125
SWIDTH 360 0
DWIDTH 7 0
BBX 6 19 1 -4
BITMAP
E0
60
30
30
70
70
70
70
38
1C
30
70
70
70
70
30
70
60
C0
ENDCHAR
STARTCHAR 007E
ENCODING 126
SWIDTH 514 0
DWIDTH 10 0
BBX 9 3 1 3
BITMAP
7980
8F00
8000
ENDCHAR
STARTCHAR 00A0
ENCODING 160
SWIDTH 154 0
DWIDTH 3 0
BBX 0 0 0 0
BITMAP
ENDCHAR
STARTCHAR 00A1
ENCODING 161
SWIDTH 360 0
DWIDTH 7 0
BBX 4 14 2 -5
BITMAP
60
F0
60
00
00
60
60
60
60
60
60
60
70
C0
ENDCHAR
STARTCHAR 00A2
ENCODING 162
SWIDTH 462 0
DWIDTH 9 0
BBX 7 15 1 -3
BITMAP
08
08
08
3E
6E
EA
C8
C8
E8
E8
7A
3E
08
08
08
ENDCHAR
STARTCHAR 00A3
ENCODING 163
SWIDTH 565 0
DWIDTH 11 0
BBX 10 13 1 0
BITMAP
3F80
7380
7180
7000
7000
7800
FE00
3800
3000
3000
7FC0
7F80
8700
ENDCHAR
STARTCHAR 00A4
ENCODING 164
SWIDTH 514 0
DWIDTH 10 0
BBX 9 8 1 1
BITMAP
0100
7F00
6300
4300
4100
6300
7F00
C180
ENDCHAR
STARTCHAR 00A5
ENCODING 165
SWIDTH 617 0
DWIDTH 12 0
BBX 12 13 0 0
BITMAP
FCF0
7860
3840
3C40
1C80
1E80
3FE0
0F00
3FE0
0700
0700
0F00
1FC0
ENDCHAR
STARTCHAR 00A6
ENCODING 166
SWIDTH 154 0
DWIDTH 3 0
BBX 2 19 1 -5
BITMAP
80
80
80
80
80
80
80
80
00
00
00
80
80
80
80
80
80
80
C0
ENDCHAR
STARTCHAR 00A7
ENCODING 167
SWIDTH 565 0
DWIDTH 11 0
BBX 9 19 1 -5
BITMAP
1E00
7600
6200
6000
7800
3E00
3F00
6F80
C380
C180
E180
FB00
7C00
1E00
0F00
6300
6300
7E00
3C00
ENDCHAR
STARTCHAR 00A8
ENCODING 168
SWIDTH 257 0
DWIDTH 5 0
BBX 8 3 -1 10
BITMAP
66
E7
66
ENDCHAR
STARTCHAR 00A9
ENCODING 169
SWIDTH 771 0
DWIDTH 15 0
BBX 14 13 1 -2
BITMAP
0FC0
3060
6790
4CC8
DCC8
9808
980C
9808
DC08
4EC8
6790
3060
0FC0
ENDCHAR
STARTCHAR 00AA
ENCODING 170
SWIDTH 411 0
DWIDTH 8 0
BBX 7 7 1 7
BITMAP
78
DC
4C
7C
CC
DC
EE
ENDCHAR
STARTCHAR 00AB
ENCODING 171
SWIDTH 462 0
DWIDTH 9 0
BBX 8 6 1 1
BITMAP
13
66
EC
EC
66
33
ENDCHAR
STARTCHAR 00AC
ENCODING 172
SWIDTH 514 0
DWIDTH 10 0
BBX 9 5 1 2
BITMAP
FF80
0180
0180
0180
0180
ENDCHAR
STARTCHAR 00AD
ENCODING 173
SWIDTH 411 0
DWIDTH 8 0
BBX 6 2 1 4
BITMAP
FC
FC
ENDCHAR
STARTCHAR 00AE
ENCODING 174
SWIDTH 514 0
DWIDTH 10 0
BBX 8 8 1 7
BITMAP
3E
43
9D
95
99
55
66
18
ENDCHAR
STARTCHAR 00AF
ENCODING 175
SWIDTH 257 0
DWIDTH 5 0
BBX 7 1 -1 11
BITMAP
FE
ENDCHAR
STARTCHAR 00B0
ENCODING 176
SWIDTH 360 0
DWIDTH 7 0
BBX 6 6 1 8
BITMAP
30
58
CC
CC
68
30
ENDCHAR
STARTCHAR 00B1
ENCODING 177
SWIDTH 514 0
DWIDTH 10 0
BBX 9 9 1 1
BITMAP
0800
0800
0800
7F00
7F00
0800
0800
0000
FF80
ENDCHAR
STARTCHAR 00B2
ENCODING 178
SWIDTH 360 0
DWIDTH 7 0
BBX 6 7 1 8
BITMAP
F0
D8
98
18
2C
FC
FC
ENDCHAR
STARTCHAR 00B3
ENCODING 179
SWIDTH 360 0
DWIDTH 7 0
BBX 6 9 1 6
BITMAP
F8
F8
90
20
78
1C
0C
18
F8
ENDCHAR
STARTCHAR 00B4
ENCODING 180
SWIDTH 257 0
DWIDTH 5 0
BBX 4 4 1 10
BITMAP
70
60
C0
80
ENDCHAR
STARTCHAR 00B5
ENCODING 181
SWIDTH 617 0
DWIDTH 12 0
BBX 11 14 1 -5
BITMAP
7380
F7C0
71C0
71C0
71C0
71C0
73C0
77E0
7DE0
6000
6000
6000
7000
4000
ENDCHAR
STARTCHAR 00B6
ENCODING 182
SWIDTH 565 0
DWIDTH 11 0
BBX 10 18 1 -5
BITMAP
7FC0
E580
E580
E580
E580
E580
7D80
0580
0580
0580
0580
0580
0580
0580
0580
0580
0580
0580
ENDCHAR
STARTCHAR 00B7
ENCODING 183
SWIDTH 257 0
DWIDTH 5 0
BBX 3 3 1 4
BITMAP
40
E0
E0
ENDCHAR
STARTCHAR 00B8
ENCODING 184
SWIDTH 257 0
DWIDTH 5 0
BBX 3 5 1 -5
BITMAP
40
E0
20
20
C0
ENDCHAR
STARTCHAR 00B9
ENCODING 185
SWIDTH 308 0
DWIDTH 6 0
BBX 4 7 1 8
BITMAP
F0
70
60
60
60
60
F0
ENDCHAR
STARTCHAR 00BA
ENCODING 186
SWIDTH 411 0
DWIDTH 8 0
BBX 7 7 1 7
BITMAP
78
CC
CE
CE
CE
CC
78
ENDCHAR
STARTCHAR 00BB
ENCODING 187
SWIDTH 462 0
DWIDTH 9 0
BBX 8 7 1 1
BITMAP
C8
66
77
37
66
CC
08
ENDCHAR
STARTCHAR 00BC
ENCODING 188
SWIDTH 822 0
DWIDTH 16 0
BBX 15 14 1 0
BITMAP
F00C
F018
3010
3030
3060
30CC
309C
799C
FF2C
024C
04FE
0CFE
180C
103E
ENDCHAR
STARTCHAR 00BD
ENCODING 189
SWIDTH 977 0
DWIDTH 19 0
BBX 18 14 1 0
BITMAP
F00C00
F01800
301000
303000
306000
30CF00
309B80
799980
FF0380
020300
040600
0C0CC0
181FC0
101FC0
ENDCHAR
STARTCHAR 00BE
ENCODING 190
SWIDTH 822 0
DWIDTH 16 0
BBX 15 14 1 0
BITMAP
F808
F818
9030
2020
7860
1CCC
1D9C
B93C
E33C
065C
04FE
08FE
181C
303E
ENDCHAR
STARTCHAR 00BF
ENCODING 191
SWIDTH 514 0
DWIDTH 10 0
BBX 7 14 1 -5
BITMAP
18
3C
38
00
18
18
18
18
38
70
E2
E6
E6
7C
ENDCHAR
STARTCHAR 00C0
ENCODING 192
SWIDTH 668 0
DWIDTH 13 0
BBX 13 17 0 0
BITMAP
0E00
0600
0300
0000
0300
0700
0700
0780
0B80
09C0
19C0
10E0
1FE0
20F0
2070
6078
F0F8
ENDCHAR
STARTCHAR 00C1
ENCODING 193
SWIDTH 668 0
DWIDTH 13 0
BBX 13 17 0 0
BITMAP
0180
0300
0200
0000
0300
0700
0700
0780
0B80
09C0
19C0
10E0
1FE0
20F0
2070
6078
F0F8
ENDCHAR
STARTCHAR 00C2
ENCODING 194
SWIDTH 668 0
DWIDTH 13 0
BBX 13 17 0 0
BITMAP
0700
0F80
08C0
0000
0300
0700
0700
0780
0B80
09C0
19C0
10E0
1FE0
20F0
2070
6078
F0F8
ENDCHAR
STARTCHAR 00C3
ENCODING 195
SWIDTH 668 0
DWIDTH 13 0
BBX 13 17 0 0
BITMAP
0E40
1FC0
0100
0000
0300
0700
0700
0780
0B80
09C0
19C0
10E0
1FE0
20F0
2070
6078
F0F8
ENDCHAR
STARTCHAR 00C4
ENCODING 196
SWIDTH 668 0
DWIDTH 13 0
BBX 13 17 0 0
BITMAP
1CC0
1DC0
1CC0
0000
0300
0700
0700
0780
0B80
09C0
19C0
10E0
1FE0
20F0
2070
6078
F0F8
ENDCHAR
STARTCHAR 00C5
ENCODING 197
SWIDTH 668 0
DWIDTH 13 0
BBX 13 17 0 0
BITMAP
0780
0D80
0700
0000
0300
0700
0700
0780
0B80
09C0
19C0
10E0
1FE0
20F0
2070
6078
F0F8
ENDCHAR
STARTCHAR 00C6
ENCODING 198
SWIDTH 925 0
DWIDTH 18 0
BBX 18 13 0 0
BITMAP
03FF80
01F180
017080
037000
027000
067200
07FE00
0C7600
187200
107000
3070C0
7071C0
F8FFC0
ENDCHAR
STARTCHAR 00C7
ENCODING 199
SWIDTH 617 0
DWIDTH 12 0
BBX 11 18 1 -5
BITMAP
1FC0
30C0
6040
E040
E000
E000
E000
E000
E000
F000
7000
3CE0
1F80
0400
0600
0300
0300
0400
ENDCHAR
STARTCHAR 00C8
ENCODING 200
SWIDTH 617 0
DWIDTH 12 0
BBX 10 17 1 0
BITMAP
1800
1800
0C00
0000
FFC0
70C0
70C0
7000
7100
7300
7F00
7300
7100
7040
7040
78C0
FFC0
ENDCHAR
STARTCHAR 00C9
ENCODING 201
SWIDTH 617 0
DWIDTH 12 0
BBX 10 17 1 0
BITMAP
0600
0C00
0800
0000
FFC0
70C0
70C0
7000
7100
7300
7F00
7300
7100
7040
7040
78C0
FFC0
ENDCHAR
STARTCHAR 00CA
ENCODING 202
SWIDTH 617 0
DWIDTH 12 0
BBX 10 17 1 0
BITMAP
0C00
3E00
2300
0000
FFC0
70C0
70C0
7000
7100
7300
7F00
7300
7100
7040
7040
78C0
FFC0
ENDCHAR
STARTCHAR 00CB
ENCODING 203
SWIDTH 617 0
DWIDTH 12 0
BBX 10 17 1 0
BITMAP
3300
7380
3300
0000
FFC0
70C0
70C0
7000
7100
7300
7F00
7300
7100
7040
7040
78C0
FFC0
ENDCHAR
STARTCHAR 00CC
ENCODING 204
SWIDTH 360 0
DWIDTH 7 0
BBX 6 17 1 0
BITMAP
E0
60
30
00
FC
70
70
70
70
70
70
70
70
70
70
70
FC
ENDCHAR
STARTCHAR 00CD
ENCODING 205
SWIDTH 360 0
DWIDTH 7 0
BBX 6 17 1 0
BITMAP
18
30
20
00
FC
70
70
70
70
70
70
70
70
70
70
70
FC
ENDCHAR
STARTCHAR 00CE
ENCODING 206
SWIDTH 360 0
DWIDTH 7 0
BBX 6 17 1 0
BITMAP
30
78
DC
00
FC
70
70
70
70
70
70
70
70
70
70
70
FC
ENDCHAR
STARTCHAR 00CF
ENCODING 207
SWIDTH 360 0
DWIDTH 7 0
BBX 7 17 0 0
BITMAP
64
EE
6E
00
7E
38
38
38
38
38
38
38
38
38
38
38
7E
ENDCHAR
STARTCHAR 00D0
ENCODING 208
SWIDTH 720 0
DWIDTH 14 0
BBX 13 13 1 0
BITMAP
FFC0
70E0
7070
7070
7070
7038
FE38
7038
7070
7070
7060
79C0
FF00
ENDCHAR
STARTCHAR 00D1
ENCODING 209
SWIDTH 720 0
DWIDTH 14 0
BBX 12 17 1 0
BITMAP
0C00
1F80
0300
0000
F0F0
7820
7820
7C20
7E20
6F20
6720
63A0
63E0
61E0
60E0
6060
F060
ENDCHAR
STARTCHAR 00D2
ENCODING 210
SWIDTH 720 0
DWIDTH 14 0
BBX 13 17 1 0
BITMAP
0C00
0600
0200
0000
1FC0
30E0
6070
E070
E038
E038
E038
E038
E038
E070
7070
38E0
1F80
ENDCHAR
STARTCHAR 00D3
ENCODING 211
SWIDTH 720 0
DWIDTH 14 0
BBX 13 17 1 0
BITMAP
0300
0300
0600
0000
1FC0
30E0
6070
E070
E038
E038
E038
E038
E038
E070
7070
38E0
1F80
ENDCHAR
STARTCHAR 00D4
ENCODING 212
SWIDTH 720 0
DWIDTH 14 0
BBX 13 17 1 0
BITMAP
0700
0F80
1080
0000
1FC0
30E0
6070
E070
E038
E038
E038
E038
E038
E070
7070
38E0
1F80
ENDCHAR
STARTCHAR 00D5
ENCODING 213
SWIDTH 720 0
DWIDTH 14 0
BBX 13 17 1 0
BITMAP
0E40
1F80
0100
0000
1FC0
30E0
6070
E070
E038
E038
E038
E038
E038
E070
7070
38E0
1F80
ENDCHAR
STARTCHAR 00D6
ENCODING 214
SWIDTH 720 0
DWIDTH 14 0
BBX 13 17 1 0
BITMAP
1980
1DC0
19C0
0000
1FC0
30E0
6070
E070
E038
E038
E038
E038
E038
E070
7070
38E0
1F80
ENDCHAR
STARTCHAR 00D7
ENCODING 215
SWIDTH 514 0
DWIDTH 10 0
BBX 8 10 1 0
BITMAP
01
C1
62
34
1C
1C
36
63
C1
80
ENDCHAR
STARTCHAR 00D8
ENCODING 216
SWIDTH 720 0
DWIDTH 14 0
BBX 13 15 1 -1
BITMAP
0010
1FF0
30E0
60F0
E0F0
E1B8
E338
E638
E438
EC38
F870
7070
78E0
5F80
4000
ENDCHAR
STARTCHAR 00D9
ENCODING 217
SWIDTH 668 0
DWIDTH 13 0
BBX 12 17 1 0
BITMAP
0C00
0600
0300
0000
F8F0
7060
7040
7040
7040
7040
7040
7040
7040
7040
7040
38C0
1F80
ENDCHAR
STARTCHAR 00DA
ENCODING 218
SWIDTH 668 0
DWIDTH 13 0
BBX 12 17 1 0
BITMAP
0380
0300
0600
0000
F8F0
7060
7040
7040
7040
7040
7040
7040
7040
7040
7040
38C0
1F80
ENDCHAR
STARTCHAR 00DB
ENCODING 219
SWIDTH 668 0
DWIDTH 13 0
BBX 12 17 1 0
BITMAP
0700
0F80
1880
0000
F8F0
7060
7040
7040
7040
7040
7040
7040
7040
7040
7040
38C0
1F80
ENDCHAR
STARTCHAR 00DC
ENCODING 220
SWIDTH 668 0
DWIDTH 13 0
BBX 12 17 1 0
BITMAP
18C0
1DC0
18C0
0000
F8F0
7060
7040
7040
7040
7040
7040
7040
7040
7040
7040
38C0
1F80
ENDCHAR
STARTCHAR 00DD
ENCODING 221
SWIDTH 617 0
DWIDTH 12 0
BBX 12 17 0 0
BITMAP
0180
0100
0300
0000
FCF0
7860
3840
1C40
1C80
1E80
0F00
0F00
0700
0700
0700
0F00
1FC0
ENDCHAR
STARTCHAR 00DE
ENCODING 222
SWIDTH 617 0
DWIDTH 12 0
BBX 11 13 1 0
BITMAP
FC00
7000
7E00
7FC0
71C0
70E0
70E0
70C0
71C0
7780
7000
7800
FC00
ENDCHAR
STARTCHAR 00DF
ENCODING 223
SWIDTH 668 0
DWIDTH 13 0
BBX 12 14 1 0
BITMAP
0F00
3B80
31C0
70C0
7180
F300
F700
7780
77E0
71E0
70F0
7470
7660
F7C0
ENDCHAR
STARTCHAR 00E0
ENCODING 224
SWIDTH 514 0
DWIDTH 10 0
BBX 9 14 1 0
BITMAP
7000
3000
1800
0800
0000
1E00
6F00
E700
6700
1F00
6700
E700
E780
7F80
ENDCHAR
STARTCHAR 00E1
ENCODING 225
SWIDTH 514 0
DWIDTH 10 0
BBX 9 14 1 0
BITMAP
0E00
0C00
0800
1800
0000
1E00
6F00
E700
6700
1F00
6700
E700
E780
7F80
ENDCHAR
STARTCHAR 00E2
ENCODING 226
SWIDTH 514 0
DWIDTH 10 0
BBX 9 14 1 0
BITMAP
1800
3C00
6E00
4300
0000
1E00
6F00
E700
6700
1F00
6700
E700
E780
7F80
ENDCHAR
STARTCHAR 00E3
ENCODING 227
SWIDTH 514 0
DWIDTH 10 0
BBX 9 13 1 0
BITMAP
7B00
DE00
0000
0000
1E00
6F00
E700
6700
1F00
6700
E700
E780
7F80
ENDCHAR
STARTCHAR 00E4
ENCODING 228
SWIDTH 514 0
DWIDTH 10 0
BBX 9 13 1 0
BITMAP
6600
E700
6600
0000
1E00
6F00
E700
6700
1F00
6700
E700
E780
7F80
ENDCHAR
STARTCHAR 00E5
ENCODING 229
SWIDTH 514 0
DWIDTH 10 0
BBX 9 14 1 0
BITMAP
3C00
2400
2400
3800
0000
1E00
6F00
E700
6700
1F00
6700
E700
E780
7F80
ENDCHAR
STARTCHAR 00E6
ENCODING 230
SWIDTH 720 0
DWIDTH 14 0
BBX 12 9 1 0
BITMAP
7DE0
EF70
C630
0630
7FF0
E600
CF00
EF90
F1F0
ENDCHAR
STARTCHAR 00E7
ENCODING 231
SWIDTH 462 0
DWIDTH 9 0
BBX 7 14 1 -5
BITMAP
3E
66
E2
C0
C0
E0
E0
72
3E
18
1C
0C
0C
10
ENDCHAR
STARTCHAR 00E8
ENCODING 232
SWIDTH 462 0
DWIDTH 9 0
BBX 8 14 1 0
BITMAP
70
30
18
08
00
3E
67
E7
E3
FF
E0
E0
73
3E
ENDCHAR
STARTCHAR 00E9
ENCODING 233
SWIDTH 462 0
DWIDTH 9 0
BBX 8 14 1 0
BITMAP
0E
0C
08
18
00
3E
67
E7
E3
FF
E0
E0
73
3E
ENDCHAR
STARTCHAR 00EA
ENCODING 234
SWIDTH 462 0
DWIDTH 9 0
BBX 8 14 1 0
BITMAP
08
1C
76
43
00
3E
67
E7
E3
FF
E0
E0
73
3E
ENDCHAR
STARTCHAR 00EB
ENCODING 235
SWIDTH 462 0
DWIDTH 9 0
BBX 8 13 1 0
BITMAP
66
E7
67
00
3E
67
E7
E3
FF
E0
E0
73
3E
ENDCHAR
STARTCHAR 00EC
ENCODING 236
SWIDTH 308 0
DWIDTH 6 0
BBX 5 14 1 0
BITMAP
C0
E0
60
20
00
70
F0
70
70
70
70
70
70
F8
ENDCHAR
STARTCHAR 00ED
ENCODING 237
SWIDTH 308 0
DWIDTH 6 0
BBX 5 14 1 0
BITMAP
18
30
30
20
00
70
F0
70
70
70
70
70
70
F8
ENDCHAR
STARTCHAR 00EE
ENCODING 238
SWIDTH 308 0
DWIDTH 6 0
BBX 5 14 1 0
BITMAP
20
70
F8
88
00
70
F0
70
70
70
70
70
70
F8
ENDCHAR
STARTCHAR 00EF
ENCODING 239
SWIDTH 308 0
DWIDTH 6 0
BBX 7 13 0 0
BITMAP
EC
EE
EC
00
38
78
38
38
38
38
38
38
7C
ENDCHAR
STARTCHAR 00F0
ENCODING 240
SWIDTH 514 0
DWIDTH 10 0
BBX 9 14 1 0
BITMAP
3800
3D80
0F00
3F00
0700
3F80
6380
E380
E380
E380
E380
E380
E300
3E00
ENDCHAR
STARTCHAR 00F1
ENCODING 241
SWIDTH 617 0
DWIDTH 12 0
BBX 11 13 1 0
BITMAP
1C80
3F00
0000
0000
7780
FFC0
71C0
71C0
71C0
71C0
71C0
71C0
FBE0
ENDCHAR
STARTCHAR 00F2
ENCODING 242
SWIDTH 565 0
DWIDTH 11 0
BBX 9 14 1 0
BITMAP
3000
1800
1800
0800
0000
3E00
6700
E380
E380
E180
E180
E380
7300
3E00
ENDCHAR
STARTCHAR 00F3
ENCODING 243
SWIDTH 565 0
DWIDTH 11 0
BBX 9 14 1 0
BITMAP
0600
0C00
0C00
0800
0000
3E00
6700
E380
E380
E180
E180
E380
7300
3E00
ENDCHAR
STARTCHAR 00F4
ENCODING 244
SWIDTH 565 0
DWIDTH 11 0
BBX 9 14 1 0
BITMAP
0C00
1E00
3700
4100
0000
3E00
6700
E380
E380
E180
E180
E380
7300
3E00
ENDCHAR
STARTCHAR 00F5
ENCODING 245
SWIDTH 565 0
DWIDTH 11 0
BBX 9 13 1 0
BITMAP
3900
7E00
0000
0000
3E00
6700
E380
E380
E180
E180
E380
7300
3E00
ENDCHAR
STARTCHAR 00F6
ENCODING 246
SWIDTH 565 0
DWIDTH 11 0
BBX 9 13 1 0
BITMAP
6300
7700
6300
0000
3E00
6700
E380
E380
E180
E180
E380
7300
3E00
ENDCHAR
STARTCHAR 00F7
ENCODING 247
SWIDTH 514 0
DWIDTH 10 0
BBX 9 9 1 1
BITMAP
0800
1C00
1800
0000
FF80
FF80
0000
1C00
1C00
ENDCHAR
STARTCHAR 00F8
ENCODING 248
SWIDTH 565 0
DWIDTH 11 0
BBX 9 10 1 0
BITMAP
3F80
6700
E780
E780
E980
F980
F380
7300
FE00
8000
ENDCHAR
STARTCHAR 00F9
ENCODING 249
SWIDTH 565 0
DWIDTH 11 0
BBX 11 14 0 0
BITMAP
1C00
0C00
0400
0600
0000
73C0
F3C0
71C0
31C0
31C0
31C0
31C0
39E0
3FE0
ENDCHAR
STARTCHAR 00FA
ENCODING 250
SWIDTH 565 0
DWIDTH 11 0
BBX 11 14 0 0
BITMAP
0380
0300
0600
0400
0000
73C0
F3C0
71C0
31C0
31C0
31C0
31C0
39E0
3FE0
ENDCHAR
STARTCHAR 00FB
ENCODING 251
SWIDTH 565 0
DWIDTH 11 0
BBX 11 14 0 0
BITMAP
0600
0F00
1B80
1080
0000
73C0
F3C0
71C0
31C0
31C0
31C0
31C0
39E0
3FE0
ENDCHAR
STARTCHAR 00FC
ENCODING 252
SWIDTH 565 0
DWIDTH 11 0
BBX 11 13 0 0
BITMAP
1980
3B80
3980
0000
73C0
F3C0
71C0
31C0
31C0
31C0
31C0
39E0
3FE0
ENDCHAR
STARTCHAR 00FD
ENCODING 253
SWIDTH 514 0
DWIDTH 10 0
BBX 11 19 0 -5
BITMAP
0180
0300
0200
0200
0000
FDE0
78C0
3880
3880
1D00
1D00
0F00
0E00
0E00
0400
0400
5800
7800
7000
ENDCHAR
STARTCHAR 00FE
ENCODING 254
SWIDTH 617 0
DWIDTH 12 0
BBX 10 19 1 -5
BITMAP
3000
F000
7000
7000
7000
7780
7FC0
71C0
70C0
70C0
70C0
71C0
7180
7F00
7000
7000
7000
F800
FC00
ENDCHAR
STARTCHAR 00FF
ENCODING 255
SWIDTH 514 0
DWIDTH 10 0
BBX 11 18 0 -5
BITMAP
1980
19C0
19C0
0000
FDE0
78C0
3880
3880
1D00
1D00
0F00
0E00
0E00
0400
0400
5800
7800
7000
ENDCHAR
STARTCHAR 0100
ENCODING 256
SWIDTH 668 0
DWIDTH 13 0
BBX 13 16 0 0
BITMAP
1FC0
0000
0000
0300
0700
0700
0780
0B80
09C0
19C0
10E0
1FE0
20F0
2070
6078
F0F8
ENDCHAR
STARTCHAR 0101
ENCODING 257
SWIDTH 514 0
DWIDTH 10 0
BBX 9 12 1 0
BITMAP
FF00
0000
0000
1E00
6F00
E700
6700
1F00
6700
E700
E780
7F80
ENDCHAR
STARTCHAR 0102
ENCODING 258
SWIDTH 668 0
DWIDTH 13 0
BBX 13 17 0 0
BITMAP
1840
0FC0
0780
0000
0300
0700
0700
0780
0B80
09C0
19C0
10E0
1FE0
20F0
2070
6078
F0F8
ENDCHAR
STARTCHAR 0103
ENCODING 259
SWIDTH 514 0
DWIDTH 10 0
BBX 9 14 1 0
BITMAP
C300
C200
7E00
3C00
0000
1E00
6F00
E700
6700
1F00
6700
E700
E780
7F80
ENDCHAR
STARTCHAR 0104
ENCODING 260
SWIDTH 668 0
DWIDTH 13 0
BBX 13 18 0 -5
BITMAP
0300
0700
0700
0780
0B80
09C0
19C0
10E0
1FE0
20F0
2070
6078
F0F8
0060
00C0
00C0
00F0
0060
ENDCHAR
STARTCHAR 0105
ENCODING 261
SWIDTH 514 0
DWIDTH 10 0
BBX 9 14 1 -5
BITMAP
1E00
6F00
E700
6700
1F00
6700
E700
E780
7F80
0600
0600
0E00
0F80
0600
ENDCHAR
STARTCHAR 0106
ENCODING 262
SWIDTH 617 0
DWIDTH 12 0
BBX 11 17 1 0
BITMAP
0380
0300
0600
0000
1FC0
30C0
6040
E040
E000
E000
E000
E000
E000
F000
7000
3CE0
1F80
ENDCHAR
STARTCHAR 0107
ENCODING 263
SWIDTH 462 0
DWIDTH 9 0
BBX 7 14 1 0
BITMAP
0E
0C
08
18
00
3E
66
E2
C0
C0
E0
E0
72
3E
ENDCHAR
STARTCHAR 0108
ENCODING 264
SWIDTH 617 0
DWIDTH 12 0
BBX 11 17 1 0
BITMAP
0700
0F80
1080
0000
1FC0
30C0
6040
E040
E000
E000
E000
E000
E000
F000
7000
3CE0
1F80
ENDCHAR
STARTCHAR 0109
ENCODING 265
SWIDTH 462 0
DWIDTH 9 0
BBX 8 14 1 0
BITMAP
08
1C
76
43
00
3E
66
E2
C0
C0
E0
E0
72
3E
ENDCHAR
STARTCHAR 010A
ENCODING 266
SWIDTH 617 0
DWIDTH 12 0
BBX 11 17 1 0
BITMAP
0600
0700
0700
0000
1FC0
30C0
6040
E040
E000
E000
E000
E000
E000
F000
7000
3CE0
1F80
ENDCHAR
STARTCHAR 010B
ENCODING 267
SWIDTH 462 0
DWIDTH 9 0
BBX 7 13 1 0
BITMAP
18
3C
18
00
3E
66
E2
C0
C0
E0
E0
72
3E
ENDCHAR
STARTCHAR 010C
ENCODING 268
SWIDTH 617 0
DWIDTH 12 0
BBX 11 17 1 0
BITMAP
1980
0F00
0600
0000
1FC0
30C0
6040
E040
E000
E000
E000
E000
E000
F000
7000
3CE0
1F80
ENDCHAR
STARTCHAR 010D
ENCODING 269
SWIDTH 462 0
DWIDTH 9 0
BBX 7 14 1 0
BITMAP
42
76
3C
18
00
3E
66
E2
C0
C0
E0
E0
72
3E
ENDCHAR
STARTCHAR 010E
ENCODING 270
SWIDTH 720 0
DWIDTH 14 0
BBX 13 17 1 0
BITMAP
3980
0F00
0400
0000
FFC0
70E0
7070
7070
7070
7038
7038
7038
7070
7070
7060
79C0
FF00
ENDCHAR
STARTCHAR 010F
ENCODING 271
SWIDTH 720 0
DWIDTH 14 0
BBX 13 14 1 0
BITMAP
0198
07B8
0398
0398
0390
3F80
7380
E380
E380
E380
E380
E380
F7C0
7DC0
ENDCHAR
STARTCHAR 0110
ENCODING 272
SWIDTH 720 0
DWIDTH 14 0
BBX 13 13 1 0
BITMAP
FFC0
70E0
7070
7070
7070
7038
FE38
7038
7070
7070
7060
79C0
FF00
ENDCHAR
STARTCHAR 0111
ENCODING 273
SWIDTH 565 0
DWIDTH 11 0
BBX 10 14 1 0
BITMAP
0180
0780
0380
0FC0
0380
3F80
7380
E380
E380
E380
E380
E380
F3C0
7FC0
ENDCHAR
STARTCHAR 0112
ENCODING 274
SWIDTH 617 0
DWIDTH 12 0
BBX 10 16 1 0
BITMAP
7F80
0000
0000
FFC0
70C0
70C0
7000
7100
7300
7F00
7300
7100
7040
7040
78C0
FFC0
ENDCHAR
STARTCHAR 0113
ENCODING 275
SWIDTH 462 0
DWIDTH 9 0
BBX 8 12 1 0
BITMAP
7F
00
00
3E
67
E7
E3
FF
E0
E0
73
3E
ENDCHAR
STARTCHAR 0114
ENCODING 276
SWIDTH 617 0
DWIDTH 12 0
BBX 10 17 1 0
BITMAP
2100
3F00
1E00
0000
FFC0
70C0
70C0
7000
7100
7300
7F00
7300
7100
7040
7040
78C0
FFC0
ENDCHAR
STARTCHAR 0115
ENCODING 277
SWIDTH 462 0
DWIDTH 9 0
BBX 8 14 1 0
BITMAP
41
63
7E
3C
00
3E
67
E7
E3
FF
E0
E0
73
3E
ENDCHAR
STARTCHAR 0116
ENCODING 278
SWIDTH 617 0
DWIDTH 12 0
BBX 10 17 1 0
BITMAP
0C00
1C00
1C00
0000
FFC0
70C0
70C0
7000
7100
7300
7F00
7300
7100
7040
7040
78C0
FFC0
ENDCHAR
STARTCHAR 0117
ENCODING 279
SWIDTH 462 0
DWIDTH 9 0
BBX 8 13 1 0
BITMAP
18
3C
18
00
3E
67
E7
E3
FF
E0
E0
73
3E
ENDCHAR
STARTCHAR 0118
ENCODING 280
SWIDTH 617 0
DWIDTH 12 0
BBX 10 18 1 -5
BITMAP
FFC0
70C0
70C0
7000
7100
7300
7F00
7300
7100
7040
7040
78C0
FFC0
0300
0600
0600
0780
0300
ENDCHAR
STARTCHAR 0119
ENCODING 281
SWIDTH 462 0
DWIDTH 9 0
BBX 8 14 1 -5
BITMAP
3E
67
E7
E3
FF
E0
E0
73
3E
0C
1C
1C
1F
0C
ENDCHAR
STARTCHAR 011A
ENCODING 282
SWIDTH 617 0
DWIDTH 12 0
BBX 10 17 1 0
BITMAP
7300
1E00
0800
0000
FFC0
70C0
70C0
7000
7100
7300
7F00
7300
7100
7040
7040
78C0
FFC0
ENDCHAR
STARTCHAR 011B
ENCODING 283
SWIDTH 462 0
DWIDTH 9 0
BBX 8 14 1 0
BITMAP
42
76
3C
18
00
3E
67
E7
E3
FF
E0
E0
73
3E
ENDCHAR
STARTCHAR 011C
ENCODING 284
SWIDTH 668 0
DWIDTH 13 0
BBX 12 17 1 0
BITMAP
0700
0F80
1880
0000
1FE0
3060
7060
E060
E000
E000
E000
E1F0
E060
E060
7060
38E0
1FC0
ENDCHAR
STARTCHAR 011D
ENCODING 285
SWIDTH 514 0
DWIDTH 10 0
BBX 9 19 1 -5
BITMAP
1800
3C00
6E00
4200
0000
7F80
E700
E700
E700
E700
7E00
4000
FC00
FF80
7F80
C380
C300
E700
7C00
ENDCHAR
STARTCHAR 011E
ENCODING 286
SWIDTH 668 0
DWIDTH 13 0
BBX 12 17 1 0
BITMAP
18C0
1F80
0F00
0000
1FE0
3060
7060
E060
E000
E000
E000
E1F0
E060
E060
7060
38E0
1FC0
ENDCHAR
STARTCHAR 011F
ENCODING 287
SWIDTH 514 0
DWIDTH 10 0
BBX 9 19 1 -5
BITMAP
C300
C200
7E00
3C00
0000
7F80
E700
E700
E700
E700
7E00
4000
FC00
FF80
7F80
C380
C300
E700
7C00
ENDCHAR
STARTCHAR 0120
ENCODING 288
SWIDTH 668 0
DWIDTH 13 0
BBX 12 17 1 0
BITMAP
0600
0700
0700
0000
1FE0
3060
7060
E060
E000
E000
E000
E1F0
E060
E060
7060
38E0
1FC0
ENDCHAR
STARTCHAR 0121
ENCODING 289
SWIDTH 514 0
DWIDTH 10 0
BBX 9 18 1 -5
BITMAP
1800
3C00
1800
0000
7F80
E700
E700
E700
E700
7E00
4000
FC00
FF80
7F80
C380
C300
E700
7C00
ENDCHAR
STARTCHAR 0122
ENCODING 290
SWIDTH 668 0
DWIDTH 13 0
BBX 12 19 1 -6
BITMAP
1FE0
3060
7060
E060
E000
E000
E000
E1F0
E060
E060
7060
38E0
1FC0
0000
0700
0700
0300
0200
0400
ENDCHAR
STARTCHAR 0123
ENCODING 291
SWIDTH 514 0
DWIDTH 10 0
BBX 9 19 1 -5
BITMAP
1800
1000
3800
3800
0000
7F80
E700
E700
E700
E700
7E00
4000
FC00
FF80
7F80
C380
C300
E700
7C00
ENDCHAR
STARTCHAR 0124
ENCODING 292
SWIDTH 771 0
DWIDTH 15 0
BBX 13 17 1 0
BITMAP
0700
0F80
1880
0000
FCF8
7070
7070
7070
7070
7070
7FF0
7070
7070
7070
7070
7070
FCF8
ENDCHAR
STARTCHAR 0125
ENCODING 293
SWIDTH 617 0
DWIDTH 12 0
BBX 11 17 1 0
BITMAP
0C00
3E00
2300
3000
F000
7000
7000
7000
7780
7FC0
71C0
71C0
71C0
71C0
71C0
71C0
FBE0
ENDCHAR
STARTCHAR 0126
ENCODING 294
SWIDTH 771 0
DWIDTH 15 0
BBX 13 13 1 0
BITMAP
FCF8
7070
7070
FFF8
7070
7070
7FF0
7070
7070
7070
7070
7070
FCF8
ENDCHAR
STARTCHAR 0127
ENCODING 295
SWIDTH 617 0
DWIDTH 12 0
BBX 12 14 0 0
BITMAP
1800
7800
3800
FE00
B800
3BC0
3FE0
38E0
38E0
38E0
38E0
38E0
38E0
7DF0
ENDCHAR
STARTCHAR 0128
ENCODING 296
SWIDTH 360 0
DWIDTH 7 0
BBX 6 17 1 0
BITMAP
60
FC
18
00
FC
70
70
70
70
70
70
70
70
70
70
70
FC
ENDCHAR
STARTCHAR 0129
ENCODING 297
SWIDTH 308 0
DWIDTH 6 0
BBX 7 13 0 0
BITMAP
72
FC
9C
00
38
78
38
38
38
38
38
38
7C
ENDCHAR
STARTCHAR 012A
ENCODING 298
SWIDTH 360 0
DWIDTH 7 0
BBX 6 16 1 0
BITMAP
FC
00
00
FC
70
70
70
70
70
70
70
70
70
70
70
FC
ENDCHAR
STARTCHAR 012B
ENCODING 299
SWIDTH 308 0
DWIDTH 6 0
BBX 5 12 1 0
BITMAP
F8
00
00
70
F0
70
70
70
70
70
70
F8
ENDCHAR
STARTCHAR 012C
ENCODING 300
SWIDTH 360 0
DWIDTH 7 0
BBX 6 17 1 0
BITMAP
84
F8
78
00
FC
70
70
70
70
70
70
70
70
70
70
70
FC
ENDCHAR
STARTCHAR 012D
ENCODING 301
SWIDTH 308 0
DWIDTH 6 0
BBX 6 14 0 0
BITMAP
C4
C4
7C
38
00
38
78
38
38
38
38
38
38
7C
ENDCHAR
STARTCHAR 012E
ENCODING 302
SWIDTH 360 0
DWIDTH 7 0
BBX 6 18 1 -5
BITMAP
FC
70
70
70
70
70
70
70
70
70
70
70
FC
60
E0
E0
F8
60
ENDCHAR
STARTCHAR 012F
ENCODING 303
SWIDTH 308 0
DWIDTH 6 0
BBX 5 18 1 -5
BITMAP
70
70
00
00
70
F0
70
70
70
70
70
70
F8
60
C0
E0
F8
60
ENDCHAR
STARTCHAR 0130
ENCODING 304
SWIDTH 360 0
DWIDTH 7 0
BBX 6 17 1 0
BITMAP
30
70
70
00
FC
70
70
70
70
70
70
70
70
70
70
70
FC
ENDCHAR
STARTCHAR 0131
ENCODING 305
SWIDTH 308 0
DWIDTH 6 0
BBX 5 9 1 0
BITMAP
70
F0
70
70
70
70
70
70
F8
ENDCHAR
STARTCHAR 0132
ENCODING 306
SWIDTH 668 0
DWIDTH 13 0
BBX 12 18 1 -5
BITMAP
FFF0
71E0
71C0
71C0
71C0
71C0
71C0
71C0
71C0
71C0
71C0
71C0
FDC0
01C0
01C0
0180
0300
0600
ENDCHAR
STARTCHAR 0133
ENCODING 307
SWIDTH 565 0
DWIDTH 11 0
BBX 9 18 1 -5
BITMAP
7380
7380
0000
0000
7380
F780
7180
7180
7180
7180
7180
7180
F980
0180
0380
0300
0600
0400
ENDCHAR
STARTCHAR 0134
ENCODING 308
SWIDTH 360 0
DWIDTH 7 0
BBX 6 22 0 -5
BITMAP
18
78
4C
00
7C
38
38
38
38
38
38
38
38
38
38
38
38
38
30
70
E0
80
ENDCHAR
STARTCHAR 0135
ENCODING 309
SWIDTH 308 0
DWIDTH 6 0
BBX 5 19 1 -5
BITMAP
60
70
F8
98
00
70
F0
70
70
70
70
70
70
70
70
60
E0
C0
80
ENDCHAR
STARTCHAR 0136
ENCODING 310
SWIDTH 720 0
DWIDTH 14 0
BBX 13 19 1 -6
BITMAP
FDF0
70C0
7180
7100
7200
7600
7F00
7700
7380
73C0
71C0
70F0
FCF8
0000
0600
0F00
0600
0600
0400
ENDCHAR
STARTCHAR 0137
ENCODING 311
SWIDTH 565 0
DWIDTH 11 0
BBX 11 20 1 -6
BITMAP
3000
F000
7000
7000
7000
73C0
7180
7300
7600
7E00
7700
7380
73C0
F9E0
0000
1C00
1C00
0C00
0C00
1800
ENDCHAR
STARTCHAR 0138
ENCODING 312
SWIDTH 565 0
DWIDTH 11 0
BBX 11 9 1 0
BITMAP
77C0
F380
7600
7C00
7E00
7F00
7780
73C0
F9E0
ENDCHAR
STARTCHAR 0139
ENCODING 313
SWIDTH 565 0
DWIDTH 11 0
BBX 10 17 1 0
BITMAP
1800
3000
2000
0000
FC00
7000
7000
7000
7000
7000
7000
7000
7000
7040
70C0
78C0
FFC0
ENDCHAR
STARTCHAR 013A
ENCODING 314
SWIDTH 308 0
DWIDTH 6 0
BBX 5 18 1 0
BITMAP
38
30
20
00
30
F0
70
70
70
70
70
70
70
70
70
70
70
F8
ENDCHAR
STARTCHAR 013B
ENCODING 315
SWIDTH 565 0
DWIDTH 11 0
BBX 10 19 1 -6
BITMAP
FC00
7000
7000
7000
7000
7000
7000
7000
7000
7040
70C0
78C0
FFC0
0000
0C00
1C00
0C00
0C00
1800
ENDCHAR
STARTCHAR 013C
ENCODING 316
SWIDTH 308 0
DWIDTH 6 0
BBX 5 20 1 -6
BITMAP
30
F0
70
70
70
70
70
70
70
70
70
70
70
F8
00
70
70
30
60
40
ENDCHAR
STARTCHAR 013D
ENCODING 317
SWIDTH 565 0
DWIDTH 11 0
BBX 10 14 1 0
BITMAP
00C0
FDC0
70C0
70C0
7080
7000
7000
7000
7000
7000
7040
70C0
78C0
FFC0
ENDCHAR
STARTCHAR 013E
ENCODING 318
SWIDTH 462 0
DWIDTH 9 0
BBX 8 14 1 0
BITMAP
33
F7
73
73
72
70
70
70
70
70
70
70
70
F8
ENDCHAR
STARTCHAR 013F
ENCODING 319
SWIDTH 565 0
DWIDTH 11 0
BBX 10 13 1 0
BITMAP
FC00
7000
7000
7000
7000
71C0
71C0
7000
7000
7040
70C0
78C0
FFC0
ENDCHAR
STARTCHAR 0140
ENCODING 320
SWIDTH 308 0
DWIDTH 6 0
BBX 7 14 1 0
BITMAP
30
F0
70
70
70
70
76
7E
70
70
70
70
70
F8
ENDCHAR
STARTCHAR 0141
ENCODING 321
SWIDTH 565 0
DWIDTH 11 0
BBX 10 13 1 0
BITMAP
FC00
7000
7000
7000
7400
7C00
7000
F000
F000
7040
70C0
78C0
FFC0
ENDCHAR
STARTCHAR 0142
ENCODING 322
SWIDTH 308 0
DWIDTH 6 0
BBX 7 14 0 0
BITMAP
18
78
38
38
38
3A
3E
38
F8
B8
38
38
38
7C
ENDCHAR
STARTCHAR 0143
ENCODING 323
SWIDTH 720 0
DWIDTH 14 0
BBX 12 17 1 0
BITMAP
0300
0200
0600
0000
F0F0
7820
7820
7C20
7E20
6F20
6720
63A0
63E0
61E0
60E0
6060
F060
ENDCHAR
STARTCHAR 0144
ENCODING 324
SWIDTH 617 0
DWIDTH 12 0
BBX 11 14 1 0
BITMAP
0300
0600
0600
0400
0000
7780
FFC0
71C0
71C0
71C0
71C0
71C0
71C0
FBE0
ENDCHAR
STARTCHAR 0145
ENCODING 325
SWIDTH 720 0
DWIDTH 14 0
BBX 12 19 1 -6
BITMAP
F0F0
7820
7820
7C20
7E20
6F20
6720
63A0
63E0
61E0
60E0
6060
F060
0000
0700
0700
0300
0200
0400
ENDCHAR
STARTCHAR 0146
ENCODING 326
SWIDTH 617 0
DWIDTH 12 0
BBX 11 15 1 -6
BITMAP
7780
FFC0
71C0
71C0
71C0
71C0
71C0
71C0
FBE0
0000
0E00
0E00
0600
0400
0800
ENDCHAR
STARTCHAR 0147
ENCODING 327
SWIDTH 720 0
DWIDTH 14 0
BBX 12 17 1 0
BITMAP
1980
0F00
0600
0000
F0F0
7820
7820
7C20
7E20
6F20
6720
63A0
63E0
61E0
60E0
6060
F060
ENDCHAR
STARTCHAR 0148
ENCODING 328
SWIDTH 617 0
DWIDTH 12 0
BBX 11 14 1 0
BITMAP
2080
3B00
1E00
0C00
0000
7780
FFC0
71C0
71C0
71C0
71C0
71C0
71C0
FBE0
ENDCHAR
STARTCHAR 0149
ENCODING 329
SWIDTH 822 0
DWIDTH 16 0
BBX 15 14 1 0
BITMAP
6000
E000
6000
6000
6000
CE70
1FF8
071C
071C
071C
071C
071C
0F1C
1FBE
ENDCHAR
STARTCHAR 014A
ENCODING 330
SWIDTH 668 0
DWIDTH 13 0
BBX 12 18 1 -5
BITMAP
F7C0
FFE0
78F0
7070
7070
7070
7070
7070
7070
7070
7070
7070
FC60
0060
0060
04C0
07C0
0300
ENDCHAR
STARTCHAR 014B
ENCODING 331
SWIDTH 617 0
DWIDTH 12 0
BBX 10 14 1 -5
BITMAP
7780
FFC0
79C0
71C0
71C0
71C0
71C0
71C0
F9C0
01C0
0180
0B80
0F00
0E00
ENDCHAR
STARTCHAR 014C
ENCODING 332
SWIDTH 720 0
DWIDTH 14 0
BBX 13 16 1 0
BITMAP
1FC0
0000
0000
1FC0
30E0
6070
E070
E038
E038
E038
E038
E038
E070
7070
38E0
1F80
ENDCHAR
STARTCHAR 014D
ENCODING 333
SWIDTH 565 0
DWIDTH 11 0
BBX 9 12 1 0
BITMAP
7F00
0000
0000
3E00
6700
E380
E380
E180
E180
E380
7300
3E00
ENDCHAR
STARTCHAR 014E
ENCODING 334
SWIDTH 720 0
DWIDTH 14 0
BBX 13 17 1 0
BITMAP
1880
1F80
0F00
0000
1FC0
30E0
6070
E070
E038
E038
E038
E038
E038
E070
7070
38E0
1F80
ENDCHAR
STARTCHAR 014F
ENCODING 335
SWIDTH 565 0
DWIDTH 11 0
BBX 9 14 1 0
BITMAP
4100
6300
7F00
1C00
0000
3E00
6700
E380
E380
E180
E180
E380
7300
3E00
ENDCHAR
STARTCHAR 0150
ENCODING 336
SWIDTH 720 0
DWIDTH 14 0
BBX 13 17 1 0
BITMAP
0EC0
0D80
0980
0000
1FC0
30E0
6070
E070
E038
E038
E038
E038
E038
E070
7070
38E0
1F80
ENDCHAR
STARTCHAR 0151
ENCODING 337
SWIDTH 565 0
DWIDTH 11 0
BBX 9 14 1 0
BITMAP
1B80
1B00
3200
2600
0000
3E00
6700
E380
E380
E180
E180
E380
7300
3E00
ENDCHAR
STARTCHAR 0152
ENCODING 338
SWIDTH 977 0
DWIDTH 19 0
BBX 18 13 1 0
BITMAP
1FFF80
71E180
60E080
E07000
E07200
E07200
E07E00
E07200
E07200
E07080
70E0C0
38C180
1FFF80
ENDCHAR
STARTCHAR 0153
ENCODING 339
SWIDTH 822 0
DWIDTH 16 0
BBX 14 9 1 0
BITMAP
3EF8
67DC
E38C
E38C
E3FC
E380
E380
73C4
3EF8
ENDCHAR
STARTCHAR 0154
ENCODING 340
SWIDTH 668 0
DWIDTH 13 0
BBX 12 17 1 0
BITMAP
0600
0600
0C00
0000
FF80
71C0
70E0
70E0
70E0
71C0
7F80
7F00
7380
71C0
71C0
70E0
F8F0
ENDCHAR
STARTCHAR 0155
ENCODING 341
SWIDTH 462 0
DWIDTH 9 0
BBX 8 14 1 0
BITMAP
0E
0C
08
18
00
77
FF
73
72
70
70
70
70
FC
ENDCHAR
STARTCHAR 0156
ENCODING 342
SWIDTH 668 0
DWIDTH 13 0
BBX 12 19 1 -6
BITMAP
FF80
71C0
70E0
70E0
70E0
71C0
7F80
7F00
7380
71C0
71C0
70E0
F8F0
0000
0700
0700
0300
0600
0400
ENDCHAR
STARTCHAR 0157
ENCODING 343
SWIDTH 462 0
DWIDTH 9 0
BBX 8 15 1 -6
BITMAP
77
FF
73
72
70
70
70
70
FC
00
70
70
30
30
60
ENDCHAR
STARTCHAR 0158
ENCODING 344
SWIDTH 668 0
DWIDTH 13 0
BBX 12 17 1 0
BITMAP
3300
1E00
0C00
0000
FF80
71C0
70E0
70E0
70E0
71C0
7F80
7F00
7380
71C0
71C0
70E0
F8F0
ENDCHAR
STARTCHAR 0159
ENCODING 345
SWIDTH 462 0
DWIDTH 9 0
BBX 8 14 1 0
BITMAP
42
66
3C
18
00
77
FF
73
72
70
70
70
70
FC
ENDCHAR
STARTCHAR 015A
ENCODING 346
SWIDTH 514 0
DWIDTH 10 0
BBX 9 17 1 0
BITMAP
0E00
0C00
1800
0000
3F00
6300
E300
E100
F000
7C00
3F00
1F80
0780
C380
C180
E300
7E00
ENDCHAR
STARTCHAR 015B
ENCODING 347
SWIDTH 411 0
DWIDTH 8 0
BBX 7 14 1 0
BITMAP
0C
18
18
10
00
7C
CE
C6
F0
7C
1E
8E
CE
FC
ENDCHAR
STARTCHAR 015C
ENCODING 348
SWIDTH 514 0
DWIDTH 10 0
BBX 9 17 1 0
BITMAP
1C00
3E00
6200
0000
3F00
6300
E300
E100
F000
7C00
3F00
1F80
0780
C380
C180
E300
7E00
ENDCHAR
STARTCHAR 015D
ENCODING 349
SWIDTH 411 0
DWIDTH 8 0
BBX 7 14 1 0
BITMAP
18
38
6C
86
00
7C
CE
C6
F0
7C
1E
8E
CE
FC
ENDCHAR
STARTCHAR 015E
ENCODING 350
SWIDTH 514 0
DWIDTH 10 0
BBX 9 18 1 -5
BITMAP
3F00
6300
E300
E100
F000
7C00
3F00
1F80
0780
C380
C180
E300
7E00
0800
1C00
0C00
0C00
1800
ENDCHAR
STARTCHAR 015F
ENCODING 351
SWIDTH 411 0
DWIDTH 8 0
BBX 7 14 1 -5
BITMAP
7C
CE
C6
F0
7C
1E
8E
CE
FC
30
38
18
18
20
ENDCHAR
STARTCHAR 0160
ENCODING 352
SWIDTH 514 0
DWIDTH 10 0
BBX 9 17 1 0
BITMAP
7300
3C00
1800
0000
3F00
6300
E300
E100
F000
7C00
3F00
1F80
0780
C380
C180
E300
7E00
ENDCHAR
STARTCHAR 0161
ENCODING 353
SWIDTH 411 0
DWIDTH 8 0
BBX 7 14 1 0
BITMAP
82
EC
78
30
00
7C
CE
C6
F0
7C
1E
8E
CE
FC
ENDCHAR
STARTCHAR 0162
ENCODING 354
SWIDTH 617 0
DWIDTH 12 0
BBX 11 18 1 -5
BITMAP
FFE0
CE60
8E20
0E00
0E00
0E00
0E00
0E00
0E00
0E00
0E00
0E00
3F80
0800
0C00
0600
0600
0800
ENDCHAR
STARTCHAR 0163
ENCODING 355
SWIDTH 360 0
DWIDTH 7 0
BBX 7 17 0 -5
BITMAP
10
30
30
FE
FE
30
30
30
30
30
38
3E
10
18
0C
0C
10
ENDCHAR
STARTCHAR 0164
ENCODING 356
SWIDTH 617 0
DWIDTH 12 0
BBX 11 17 1 0
BITMAP
3380
1E00
0C00
0000
FFE0
CE60
8E20
0E00
0E00
0E00
0E00
0E00
0E00
0E00
0E00
0E00
3F80
ENDCHAR
STARTCHAR 0165
ENCODING 357
SWIDTH 514 0
DWIDTH 10 0
BBX 10 14 0 0
BITMAP
00C0
01C0
10C0
30C0
3080
FE00
FE00
3000
3000
3000
3000
3000
3800
3E00
ENDCHAR
STARTCHAR 0166
ENCODING 358
SWIDTH 617 0
DWIDTH 12 0
BBX 11 13 1 0
BITMAP
FFE0
CE60
8E20
0E00
0E00
0E00
3F80
0E00
0E00
0E00
0E00
0E00
3F80
ENDCHAR
STARTCHAR 0167
ENCODING 359
SWIDTH 360 0
DWIDTH 7 0
BBX 7 12 0 0
BITMAP
10
30
30
FE
FE
30
30
FC
30
30
38
3E
ENDCHAR
STARTCHAR 0168
ENCODING 360
SWIDTH 668 0
DWIDTH 13 0
BBX 12 17 1 0
BITMAP
0E40
1FC0
0100
0000
F8F0
7060
7040
7040
7040
7040
7040
7040
7040
7040
7040
38C0
1F80
ENDCHAR
STARTCHAR 0169
ENCODING 361
SWIDTH 565 0
DWIDTH 11 0
BBX 11 13 0 0
BITMAP
1C80
3F80
0000
0000
73C0
F3C0
71C0
31C0
31C0
31C0
31C0
39E0
3FE0
ENDCHAR
STARTCHAR 016A
ENCODING 362
SWIDTH 668 0
DWIDTH 13 0
BBX 12 16 1 0
BITMAP
1FC0
0000
0000
F8F0
7060
7040
7040
7040
7040
7040
7040
7040
7040
7040
38C0
1F80
ENDCHAR
STARTCHAR 016B
ENCODING 363
SWIDTH 565 0
DWIDTH 11 0
BBX 11 12 0 0
BITMAP
3F80
0000
0000
73C0
F3C0
71C0
31C0
31C0
31C0
31C0
39E0
3FE0
ENDCHAR
STARTCHAR 016C
ENCODING 364
SWIDTH 668 0
DWIDTH 13 0
BBX 12 17 1 0
BITMAP
18C0
1F80
0F00
0000
F8F0
7060
7040
7040
7040
7040
7040
7040
7040
7040
7040
38C0
1F80
ENDCHAR
STARTCHAR 016D
ENCODING 365
SWIDTH 565 0
DWIDTH 11 0
BBX 11 14 0 0
BITMAP
3080
3080
1F80
0F00
0000
73C0
F3C0
71C0
31C0
31C0
31C0
31C0
39E0
3FE0
ENDCHAR
STARTCHAR 016E
ENCODING 366
SWIDTH 668 0
DWIDTH 13 0
BBX 12 17 1 0
BITMAP
0700
0D80
0700
0000
F8F0
7060
7040
7040
7040
7040
7040
7040
7040
7040
7040
38C0
1F80
ENDCHAR
STARTCHAR 016F
ENCODING 367
SWIDTH 565 0
DWIDTH 11 0
BBX 11 14 0 0
BITMAP
0F00
0900
0900
0E00
0000
73C0
F3C0
71C0
31C0
31C0
31C0
31C0
39E0
3FE0
ENDCHAR
STARTCHAR 0170
ENCODING 368
SWIDTH 668 0
DWIDTH 13 0
BBX 12 17 1 0
BITMAP
06C0
0C80
0880
0000
F8F0
7060
7040
7040
7040
7040
7040
7040
7040
7040
7040
38C0
1F80
ENDCHAR
STARTCHAR 0171
ENCODING 369
SWIDTH 565 0
DWIDTH 11 0
BBX 11 14 0 0
BITMAP
0EC0
0D80
1980
1100
0000
73C0
F3C0
71C0
31C0
31C0
31C0
31C0
39E0
3FE0
ENDCHAR
STARTCHAR 0172
ENCODING 370
SWIDTH 668 0
DWIDTH 13 0
BBX 12 18 1 -5
BITMAP
F8F0
7060
7040
7040
7040
7040
7040
7040
7040
7040
7040
38C0
1F80
0300
0600
0600
0780
0300
ENDCHAR
STARTCHAR 0173
ENCODING 371
SWIDTH 565 0
DWIDTH 11 0
BBX 11 14 0 -5
BITMAP
73C0
F3C0
71C0
31C0
31C0
31C0
31C0
39E0
3FE0
0080
0180
0180
01E0
00C0
ENDCHAR
STARTCHAR 0174
ENCODING 372
SWIDTH 977 0
DWIDTH 19 0
BBX 19 17 0 0
BITMAP
007000
00F800
010800
000000
FC21E0
7870C0
3870C0
387080
38B880
1CB980
1DBD00
1D1D00
0F1D00
0F0E00
0E0E00
060E00
060600
ENDCHAR
STARTCHAR 0175
ENCODING 373
SWIDTH 771 0
DWIDTH 15 0
BBX 15 14 0 0
BITMAP
00C0
01C0
0360
0430
0000
F89E
71CC
39CC
39E8
3AE8
1AE8
1E70
1C70
0C30
ENDCHAR
STARTCHAR 0176
ENCODING 374
SWIDTH 617 0
DWIDTH 12 0
BBX 12 17 0 0
BITMAP
0300
0FC0
0840
0000
FCF0
7860
3840
1C40
1C80
1E80
0F00
0F00
0700
0700
0700
0F00
1FC0
ENDCHAR
STARTCHAR 0177
ENCODING 375
SWIDTH 514 0
DWIDTH 10 0
BBX 11 19 0 -5
BITMAP
0200
0700
1D80
10C0
0000
FDE0
78C0
3880
3880
1D00
1D00
0F00
0E00
0E00
0400
0400
5800
7800
7000
ENDCHAR
STARTCHAR 0178
ENCODING 376
SWIDTH 617 0
DWIDTH 12 0
BBX 12 17 0 0
BITMAP
0CC0
1CE0
0CC0
0000
FCF0
7860
3840
1C40
1C80
1E80
0F00
0F00
0700
0700
0700
0F00
1FC0
ENDCHAR
STARTCHAR 0179
ENCODING 377
SWIDTH 565 0
DWIDTH 11 0
BBX 10 17 1 0
BITMAP
0600
0400
0C00
0000
7FC0
6380
C780
C700
0F00
0E00
1E00
1C00
3800
7880
70C0
F1C0
FF80
ENDCHAR
STARTCHAR 017A
ENCODING 378
SWIDTH 462 0
DWIDTH 9 0
BBX 8 14 1 0
BITMAP
0E
0C
08
18
00
FF
CF
CE
1C
3C
38
71
F3
FF
ENDCHAR
STARTCHAR 017B
ENCODING 379
SWIDTH 565 0
DWIDTH 11 0
BBX 10 17 1 0
BITMAP
0C00
1E00
0C00
0000
7FC0
6380
C780
C700
0F00
0E00
1E00
1C00
3800
7880
70C0
F1C0
FF80
ENDCHAR
STARTCHAR 017C
ENCODING 380
SWIDTH 462 0
DWIDTH 9 0
BBX 8 13 1 0
BITMAP
18
3C
18
00
FF
CF
CE
1C
3C
38
71
F3
FF
ENDCHAR
STARTCHAR 017D
ENCODING 381
SWIDTH 565 0
DWIDTH 11 0
BBX 10 17 1 0
BITMAP
3300
1E00
0C00
0000
7FC0
6380
C780
C700
0F00
0E00
1E00
1C00
3800
7880
70C0
F1C0
FF80
ENDCHAR
STARTCHAR 017E
ENCODING 382
SWIDTH 462 0
DWIDTH 9 0
BBX 8 14 1 0
BITMAP
42
66
3C
18
00
FF
CF
CE
1C
3C
38
71
F3
FF
ENDCHAR
STARTCHAR 017F
ENCODING 383
SWIDTH 360 0
DWIDTH 7 0
BBX 8 14 1 0
BITMAP
0F
33
33
70
70
F0
F0
70
70
70
70
70
70
FC
ENDCHAR
STARTCHAR 018E
ENCODING 398
SWIDTH 617 0
DWIDTH 12 0
BBX 10 13 1 0
BITMAP
7FC0
6380
C380
0380
3380
3380
3F80
3380
2380
8380
8380
C380
FFC0
ENDCHAR
STARTCHAR 018F
ENCODING 399
SWIDTH 668 0
DWIDTH 13 0
BBX 11 13 1 0
BITMAP
FF00
E3C0
C1C0
40E0
00E0
00E0
FFE0
E0E0
E0E0
E0E0
60C0
7180
3F00
ENDCHAR
STARTCHAR 0192
ENCODING 402
SWIDTH 411 0
DWIDTH 8 0
BBX 13 19 -3 -5
BITMAP
00F8
01D8
0398
0380
0380
0FC0
0FC0
0700
0700
0700
0600
0600
0600
0E00
0E00
0C00
CC00
D800
F000
ENDCHAR
STARTCHAR 019D
ENCODING 413
SWIDTH 720 0
DWIDTH 14 0
BBX 15 18 -2 -5
BITMAP
1E1E
0F04
0F04
0F84
0FC4
0DE4
0CE4
0C74
0C7C
0C3C
0C1C
0C0C
080C
0800
0800
B800
F000
E000
ENDCHAR
STARTCHAR 01A0
ENCODING 416
SWIDTH 720 0
DWIDTH 14 0
BBX 13 16 1 0
BITMAP
0010
0018
0030
1FE0
30E0
6070
E070
E038
E038
E038
E038
E038
E070
7070
38E0
1F80
ENDCHAR
STARTCHAR 01A1
ENCODING 417
SWIDTH 565 0
DWIDTH 11 0
BBX 10 11 1 0
BITMAP
00C0
00C0
3F80
6700
E380
E380
E180
E180
E380
7300
3E00
ENDCHAR
STARTCHAR 01AF
ENCODING 431
SWIDTH 720 0
DWIDTH 14 0
BBX 13 16 1 0
BITMAP
0008
0008
0018
F8F8
7060
7040
7040
7040
7040
7040
7040
7040
7040
7040
38C0
1F80
ENDCHAR
STARTCHAR 01B0
ENCODING 432
SWIDTH 617 0
DWIDTH 12 0
BBX 12 11 0 0
BITMAP
0030
0030
73E0
F3C0
71C0
31C0
31C0
31C0
31C0
39E0
3FE0
ENDCHAR
STARTCHAR 01B7
ENCODING 439
SWIDTH 565 0
DWIDTH 11 0
BBX 10 13 1 0
BITMAP
FFC0
C380
C780
CF00
0E00
1C00
1F80
03C0
01C0
C1C0
C1C0
E380
7F00
ENDCHAR
STARTCHAR 01C4
ENCODING 452
SWIDTH 1337 0
DWIDTH 26 0
BBX 24 17 1 0
BITMAP
0000CE
000078
000030
000000
FFC1FF
70E18F
70710E
70711E
70701C
703838
703878
703870
7070F0
7070E1
7061E3
79C3C7
FF03FF
ENDCHAR
STARTCHAR 01C5
ENCODING 453
SWIDTH 1234 0
DWIDTH 24 0
BBX 23 14 1 0
BITMAP
000108
FFC1D8
70E0F0
707060
707000
7073FC
703B9C
703B38
703878
707070
7070E0
7061E4
79C3CC
FF03FE
ENDCHAR
STARTCHAR 01C6
ENCODING 454
SWIDTH 1080 0
DWIDTH 21 0
BBX 20 14 1 0
BITMAP
018420
0786E0
0383C0
038180
038000
3F8FF0
738CF0
E38CE0
E381C0
E38380
E38780
E38730
F3CE30
7FCFF0
ENDCHAR
STARTCHAR 01C7
ENCODING 455
SWIDTH 925 0
DWIDTH 18 0
BBX 17 18 1 -5
BITMAP
FC1F80
700700
700700
700700
700700
700700
700700
700700
700700
704700
70C700
78C700
FFC700
000600
000E00
000C00
001800
001000
ENDCHAR
STARTCHAR 01C8
ENCODING 456
SWIDTH 874 0
DWIDTH 17 0
BBX 16 18 1 -5
BITMAP
FC0F
700F
7000
7000
7006
701F
7007
7007
7007
7047
70C7
78C7
FFC6
0006
000E
000C
0018
0010
ENDCHAR
STARTCHAR 01C9
ENCODING 457
SWIDTH 617 0
DWIDTH 12 0
BBX 10 19 1 -5
BITMAP
3000
F1C0
71C0
7000
7000
71C0
73C0
70C0
70C0
70C0
70C0
70C0
70C0
F8C0
00C0
01C0
0180
0300
0200
ENDCHAR
STARTCHAR 01CA
ENCODING 458
SWIDTH 1080 0
DWIDTH 21 0
BBX 19 18 1 -5
BITMAP
F0F3E0
7821C0
7821C0
7C21C0
7E21C0
6F21C0
6721C0
63A1C0
63E1C0
61E1C0
60E1C0
6061C0
F061C0
0001C0
000180
000380
000700
000400
ENDCHAR
STARTCHAR 01CB
ENCODING 459
SWIDTH 1028 0
DWIDTH 20 0
BBX 18 18 1 -5
BITMAP
F0F1C0
7821C0
782000
7C2000
7E21C0
6F23C0
6721C0
63A1C0
63E1C0
61E1C0
60E1C0
6061C0
F061C0
0001C0
000180
000380
000300
000200
ENDCHAR
STARTCHAR 01CC
ENCODING 460
SWIDTH 925 0
DWIDTH 18 0
BBX 17 18 1 -5
BITMAP
000380
000380
000000
000000
778380
FFCF80
71C380
71C380
71C380
71C380
71C380
71C380
FBE380
000300
000300
000600
000E00
000800
ENDCHAR
STARTCHAR 01CD
ENCODING 461
SWIDTH 668 0
DWIDTH 13 0
BBX 13 17 0 0
BITMAP
1CC0
0F80
0600
0000
0300
0700
0700
0780
0B80
09C0
19C0
10E0
1FE0
20F0
2070
6078
F0F8
ENDCHAR
STARTCHAR 01CE
ENCODING 462
SWIDTH 514 0
DWIDTH 10 0
BBX 9 14 1 0
BITMAP
4200
6600
3C00
1800
0000
1E00
6F00
E700
6700
1F00
6700
E700
E780
7F80
ENDCHAR
STARTCHAR 01CF
ENCODING 463
SWIDTH 360 0
DWIDTH 7 0
BBX 6 17 1 0
BITMAP
CC
78
70
00
FC
70
70
70
70
70
70
70
70
70
70
70
FC
ENDCHAR
STARTCHAR 01D0
ENCODING 464
SWIDTH 308 0
DWIDTH 6 0
BBX 5 14 1 0
BITMAP
88
D8
70
60
00
70
F0
70
70
70
70
70
70
F8
ENDCHAR
STARTCHAR 01D1
ENCODING 465
SWIDTH 720 0
DWIDTH 14 0
BBX 13 17 1 0
BITMAP
1980
0F00
0600
0000
1FC0
30E0
6070
E070
E038
E038
E038
E038
E038
E070
7070
38E0
1F80
ENDCHAR
STARTCHAR 01D2
ENCODING 466
SWIDTH 565 0
DWIDTH 11 0
BBX 9 14 1 0
BITMAP
4100
7600
3C00
1800
0000
3E00
6700
E380
E380
E180
E180
E380
7300
3E00
ENDCHAR
STARTCHAR 01D3
ENCODING 467
SWIDTH 668 0
DWIDTH 13 0
BBX 12 17 1 0
BITMAP
18C0
0F00
0600
0000
F8F0
7060
7040
7040
7040
7040
7040
7040
7040
7040
7040
38C0
1F80
ENDCHAR
STARTCHAR 01D4
ENCODING 468
SWIDTH 565 0
DWIDTH 11 0
BBX 11 14 0 0
BITMAP
1080
1B80
0F00
0600
0000
73C0
F3C0
71C0
31C0
31C0
31C0
31C0
39E0
3FE0
ENDCHAR
STARTCHAR 01D5
ENCODING 469
SWIDTH 668 0
DWIDTH 13 0
BBX 12 19 1 0
BITMAP
1FC0
0000
18C0
1DC0
18C0
0000
F8F0
7060
7040
7040
7040
7040
7040
7040
7040
7040
7040
38C0
1F80
ENDCHAR
STARTCHAR 01D6
ENCODING 470
SWIDTH 565 0
DWIDTH 11 0
BBX 11 15 0 0
BITMAP
3F80
0000
1180
3B80
3980
0000
73C0
F3C0
71C0
31C0
31C0
31C0
31C0
39E0
3FE0
ENDCHAR
STARTCHAR 01D7
ENCODING 471
SWIDTH 668 0
DWIDTH 13 0
BBX 12 20 1 0
BITMAP
0380
0200
0000
18C0
1DC0
18C0
0000
F8F0
7060
7040
7040
7040
7040
7040
7040
7040
7040
7040
38C0
1F80
ENDCHAR
STARTCHAR 01D8
ENCODING 472
SWIDTH 565 0
DWIDTH 11 0
BBX 11 16 0 0
BITMAP
0300
0600
0400
1180
3B80
3980
0000
73C0
F3C0
71C0
31C0
31C0
31C0
31C0
39E0
3FE0
ENDCHAR
STARTCHAR 01D9
ENCODING 473
SWIDTH 668 0
DWIDTH 13 0
BBX 12 20 1 1
BITMAP
1D80
0700
0000
18C0
1DC0
18C0
0000
F8F0
7060
7040
7040
7040
7040
7040
7040
7040
7040
7040
38C0
1F80
ENDCHAR
STARTCHAR 01DA
ENCODING 474
SWIDTH 565 0
DWIDTH 11 0
BBX 11 16 0 0
BITMAP
3980
0E00
0400
1180
3B80
3980
0000
73C0
F3C0
71C0
31C0
31C0
31C0
31C0
39E0
3FE0
ENDCHAR
STARTCHAR 01DB
ENCODING 475
SWIDTH 668 0
DWIDTH 13 0
BBX 12 20 1 0
BITMAP
0E00
0600
0000
18C0
1DC0
18C0
0000
F8F0
7060
7040
7040
7040
7040
7040
7040
7040
7040
7040
38C0
1F80
ENDCHAR
STARTCHAR 01DC
ENCODING 476
SWIDTH 565 0
DWIDTH 11 0
BBX 11 16 0 0
BITMAP
0C00
0400
0400
1180
3B80
3980
0000
73C0
F3C0
71C0
31C0
31C0
31C0
31C0
39E0
3FE0
ENDCHAR
STARTCHAR 01DD
ENCODING 477
SWIDTH 462 0
DWIDTH 9 0
BBX 8 9 1 0
BITMAP
7C
CE
07
07
FF
C7
C7
E6
7C
ENDCHAR
STARTCHAR 01E4
ENCODING 484
SWIDTH 668 0
DWIDTH 13 0
BBX 13 13 1 0
BITMAP
1FE0
3060
7060
E060
E000
E000
E000
E1F0
E0E0
E3F8
7060
38E0
1FC0
ENDCHAR
STARTCHAR 01E5
ENCODING 485
SWIDTH 514 0
DWIDTH 10 0
BBX 12 14 -1 -5
BITMAP
1FE0
39C0
39C0
39C0
39C0
1F80
1000
3F00
3FE0
1FE0
30E0
FFF0
39C0
1F00
ENDCHAR
STARTCHAR 01E6
ENCODING 486
SWIDTH 668 0
DWIDTH 13 0
BBX 12 17 1 0
BITMAP
18C0
0F00
0600
0000
1FE0
3060
7060
E060
E000
E000
E000
E1F0
E060
E060
7060
38E0
1FC0
ENDCHAR
STARTCHAR 01E7
ENCODING 487
SWIDTH 514 0
DWIDTH 10 0
BBX 9 19 1 -5
BITMAP
4200
6600
3C00
1800
0000
7F80
E700
E700
E700
E700
7E00
4000
FC00
FF80
7F80
C380
C300
E700
7C00
ENDCHAR
STARTCHAR 01E8
ENCODING 488
SWIDTH 720 0
DWIDTH 14 0
BBX 13 17 1 0
BITMAP
1980
0F00
0600
0000
FDF0
70C0
7180
7100
7200
7600
7F00
7700
7380
73C0
71C0
70F0
FCF8
ENDCHAR
STARTCHAR 01E9
ENCODING 489
SWIDTH 565 0
DWIDTH 11 0
BBX 11 17 1 0
BITMAP
3300
1E00
0C00
3000
F000
7000
7000
7000
73C0
7180
7300
7600
7E00
7700
7380
73C0
F9E0
ENDCHAR
STARTCHAR 01EA
ENCODING 490
SWIDTH 720 0
DWIDTH 14 0
BBX 13 18 1 -5
BITMAP
1FC0
30E0
6070
E070
E038
E038
E038
E038
E038
E070
7070
38E0
1F80
0300
0600
0700
07C0
0300
ENDCHAR
STARTCHAR 01EB
ENCODING 491
SWIDTH 565 0
DWIDTH 11 0
BBX 9 14 1 -5
BITMAP
3E00
6700
E380
E380
E180
E180
E380
7300
3E00
1800
3000
3000
3C00
1800
ENDCHAR
STARTCHAR 01EE
ENCODING 494
SWIDTH 565 0
DWIDTH 11 0
BBX 10 17 1 0
BITMAP
7300
3E00
0800
0000
FFC0
C380
C780
CF00
0E00
1C00
1F80
03C0
01C0
C1C0
C1C0
E380
7F00
ENDCHAR
STARTCHAR 01EF
ENCODING 495
SWIDTH 462 0
DWIDTH 9 0
BBX 8 19 1 -5
BITMAP
42
66
3C
18
00
FF
C7
CE
1E
1C
38
3E
0F
07
03
87
C7
FE
78
ENDCHAR
STARTCHAR 01F1
ENCODING 497
SWIDTH 1337 0
DWIDTH 26 0
BBX 24 13 1 0
BITMAP
FFC1FF
70E18F
70710E
70711E
70701C
703838
703878
703870
7070F0
7070E1
7061E3
79C3C7
FF03FF
ENDCHAR
STARTCHAR 01F2
ENCODING 498
SWIDTH 1234 0
DWIDTH 24 0
BBX 23 13 1 0
BITMAP
FFC000
70E000
707000
707000
7073FC
703B9C
703B38
703878
707070
7070E0
7061E4
79C3CC
FF03FE
ENDCHAR
STARTCHAR 01F3
ENCODING 499
SWIDTH 1080 0
DWIDTH 21 0
BBX 20 14 1 0
BITMAP
018000
078000
038000
038000
038000
3F8FF0
738CF0
E38CE0
E381C0
E38380
E38780
E38730
F3CE30
7FCFF0
ENDCHAR
STARTCHAR 01FA
ENCODING 506
SWIDTH 668 0
DWIDTH 13 0
BBX 13 21 0 0
BITMAP
0180
0300
0200
0000
0780
0D80
0700
0000
0300
0700
0700
0780
0B80
09C0
19C0
10E0
1FE0
20F0
2070
6078
F0F8
ENDCHAR
STARTCHAR 01FB
ENCODING 507
SWIDTH 514 0
DWIDTH 10 0
BBX 9 17 1 0
BITMAP
0C00
0800
1800
0000
3C00
2400
3C00
0000
1E00
6F00
E700
6700
1F00
6700
E700
E780
7F80
ENDCHAR
STARTCHAR 01FC
ENCODING 508
SWIDTH 925 0
DWIDTH 18 0
BBX 18 17 0 0
BITMAP
003800
003000
006000
000000
03FF80
01F180
017080
037000
027000
067200
07FE00
0C7600
187200
107000
3070C0
7071C0
F8FFC0
ENDCHAR
STARTCHAR 01FD
ENCODING 509
SWIDTH 720 0
DWIDTH 14 0
BBX 12 14 1 0
BITMAP
0180
0300
0200
0200
0000
7DE0
EF70
C630
0630
7FF0
E600
CF00
EF90
F1F0
ENDCHAR
STARTCHAR 01FE
ENCODING 510
SWIDTH 720 0
DWIDTH 14 0
BBX 13 18 1 -1
BITMAP
0300
0300
0600
0010
1FF0
30E0
60F0
E0F0
E1B8
E338
E638
E438
EC38
F870
7070
78E0
5F80
4000
ENDCHAR
STARTCHAR 01FF
ENCODING 511
SWIDTH 565 0
DWIDTH 11 0
BBX 9 15 1 -1
BITMAP
0600
0C00
0C00
0800
0000
3F80
6700
E780
E780
E980
F980
F380
7300
FE00
8000
ENDCHAR
STARTCHAR 0200
ENCODING 512
SWIDTH 668 0
DWIDTH 13 0
BBX 13 17 0 0
BITMAP
1B00
1980
0C80
0000
0300
0700
0700
0780
0B80
09C0
19C0
10E0
1FE0
20F0
2070
6078
F0F8
ENDCHAR
STARTCHAR 0201
ENCODING 513
SWIDTH 514 0
DWIDTH 10 0
BBX 9 14 1 0
BITMAP
DC00
6C00
2600
2200
0000
1E00
6F00
E700
6700
1F00
6700
E700
E780
7F80
ENDCHAR
STARTCHAR 0202
ENCODING 514
SWIDTH 668 0
DWIDTH 13 0
BBX 13 17 0 0
BITMAP
0780
0FC0
18C0
0000
0300
0700
0700
0780
0B80
09C0
19C0
10E0
1FE0
20F0
2070
6078
F0F8
ENDCHAR
STARTCHAR 0203
ENCODING 515
SWIDTH 514 0
DWIDTH 10 0
BBX 9 14 1 0
BITMAP
3C00
7E00
C700
C300
0000
1E00
6F00
E700
6700
1F00
6700
E700
E780
7F80
ENDCHAR
STARTCHAR 0204
ENCODING 516
SWIDTH 617 0
DWIDTH 12 0
BBX 10 17 1 0
BITMAP
6C00
6600
3200
0000
FFC0
70C0
70C0
7000
7100
7300
7F00
7300
7100
7040
7040
78C0
FFC0
ENDCHAR
STARTCHAR 0205
ENCODING 517
SWIDTH 462 0
DWIDTH 9 0
BBX 8 14 1 0
BITMAP
EC
66
26
32
00
3E
67
E7
E3
FF
E0
E0
73
3E
ENDCHAR
STARTCHAR 0206
ENCODING 518
SWIDTH 617 0
DWIDTH 12 0
BBX 10 17 1 0
BITMAP
1E00
3F00
2300
0000
FFC0
70C0
70C0
7000
7100
7300
7F00
7300
7100
7040
7040
78C0
FFC0
ENDCHAR
STARTCHAR 0207
ENCODING 519
SWIDTH 462 0
DWIDTH 9 0
BBX 8 14 1 0
BITMAP
3C
7E
43
43
00
3E
67
E7
E3
FF
E0
E0
73
3E
ENDCHAR
STARTCHAR 0208
ENCODING 520
SWIDTH 360 0
DWIDTH 7 0
BBX 7 17 0 0
BITMAP
D8
6C
64
00
7E
38
38
38
38
38
38
38
38
38
38
38
7E
ENDCHAR
STARTCHAR 0209
ENCODING 521
SWIDTH 308 0
DWIDTH 6 0
BBX 7 14 -1 0
BITMAP
EC
6C
26
36
00
1C
3C
1C
1C
1C
1C
1C
1C
3E
ENDCHAR
STARTCHAR 020A
ENCODING 522
SWIDTH 360 0
DWIDTH 7 0
BBX 6 17 1 0
BITMAP
78
F8
8C
00
FC
70
70
70
70
70
70
70
70
70
70
70
FC
ENDCHAR
STARTCHAR 020B
ENCODING 523
SWIDTH 308 0
DWIDTH 6 0
BBX 6 14 0 0
BITMAP
38
7C
CC
84
00
38
78
38
38
38
38
38
38
7C
ENDCHAR
STARTCHAR 020C
ENCODING 524
SWIDTH 720 0
DWIDTH 14 0
BBX 13 17 1 0
BITMAP
3300
1B00
0980
0000
1FC0
30E0
6070
E070
E038
E038
E038
E038
E038
E070
7070
38E0
1F80
ENDCHAR
STARTCHAR 020D
ENCODING 525
SWIDTH 565 0
DWIDTH 11 0
BBX 9 14 1 0
BITMAP
EC00
6600
3200
1200
0000
3E00
6700
E380
E380
E180
E180
E380
7300
3E00
ENDCHAR
STARTCHAR 020E
ENCODING 526
SWIDTH 720 0
DWIDTH 14 0
BBX 13 17 1 0
BITMAP
0F00
1F80
1080
0000
1FC0
30E0
6070
E070
E038
E038
E038
E038
E038
E070
7070
38E0
1F80
ENDCHAR
STARTCHAR 020F
ENCODING 527
SWIDTH 565 0
DWIDTH 11 0
BBX 9 14 1 0
BITMAP
1C00
7F00
6300
4100
0000
3E00
6700
E380
E380
E180
E180
E380
7300
3E00
ENDCHAR
STARTCHAR 0210
ENCODING 528
SWIDTH 668 0
DWIDTH 13 0
BBX 12 17 1 0
BITMAP
6600
3600
1300
0000
FF80
71C0
70E0
70E0
70E0
71C0
7F80
7F00
7380
71C0
71C0
70E0
F8F0
ENDCHAR
STARTCHAR 0211
ENCODING 529
SWIDTH 462 0
DWIDTH 9 0
BBX 8 14 1 0
BITMAP
DC
6C
66
22
00
77
FF
73
72
70
70
70
70
FC
ENDCHAR
STARTCHAR 0212
ENCODING 530
SWIDTH 668 0
DWIDTH 13 0
BBX 12 17 1 0
BITMAP
1E00
3F00
2100
0000
FF80
71C0
70E0
70E0
70E0
71C0
7F80
7F00
7380
71C0
71C0
70E0
F8F0
ENDCHAR
STARTCHAR 0213
ENCODING 531
SWIDTH 462 0
DWIDTH 9 0
BBX 8 14 1 0
BITMAP
3C
7E
C6
C3
00
77
FF
73
72
70
70
70
70
FC
ENDCHAR
STARTCHAR 0214
ENCODING 532
SWIDTH 668 0
DWIDTH 13 0
BBX 12 17 1 0
BITMAP
3B00
1900
0D80
0000
F8F0
7060
7040
7040
7040
7040
7040
7040
7040
7040
7040
38C0
1F80
ENDCHAR
STARTCHAR 0215
ENCODING 533
SWIDTH 565 0
DWIDTH 11 0
BBX 11 14 0 0
BITMAP
3700
1B00
1980
0880
0000
73C0
F3C0
71C0
31C0
31C0
31C0
31C0
39E0
3FE0
ENDCHAR
STARTCHAR 0216
ENCODING 534
SWIDTH 668 0
DWIDTH 13 0
BBX 12 17 1 0
BITMAP
0F80
1F80
18C0
0000
F8F0
7060
7040
7040
7040
7040
7040
7040
7040
7040
7040
38C0
1F80
ENDCHAR
STARTCHAR 0217
ENCODING 535
SWIDTH 565 0
DWIDTH 11 0
BBX 11 14 0 0
BITMAP
0F00
1F80
3180
2080
0000
73C0
F3C0
71C0
31C0
31C0
31C0
31C0
39E0
3FE0
ENDCHAR
STARTCHAR 0218
ENCODING 536
SWIDTH 514 0
DWIDTH 10 0
BBX 9 19 1 -6
BITMAP
3F00
6300
E300
E100
F000
7C00
3F00
1F80
0780
C380
C180
E300
7E00
0000
1C00
1C00
0C00
0800
1000
ENDCHAR
STARTCHAR 0219
ENCODING 537
SWIDTH 411 0
DWIDTH 8 0
BBX 7 15 1 -6
BITMAP
7C
CE
C6
F0
7C
1E
8E
CE
FC
00
38
38
18
10
20
ENDCHAR
STARTCHAR 021A
ENCODING 538
SWIDTH 617 0
DWIDTH 12 0
BBX 11 19 1 -6
BITMAP
FFE0
CE60
8E20
0E00
0E00
0E00
0E00
0E00
0E00
0E00
0E00
0E00
3F80
0000
0E00
0E00
0600
0C00
0800
ENDCHAR
STARTCHAR 021B
ENCODING 539
SWIDTH 360 0
DWIDTH 7 0
BBX 7 18 0 -6
BITMAP
10
30
30
FE
FE
30
30
30
30
30
38
3E
00
1C
1C
0C
18
10
ENDCHAR
STARTCHAR 021C
ENCODING 540
SWIDTH 565 0
DWIDTH 11 0
BBX 9 16 1 -3
BITMAP
FE00
C700
C380
4380
0300
0700
0C00
3E00
0780
0380
0380
0380
0380
0380
8700
FE00
ENDCHAR
STARTCHAR 021D
ENCODING 541
SWIDTH 462 0
DWIDTH 9 0
BBX 8 14 1 -5
BITMAP
7C
C6
C7
C7
06
1C
7C
0F
07
07
07
07
DE
78
ENDCHAR
STARTCHAR 021E
ENCODING 542
SWIDTH 771 0
DWIDTH 15 0
BBX 13 17 1 0
BITMAP
1CC0
0F00
0600
0000
FCF8
7070
7070
7070
7070
7070
7FF0
7070
7070
7070
7070
7070
FCF8
ENDCHAR
STARTCHAR 021F
ENCODING 543
SWIDTH 617 0
DWIDTH 12 0
BBX 11 17 1 0
BITMAP
7300
1E00
0800
3000
F000
7000
7000
7000
7780
7FC0
71C0
71C0
71C0
71C0
71C0
71C0
FBE0
ENDCHAR
STARTCHAR 0228
ENCODING 552
SWIDTH 617 0
DWIDTH 12 0
BBX 10 18 1 -5
BITMAP
FFC0
70C0
70C0
7000
7100
7300
7F00
7300
7100
7040
7040
78C0
FFC0
0800
0C00
0600
0600
0800
ENDCHAR
STARTCHAR 0229
ENCODING 553
SWIDTH 462 0
DWIDTH 9 0
BBX 8 14 1 -5
BITMAP
3E
67
E7
E3
FF
E0
E0
F3
3E
18
1C
0C
0C
10
ENDCHAR
STARTCHAR 022A
ENCODING 554
SWIDTH 720 0
DWIDTH 14 0
BBX 13 19 1 0
BITMAP
1FC0
0000
1980
1DC0
19C0
0000
1FC0
30E0
6070
E070
E038
E038
E038
E038
E038
E070
7070
38E0
1F80
ENDCHAR
STARTCHAR 022B
ENCODING 555
SWIDTH 565 0
DWIDTH 11 0
BBX 9 15 1 0
BITMAP
7F00
0000
2200
7700
7700
0000
3E00
6700
E380
E380
E180
E180
E380
7300
3E00
ENDCHAR
STARTCHAR 022C
ENCODING 556
SWIDTH 720 0
DWIDTH 14 0
BBX 13 19 1 0
BITMAP
1FC0
0000
0E40
1F80
0100
0000
1FC0
30E0
6070
E070
E038
E038
E038
E038
E038
E070
7070
38E0
1F80
ENDCHAR
STARTCHAR 022D
ENCODING 557
SWIDTH 565 0
DWIDTH 11 0
BBX 9 15 1 0
BITMAP
7F00
0000
1000
7F00
4E00
0000
3E00
6700
E380
E380
E180
E180
E380
7300
3E00
ENDCHAR
STARTCHAR 0230
ENCODING 560
SWIDTH 720 0
DWIDTH 14 0
BBX 13 19 1 0
BITMAP
1FC0
0000
0600
0700
0700
0000
1FC0
30E0
6070
E070
E038
E038
E038
E038
E038
E070
7070
38E0
1F80
ENDCHAR
STARTCHAR 0231
ENCODING 561
SWIDTH 565 0
DWIDTH 11 0
BBX 9 15 1 0
BITMAP
7F00
7F00
0800
1C00
1C00
0000
3E00
6700
E380
E380
E180
E180
E380
7300
3E00
ENDCHAR
STARTCHAR 0232
ENCODING 562
SWIDTH 617 0
DWIDTH 12 0
BBX 12 16 0 0
BITMAP
1FE0
0000
0000
FCF0
7860
3840
1C40
1C80
1E80
0F00
0F00
0700
0700
0700
0F00
1FC0
ENDCHAR
STARTCHAR 0233
ENCODING 563
SWIDTH 514 0
DWIDTH 10 0
BBX 11 17 0 -5
BITMAP
1FC0
0000
0000
FDE0
78C0
3880
3880
1D00
1D00
0F00
0E00
0E00
0400
0400
5800
7800
7000
ENDCHAR
STARTCHAR 0237
ENCODING 567
SWIDTH 308 0
DWIDTH 6 0
BBX 4 14 1 -5
BITMAP
70
F0
70
70
70
70
70
70
70
70
60
E0
C0
80
ENDCHAR
STARTCHAR 0258
ENCODING 600
SWIDTH 462 0
DWIDTH 9 0
BBX 8 9 1 0
BITMAP
7C
E6
C7
C7
FF
07
87
C6
FC
ENDCHAR
STARTCHAR 0259
ENCODING 601
SWIDTH 462 0
DWIDTH 9 0
BBX 8 9 1 0
BITMAP
7C
CE
07
07
FF
C7
C7
E6
7C
ENDCHAR
STARTCHAR 0272
ENCODING 626
SWIDTH 617 0
DWIDTH 12 0
BBX 11 14 1 -5
BITMAP
7780
FFC0
71C0
71C0
71C0
71C0
71C0
71C0
73E0
7000
6000
E000
C000
8000
ENDCHAR
STARTCHAR 0292
ENCODING 658
SWIDTH 462 0
DWIDTH 9 0
BBX 8 14 1 -5
BITMAP
FF
C7
CE
1E
1C
38
3E
0F
07
03
87
C7
FE
78
ENDCHAR
STARTCHAR 02B9
ENCODING 697
SWIDTH 257 0
DWIDTH 5 0
BBX 4 5 1 9
BITMAP
30
60
60
40
C0
ENDCHAR
STARTCHAR 02BA
ENCODING 698
SWIDTH 462 0
DWIDTH 9 0
BBX 7 5 1 9
BITMAP
32
66
64
4C
C8
ENDCHAR
STARTCHAR 02BB
ENCODING 699
SWIDTH 257 0
DWIDTH 5 0
BBX 3 5 1 8
BITMAP
60
40
C0
E0
E0
ENDCHAR
STARTCHAR 02BC
ENCODING 700
SWIDTH 257 0
DWIDTH 5 0
BBX 3 6 1 8
BITMAP
60
E0
60
60
60
C0
ENDCHAR
STARTCHAR 02BE
ENCODING 702
SWIDTH 257 0
DWIDTH 5 0
BBX 3 5 1 9
BITMAP
C0
60
60
60
E0
ENDCHAR
STARTCHAR 02BF
ENCODING 703
SWIDTH 257 0
DWIDTH 5 0
BBX 3 5 1 9
BITMAP
60
C0
C0
C0
E0
ENDCHAR
STARTCHAR 02C6
ENCODING 710
SWIDTH 257 0
DWIDTH 5 0
BBX 7 4 -1 10
BITMAP
18
3C
6E
C2
ENDCHAR
STARTCHAR 02C7
ENCODING 711
SWIDTH 257 0
DWIDTH 5 0
BBX 6 4 0 10
BITMAP
84
CC
78
30
ENDCHAR
STARTCHAR 02C8
ENCODING 712
SWIDTH 205 0
DWIDTH 4 0
BBX 2 6 1 8
BITMAP
40
C0
C0
C0
C0
C0
ENDCHAR
STARTCHAR 02C9
ENCODING 713
SWIDTH 462 0
DWIDTH 9 0
BBX 7 1 1 11
BITMAP
FE
ENDCHAR
STARTCHAR 02CA
ENCODING 714
SWIDTH 257 0
DWIDTH 5 0
BBX 3 4 3 10
BITMAP
60
60
C0
80
ENDCHAR
STARTCHAR 02CB
ENCODING 715
SWIDTH 257 0
DWIDTH 5 0
BBX 4 4 3 10
BITMAP
E0
60
20
30
ENDCHAR
STARTCHAR 02CC
ENCODING 716
SWIDTH 205 0
DWIDTH 4 0
BBX 2 5 1 -3
BITMAP
C0
C0
C0
C0
C0
ENDCHAR
STARTCHAR 02D8
ENCODING 728
SWIDTH 257 0
DWIDTH 5 0
BBX 8 4 -1 10
BITMAP
C3
C2
7E
3C
ENDCHAR
STARTCHAR 02D9
ENCODING 729
SWIDTH 257 0
DWIDTH 5 0
BBX 4 3 1 10
BITMAP
60
F0
60
ENDCHAR
STARTCHAR 02DA
ENCODING 730
SWIDTH 257 0
DWIDTH 5 0
BBX 4 4 1 10
BITMAP
F0
90
90
E0
ENDCHAR
STARTCHAR 02DB
ENCODING 731
SWIDTH 257 0
DWIDTH 5 0
BBX 5 6 0 -5
BITMAP
10
60
60
E0
78
70
ENDCHAR
STARTCHAR 02DC
ENCODING 732
SWIDTH 257 0
DWIDTH 5 0
BBX 8 2 -1 11
BITMAP
7B
DE
ENDCHAR
STARTCHAR 02DD
ENCODING 733
SWIDTH 257 0
DWIDTH 5 0
BBX 7 4 -1 10
BITMAP
76
66
4C
C8
ENDCHAR
STARTCHAR 0300
ENCODING 768
SWIDTH 0 0
DWIDTH 0 0
BBX 4 4 1 10
BITMAP
E0
60
20
30
ENDCHAR
STARTCHAR 0301
ENCODING 769
SWIDTH 0 0
DWIDTH 0 0
BBX 4 4 1 10
BITMAP
70
60
C0
80
ENDCHAR
STARTCHAR 0302
ENCODING 770
SWIDTH 0 0
DWIDTH 0 0
BBX 7 4 1 10
BITMAP
18
3C
6E
82
ENDCHAR
STARTCHAR 0303
ENCODING 771
SWIDTH 0 0
DWIDTH 0 0
BBX 7 2 1 11
BITMAP
72
FE
ENDCHAR
STARTCHAR 0304
ENCODING 772
SWIDTH 0 0
DWIDTH 0 0
BBX 7 1 1 11
BITMAP
FE
ENDCHAR
STARTCHAR 0306
ENCODING 774
SWIDTH 0 0
DWIDTH 0 0
BBX 7 4 1 10
BITMAP
82
C6
FE
3C
ENDCHAR
STARTCHAR 0307
ENCODING 775
SWIDTH 0 0
DWIDTH 0 0
BBX 3 3 1 10
BITMAP
E0
E0
E0
ENDCHAR
STARTCHAR 0308
ENCODING 776
SWIDTH 0 0
DWIDTH 0 0
BBX 7 3 1 10
BITMAP
C6
EE
E6
ENDCHAR
STARTCHAR 0309
ENCODING 777
SWIDTH 0 0
DWIDTH 0 0
BBX 5 4 1 10
BITMAP
70
D8
30
20
ENDCHAR
STARTCHAR 030A
ENCODING 778
SWIDTH 0 0
DWIDTH 0 0
BBX 5 4 1 10
BITMAP
70
D8
D8
70
ENDCHAR
STARTCHAR 030B
ENCODING 779
SWIDTH 0 0
DWIDTH 0 0
BBX 7 4 1 10
BITMAP
76
6C
CC
88
ENDCHAR
STARTCHAR 030C
ENCODING 780
SWIDTH 0 0
DWIDTH 0 0
BBX 7 4 1 10
BITMAP
82
6C
38
30
ENDCHAR
STARTCHAR 030F
ENCODING 783
SWIDTH 0 0
DWIDTH 0 0
BBX 7 4 1 10
BITMAP
EC
66
26
32
ENDCHAR
STARTCHAR 0311
ENCODING 785
SWIDTH 0 0
DWIDTH 0 0
BBX 7 4 1 10
BITMAP
38
7E
C6
82
ENDCHAR
STARTCHAR 0312
ENCODING 786
SWIDTH 0 0
DWIDTH 0 0
BBX 3 4 1 10
BITMAP
60
C0
E0
E0
ENDCHAR
STARTCHAR 0313
ENCODING 787
SWIDTH 0 0
DWIDTH 0 0
BBX 3 4 1 10
BITMAP
E0
E0
60
40
ENDCHAR
STARTCHAR 031B
ENCODING 795
SWIDTH 0 0
DWIDTH 0 0
BBX 4 4 -2 7
BITMAP
30
30
70
80
ENDCHAR
STARTCHAR 0323
ENCODING 803
SWIDTH 0 0
DWIDTH 0 0
BBX 3 2 1 -4
BITMAP
E0
E0
ENDCHAR
STARTCHAR 0324
ENCODING 804
SWIDTH 0 0
DWIDTH 0 0
BBX 7 2 1 -4
BITMAP
EE
EE
ENDCHAR
STARTCHAR 0325
ENCODING 805
SWIDTH 0 0
DWIDTH 0 0
BBX 5 4 1 -5
BITMAP
70
D8
D0
70
ENDCHAR
STARTCHAR 0326
ENCODING 806
SWIDTH 0 0
DWIDTH 0 0
BBX 3 5 1 -6
BITMAP
E0
E0
60
40
80
ENDCHAR
STARTCHAR 0327
ENCODING 807
SWIDTH 0 0
DWIDTH 0 0
BBX 3 5 1 -5
BITMAP
40
E0
60
60
C0
ENDCHAR
STARTCHAR 0328
ENCODING 808
SWIDTH 0 0
DWIDTH 0 0
BBX 5 6 1 -5
BITMAP
30
60
C0
E0
F8
60
ENDCHAR
STARTCHAR 032E
ENCODING 814
SWIDTH 0 0
DWIDTH 0 0
BBX 6 3 1 -4
BITMAP
C4
FC
78
ENDCHAR
STARTCHAR 0331
ENCODING 817
SWIDTH 0 0
DWIDTH 0 0
BBX 7 1 1 -3
BITMAP
FE
ENDCHAR
STARTCHAR 0335
ENCODING 821
SWIDTH 0 0
DWIDTH 0 0
BBX 6 1 1 6
BITMAP
FC
ENDCHAR
STARTCHAR 0336
ENCODING 822
SWIDTH 0 0
DWIDTH 0 0
BBX 12 2 1 4
BITMAP
FFF0
FFF0
ENDCHAR
STARTCHAR 0337
ENCODING 823
SWIDTH 0 0
DWIDTH 0 0
BBX 9 5 1 4
BITMAP
0180
0700
1C00
7000
C000
ENDCHAR
STARTCHAR 0338
ENCODING 824
SWIDTH 0 0
DWIDTH 0 0
BBX 9 5 1 4
BITMAP
0180
0700
1C00
7000
C000
ENDCHAR
STARTCHAR 0374
ENCODING 884
SWIDTH 257 0
DWIDTH 5 0
BBX 4 5 1 9
BITMAP
30
60
60
40
C0
ENDCHAR
STARTCHAR 0375
ENCODING 885
SWIDTH 257 0
DWIDTH 5 0
BBX 3 5 1 -4
BITMAP
20
20
60
60
C0
ENDCHAR
STARTCHAR 037E
ENCODING 894
SWIDTH 257 0
DWIDTH 5 0
BBX 4 13 1 -4
BITMAP
60
F0
60
00
00
00
00
60
F0
20
60
40
40
ENDCHAR
STARTCHAR 0384
ENCODING 900
SWIDTH 257 0
DWIDTH 5 0
BBX 2 4 2 10
BITMAP
C0
C0
80
80
ENDCHAR
STARTCHAR 0385
ENCODING 901
SWIDTH 257 0
DWIDTH 5 0
BBX 8 4 -1 10
BITMAP
18
5A
FF
D2
ENDCHAR
STARTCHAR 0386
ENCODING 902
SWIDTH 668 0
DWIDTH 13 0
BBX 13 13 0 0
BITMAP
6300
6700
6700
4780
0B80
09C0
19C0
10E0
1FE0
20F0
2070
6078
F0F8
ENDCHAR
STARTCHAR 0387
ENCODING 903
SWIDTH 257 0
DWIDTH 5 0
BBX 3 3 1 6
BITMAP
60
E0
E0
ENDCHAR
STARTCHAR 0388
ENCODING 904
SWIDTH 617 0
DWIDTH 12 0
BBX 14 13 -3 0
BITMAP
6FFC
470C
C70C
C700
0710
0730
07F0
0730
0710
0704
0704
078C
0FFC
ENDCHAR
STARTCHAR 0389
ENCODING 905
SWIDTH 771 0
DWIDTH 15 0
BBX 17 13 -3 0
BITMAP
EFCF80
C70700
C70700
C70700
070700
070700
07FF00
070700
070700
070700
070700
070700
0FCF80
ENDCHAR
STARTCHAR 038A
ENCODING 906
SWIDTH 360 0
DWIDTH 7 0
BBX 10 13 -3 0
BITMAP
EFC0
C700
C700
C700
0700
0700
0700
0700
0700
0700
0700
0700
0FC0
ENDCHAR
STARTCHAR 038C
ENCODING 908
SWIDTH 720 0
DWIDTH 14 0
BBX 16 13 -2 0
BITMAP
E3F8
C61C
CC0E
DC0E
1C07
1C07
1C07
1C07
1C07
1C0E
0E0E
071C
03F0
ENDCHAR
STARTCHAR 038E
ENCODING 910
SWIDTH 617 0
DWIDTH 12 0
BBX 15 13 -3 0
BITMAP
DF9E
CF0C
C708
C388
0390
03D0
01E0
01E0
00E0
00E0
00E0
01E0
03F8
ENDCHAR
STARTCHAR 038F
ENCODING 911
SWIDTH 822 0
DWIDTH 16 0
BBX 16 13 -1 0
BITMAP
E3F8
CE1C
DC0E
DC0E
1C07
1C07
1C07
1C06
0C0E
060D
3213
3F3F
3F3F
ENDCHAR
STARTCHAR 0390
ENCODING 912
SWIDTH 308 0
DWIDTH 6 0
BBX 8 14 0 0
BITMAP
18
DA
D7
D6
00
38
78
38
38
38
38
38
38
1E
ENDCHAR
STARTCHAR 0391
ENCODING 913
SWIDTH 668 0
DWIDTH 13 0
BBX 13 13 0 0
BITMAP
0300
0700
0700
0780
0B80
09C0
19C0
10E0
1FE0
20F0
2070
6078
F0F8
ENDCHAR
STARTCHAR 0392
ENCODING 914
SWIDTH 668 0
DWIDTH 13 0
BBX 11 13 1 0
BITMAP
FF80
71C0
71C0
71C0
71C0
7380
7FC0
71E0
70E0
70E0
70E0
79C0
FF80
ENDCHAR
STARTCHAR 0393
ENCODING 915
SWIDTH 565 0
DWIDTH 11 0
BBX 10 13 1 0
BITMAP
FF80
71C0
70C0
7000
7000
7000
7000
7000
7000
7000
7000
7800
FC00
ENDCHAR
STARTCHAR 0394
ENCODING 916
SWIDTH 617 0
DWIDTH 12 0
BBX 12 13 0 0
BITMAP
0200
0700
0700
0B80
0B80
1BC0
11C0
31E0
20E0
60F0
4070
4070
FFF0
ENDCHAR
STARTCHAR 0395
ENCODING 917
SWIDTH 617 0
DWIDTH 12 0
BBX 10 13 1 0
BITMAP
FFC0
70C0
70C0
7000
7100
7300
7F00
7300
7100
7040
7040
78C0
FFC0
ENDCHAR
STARTCHAR 0396
ENCODING 918
SWIDTH 565 0
DWIDTH 11 0
BBX 10 13 1 0
BITMAP
7FC0
6380
C780
C700
0F00
0E00
1E00
1C00
3800
7880
70C0
F1C0
FF80
ENDCHAR
STARTCHAR 0397
ENCODING 919
SWIDTH 771 0
DWIDTH 15 0
BBX 13 13 1 0
BITMAP
FCF8
7070
7070
7070
7070
7070
7FF0
7070
7070
7070
7070
7070
FCF8
ENDCHAR
STARTCHAR 0398
ENCODING 920
SWIDTH 720 0
DWIDTH 14 0
BBX 13 13 1 0
BITMAP
1FC0
30E0
6070
E070
E038
E038
FFB8
E038
E038
E070
7070
38E0
1F80
ENDCHAR
STARTCHAR 0399
ENCODING 921
SWIDTH 360 0
DWIDTH 7 0
BBX 6 13 1 0
BITMAP
FC
70
70
70
70
70
70
70
70
70
70
70
FC
ENDCHAR
STARTCHAR 039A
ENCODING 922
SWIDTH 720 0
DWIDTH 14 0
BBX 13 13 1 0
BITMAP
FDF0
70C0
7180
7100
7200
7600
7F00
7700
7380
73C0
71C0
70F0
FCF8
ENDCHAR
STARTCHAR 039B
ENCODING 923
SWIDTH 668 0
DWIDTH 13 0
BBX 13 13 0 0
BITMAP
0200
0700
0700
0B80
0B80
0B80
11C0
11C0
31E0
20E0
20E0
60F0
F1F8
ENDCHAR
STARTCHAR 039C
ENCODING 924
SWIDTH 925 0
DWIDTH 18 0
BBX 18 13 0 0
BITMAP
7C07C0
1C0700
1E0F00
1E0F00
1F0F00
371700
371300
33B380
23A380
21E380
21C380
70C380
F8C7C0
ENDCHAR
STARTCHAR 039D
ENCODING 925
SWIDTH 720 0
DWIDTH 14 0
BBX 12 13 1 0
BITMAP
F0F0
7820
7820
7C20
7E20
6F20
6720
63A0
63E0
61E0
60E0
6060
F060
ENDCHAR
STARTCHAR 039E
ENCODING 926
SWIDTH 565 0
DWIDTH 11 0
BBX 10 13 1 0
BITMAP
FFC0
FFC0
C0C0
0000
2100
3F00
3F00
2100
2100
8040
C0C0
FFC0
FFC0
ENDCHAR
STARTCHAR 039F
ENCODING 927
SWIDTH 720 0
DWIDTH 14 0
BBX 13 13 1 0
BITMAP
1FC0
30E0
6070
E070
E038
E038
E038
E038
E038
E070
7070
38E0
1F80
ENDCHAR
STARTCHAR 03A0
ENCODING 928
SWIDTH 720 0
DWIDTH 14 0
BBX 13 13 1 0
BITMAP
FFF8
7070
7070
7070
7070
7070
7070
7070
7070
7070
7070
70F0
FDF8
ENDCHAR
STARTCHAR 03A1
ENCODING 929
SWIDTH 617 0
DWIDTH 12 0
BBX 11 13 1 0
BITMAP
FF80
71C0
71E0
70E0
70E0
70C0
71C0
7780
7000
7000
7000
7800
FC00
ENDCHAR
STARTCHAR 03A3
ENCODING 931
SWIDTH 565 0
DWIDTH 11 0
BBX 10 13 1 0
BITMAP
FF80
7180
78C0
38C0
1C00
1E00
0E00
1E00
3C00
3840
70C0
F0C0
FFC0
ENDCHAR
STARTCHAR 03A4
ENCODING 932
SWIDTH 617 0
DWIDTH 12 0
BBX 11 13 1 0
BITMAP
FFE0
CE60
8E20
0E00
0E00
0E00
0E00
0E00
0E00
0E00
0E00
0E00
3F80
ENDCHAR
STARTCHAR 03A5
ENCODING 933
SWIDTH 617 0
DWIDTH 12 0
BBX 12 13 0 0
BITMAP
FCF0
7860
3840
1C40
1C80
1E80
0F00
0F00
0700
0700
0700
0F00
1FC0
ENDCHAR
STARTCHAR 03A6
ENCODING 934
SWIDTH 720 0
DWIDTH 14 0
BBX 13 13 1 0
BITMAP
0F80
0700
1FC0
77F0
E738
E738
E738
E738
E738
7FF0
1FC0
0700
0F80
ENDCHAR
STARTCHAR 03A7
ENCODING 935
SWIDTH 668 0
DWIDTH 13 0
BBX 12 13 1 0
BITMAP
FCF0
78E0
38C0
3C80
1D00
0F00
0F00
0F00
1F80
33C0
21C0
61E0
F3F0
ENDCHAR
STARTCHAR 03A8
ENCODING 936
SWIDTH 771 0
DWIDTH 15 0
BBX 15 13 0 0
BITMAP
F7EE
73CE
71CE
71CC
31CC
31CC
39DC
1FF8
01C0
01C0
01C0
03C0
07E0
ENDCHAR
STARTCHAR 03A9
ENCODING 937
SWIDTH 822 0
DWIDTH 16 0
BBX 14 13 1 0
BITMAP
0FE0
3870
7038
7038
701C
701C
701C
7018
3038
1834
C84C
FCFC
FCFC
ENDCHAR
STARTCHAR 03AA
ENCODING 938
SWIDTH 360 0
DWIDTH 7 0
BBX 7 17 0 0
BITMAP
E6
EE
E6
00
7E
38
38
38
38
38
38
38
38
38
38
38
7E
ENDCHAR
STARTCHAR 03AB
ENCODING 939
SWIDTH 617 0
DWIDTH 12 0
BBX 12 17 0 0
BITMAP
0CC0
1CE0
0CC0
0000
FCF0
7860
3840
1C40
1C80
1E80
0F00
0F00
0700
0700
0700
0F00
1FC0
ENDCHAR
STARTCHAR 03AC
ENCODING 940
SWIDTH 617 0
DWIDTH 12 0
BBX 11 14 1 0
BITMAP
0C00
0C00
0800
0800
0000
3CE0
67C0
E380
E380
E380
E300
E380
E680
7CE0
ENDCHAR
STARTCHAR 03AD
ENCODING 941
SWIDTH 411 0
DWIDTH 8 0
BBX 7 14 1 0
BITMAP
18
18
18
10
00
7C
E6
E6
70
78
E0
C6
E6
7E
ENDCHAR
STARTCHAR 03AE
ENCODING 942
SWIDTH 617 0
DWIDTH 12 0
BBX 10 19 1 -5
BITMAP
0E00
0C00
0C00
0C00
0000
7780
FF80
71C0
71C0
71C0
71C0
71C0
71C0
71C0
01C0
01C0
01C0
01C0
0100
ENDCHAR
STARTCHAR 03AF
ENCODING 943
SWIDTH 308 0
DWIDTH 6 0
BBX 6 14 1 0
BITMAP
30
30
30
20
00
70
F0
70
70
70
70
70
70
3C
ENDCHAR
STARTCHAR 03B0
ENCODING 944
SWIDTH 514 0
DWIDTH 10 0
BBX 10 14 0 0
BITMAP
0E00
2D80
7D80
2D80
0000
7180
F380
70C0
70C0
70C0
7080
3080
3F00
1E00
ENDCHAR
STARTCHAR 03B1
ENCODING 945
SWIDTH 617 0
DWIDTH 12 0
BBX 11 9 1 0
BITMAP
3CE0
67C0
E380
E380
E380
E300
E380
E680
7CE0
ENDCHAR
STARTCHAR 03B2
ENCODING 946
SWIDTH 565 0
DWIDTH 11 0
BBX 10 19 1 -5
BITMAP
1E00
7700
6380
E380
E380
E300
EE00
E780
E380
E1C0
E1C0
E180
E380
FF00
E000
E000
E000
E000
8000
ENDCHAR
STARTCHAR 03B3
ENCODING 947
SWIDTH 514 0
DWIDTH 10 0
BBX 10 14 0 -5
BITMAP
F1C0
38C0
3880
1D00
1D00
0F00
0E00
0600
0E00
0E00
0B00
1300
1B00
0E00
ENDCHAR
STARTCHAR 03B4
ENCODING 948
SWIDTH 514 0
DWIDTH 10 0
BBX 9 14 1 0
BITMAP
1E00
3E00
6000
6000
7800
3C00
3F00
6F00
E780
E380
E380
E380
E700
7E00
ENDCHAR
STARTCHAR 03B5
ENCODING 949
SWIDTH 411 0
DWIDTH 8 0
BBX 7 9 1 0
BITMAP
7C
E6
E6
70
78
E0
C6
E6
7E
ENDCHAR
STARTCHAR 03B6
ENCODING 950
SWIDTH 411 0
DWIDTH 8 0
BBX 8 19 1 -5
BITMAP
FE
FF
FF
8C
18
30
70
E0
E0
E0
E0
F8
FE
3F
07
06
0E
1C
18
ENDCHAR
STARTCHAR 03B7
ENCODING 951
SWIDTH 617 0
DWIDTH 12 0
BBX 10 14 1 -5
BITMAP
7780
FF80
71C0
71C0
71C0
71C0
71C0
71C0
71C0
01C0
01C0
01C0
01C0
0100
ENDCHAR
STARTCHAR 03B8
ENCODING 952
SWIDTH 565 0
DWIDTH 11 0
BBX 9 14 1 0
BITMAP
1E00
7700
6380
E380
E380
E380
FF80
FF80
E380
E380
E380
E380
7300
3E00
ENDCHAR
STARTCHAR 03B9
ENCODING 953
SWIDTH 308 0
DWIDTH 6 0
BBX 6 9 1 0
BITMAP
70
F0
70
70
70
70
70
70
3C
ENDCHAR
STARTCHAR 03BA
ENCODING 954
SWIDTH 565 0
DWIDTH 11 0
BBX 11 9 1 0
BITMAP
77C0
F380
7600
7C00
7E00
7F00
7780
73C0
71E0
ENDCHAR
STARTCHAR 03BB
ENCODING 955
SWIDTH 565 0
DWIDTH 11 0
BBX 11 14 0 0
BITMAP
7800
5C00
1C00
0C00
0E00
0E00
1E00
1F00
1700
3700
3380
7380
7380
E1E0
ENDCHAR
STARTCHAR 03BC
ENCODING 956
SWIDTH 617 0
DWIDTH 12 0
BBX 11 14 1 -5
BITMAP
7380
F7C0
71C0
71C0
71C0
71C0
73C0
77E0
7DE0
6000
6000
6000
7000
4000
ENDCHAR
STARTCHAR 03BD
ENCODING 957
SWIDTH 462 0
DWIDTH 9 0
BBX 10 9 0 0
BITMAP
71C0
F3C0
3880
3880
1980
1D00
1E00
0E00
0C00
ENDCHAR
STARTCHAR 03BE
ENCODING 958
SWIDTH 411 0
DWIDTH 8 0
BBX 8 19 1 -5
BITMAP
FE
FF
C6
38
70
E0
E0
78
1C
E0
E0
E0
FC
7E
0F
07
06
0C
18
ENDCHAR
STARTCHAR 03BF
ENCODING 959
SWIDTH 565 0
DWIDTH 11 0
BBX 9 9 1 0
BITMAP
3E00
6700
E380
E380
E180
E180
E380
7300
3E00
ENDCHAR
STARTCHAR 03C0
ENCODING 960
SWIDTH 565 0
DWIDTH 11 0
BBX 10 10 1 0
BITMAP
00C0
7FC0
FFC0
FF80
3700
3700
2700
6700
6700
E3C0
ENDCHAR
STARTCHAR 03C1
ENCODING 961
SWIDTH 514 0
DWIDTH 10 0
BBX 9 14 1 -5
BITMAP
3F00
7380
E380
E380
E380
E380
E380
E700
FE00
E000
E000
E000
E000
8000
ENDCHAR
STARTCHAR 03C2
ENCODING 962
SWIDTH 462 0
DWIDTH 9 0
BBX 8 14 1 -5
BITMAP
3E
66
E6
C0
E0
E0
F8
7C
1E
0F
06
0E
1C
10
ENDCHAR
STARTCHAR 03C3
ENCODING 963
SWIDTH 617 0
DWIDTH 12 0
BBX 11 10 1 0
BITMAP
0020
3FE0
7FE0
E300
E380
E180
E180
E380
7380
3E00
ENDCHAR
STARTCHAR 03C4
ENCODING 964
SWIDTH 360 0
DWIDTH 7 0
BBX 7 10 0 0
BITMAP
02
7E
7E
F8
38
38
38
38
1A
1E
ENDCHAR
STARTCHAR 03C5
ENCODING 965
SWIDTH 514 0
DWIDTH 10 0
BBX 10 9 0 0
BITMAP
7180
F380
70C0
70C0
70C0
7080
3080
3F00
1E00
ENDCHAR
STARTCHAR 03C6
ENCODING 966
SWIDTH 771 0
DWIDTH 15 0
BBX 14 14 1 -5
BITMAP
31F0
73B8
E718
E71C
E71C
E71C
E738
7738
3FE0
0700
0700
0700
0700
0400
ENDCHAR
STARTCHAR 03C7
ENCODING 967
SWIDTH 514 0
DWIDTH 10 0
BBX 10 14 0 -5
BITMAP
33C0
F980
3980
1D00
1F00
0E00
0E00
0E00
1600
1700
3700
2380
73C0
F100
ENDCHAR
STARTCHAR 03C8
ENCODING 968
SWIDTH 720 0
DWIDTH 14 0
BBX 14 19 0 -5
BITMAP
0180
0780
0380
0380
0380
739C
F3BC
738C
738C
738C
338C
3B98
3FB8
0FE0
0380
0380
0380
0380
0200
ENDCHAR
STARTCHAR 03C9
ENCODING 969
SWIDTH 720 0
DWIDTH 14 0
BBX 13 9 1 0
BITMAP
3060
6030
E238
E738
E738
E238
E238
F578
7DF0
ENDCHAR
STARTCHAR 03CA
ENCODING 970
SWIDTH 308 0
DWIDTH 6 0
BBX 7 13 0 0
BITMAP
C6
EE
E6
00
38
78
38
38
38
38
38
38
1E
ENDCHAR
STARTCHAR 03CB
ENCODING 971
SWIDTH 514 0
DWIDTH 10 0
BBX 10 13 0 0
BITMAP
3300
7380
3300
0000
7180
F380
70C0
70C0
70C0
7080
3080
3F00
1E00
ENDCHAR
STARTCHAR 03CC
ENCODING 972
SWIDTH 565 0
DWIDTH 11 0
BBX 9 14 1 0
BITMAP
0C00
0C00
0800
0800
0000
3E00
6700
E380
E380
E180
E180
E380
7300
3E00
ENDCHAR
STARTCHAR 03CD
ENCODING 973
SWIDTH 514 0
DWIDTH 10 0
BBX 10 14 0 0
BITMAP
0E00
0C00
0C00
0C00
0000
7180
F380
70C0
70C0
70C0
7080
3080
3F00
1E00
ENDCHAR
STARTCHAR 03CE
ENCODING 974
SWIDTH 720 0
DWIDTH 14 0
BBX 13 14 1 0
BITMAP
0300
0300
0200
0200
0000
3060
6030
E238
E738
E738
E238
E238
F578
7DF0
ENDCHAR
STARTCHAR 03CF
ENCODING 975
SWIDTH 720 0
DWIDTH 14 0
BBX 13 18 1 -5
BITMAP
FDF0
70C0
7180
7100
7200
7600
7F00
7700
7380
73C0
71C0
70F0
FCF8
00E0
0180
0380
03C0
03C0
ENDCHAR
STARTCHAR 03D1
ENCODING 977
SWIDTH 565 0
DWIDTH 11 0
BBX 12 14 0 0
BITMAP
0F00
3B80
31C0
71C0
31C0
38C0
1FF0
01F0
70C0
F1C0
31C0
31C0
3980
1F00
ENDCHAR
STARTCHAR 03D2
ENCODING 978
SWIDTH 668 0
DWIDTH 13 0
BBX 12 13 1 0
BITMAP
F0F0
F8F0
3930
1D00
1E00
0E00
0E00
0E00
0E00
0E00
0E00
0E00
3F80
ENDCHAR
STARTCHAR 03D5
ENCODING 981
SWIDTH 771 0
DWIDTH 15 0
BBX 13 19 1 -5
BITMAP
0300
0F00
0700
0700
0700
3FE0
7770
E738
E718
E718
E718
E738
7730
3FE0
0700
0700
0700
0700
0400
ENDCHAR
STARTCHAR 03D6
ENCODING 982
SWIDTH 822 0
DWIDTH 16 0
BBX 15 10 1 0
BITMAP
0006
3FFE
FFFC
D838
3818
399C
399C
399C
3BB8
1EF8
ENDCHAR
STARTCHAR 03D7
ENCODING 983
SWIDTH 565 0
DWIDTH 11 0
BBX 11 14 1 -5
BITMAP
77C0
F380
7600
7C00
7E00
7F00
7780
73C0
71E0
00E0
00E0
00C0
3F80
0F00
ENDCHAR
STARTCHAR 03F0
ENCODING 1008
SWIDTH 617 0
DWIDTH 12 0
BBX 10 9 1 0
BITMAP
E1C0
F3C0
3780
3F00
3F00
3F00
7B00
F3C0
E3C0
ENDCHAR
STARTCHAR 03F1
ENCODING 1009
SWIDTH 565 0
DWIDTH 11 0
BBX 9 14 1 -5
BITMAP
3E00
6780
E380
E380
E180
E180
E380
F700
9C00
C000
FE00
7F00
3F80
0180
ENDCHAR
STARTCHAR 03F2
ENCODING 1010
SWIDTH 462 0
DWIDTH 9 0
BBX 7 9 1 0
BITMAP
3E
66
E2
C0
C0
E0
E0
72
3E
ENDCHAR
STARTCHAR 03F4
ENCODING 1012
SWIDTH 720 0
DWIDTH 14 0
BBX 13 13 1 0
BITMAP
1FC0
30E0
6070
E070
E038
E038
FFF8
E038
E038
E070
7070
38E0
1F80
ENDCHAR
STARTCHAR 03F6
ENCODING 1014
SWIDTH 462 0
DWIDTH 9 0
BBX 8 9 0 0
BITMAP
7C
67
47
03
3F
03
C7
47
7C
ENDCHAR
STARTCHAR 03F7
ENCODING 1015
SWIDTH 617 0
DWIDTH 12 0
BBX 11 13 1 0
BITMAP
FC00
7000
7E00
7FC0
71C0
70E0
70E0
70C0
71C0
7780
7000
7800
FC00
ENDCHAR
STARTCHAR 03F8
ENCODING 1016
SWIDTH 617 0
DWIDTH 12 0
BBX 10 19 1 -5
BITMAP
3000
F000
7000
7000
7000
7780
7FC0
71C0
70C0
70C0
70C0
71C0
7180
7F00
7000
7000
7000
7000
4000
ENDCHAR
STARTCHAR 03F9
ENCODING 1017
SWIDTH 617 0
DWIDTH 12 0
BBX 11 13 1 0
BITMAP
1FC0
30C0
6040
E040
E000
E000
E000
E000
E000
F000
7000
3CE0
1F80
ENDCHAR
STARTCHAR 0400
ENCODING 1024
SWIDTH 617 0
DWIDTH 12 0
BBX 10 17 1 0
BITMAP
1800
0C00
0C00
0000
FFC0
70C0
70C0
7000
7100
7300
7F00
7300
7100
7040
7040
78C0
FFC0
ENDCHAR
STARTCHAR 0401
ENCODING 1025
SWIDTH 617 0
DWIDTH 12 0
BBX 10 17 1 0
BITMAP
7300
7380
2300
0000
FFC0
70C0
70C0
7000
7100
7300
7F00
7300
7100
7040
7040
78C0
FFC0
ENDCHAR
STARTCHAR 0402
ENCODING 1026
SWIDTH 771 0
DWIDTH 15 0
BBX 14 13 1 0
BITMAP
FFE0
CE60
8E20
0E00
0E00
0EE0
0FF8
0E3C
0E1C
0E1C
0E1C
0E18
3F78
ENDCHAR
STARTCHAR 0403
ENCODING 1027
SWIDTH 565 0
DWIDTH 11 0
BBX 10 18 1 0
BITMAP
0600
0C00
0C00
0000
0000
FF80
71C0
70C0
7000
7000
7000
7000
7000
7000
7000
7000
7800
FC00
ENDCHAR
STARTCHAR 0404
ENCODING 1028
SWIDTH 617 0
DWIDTH 12 0
BBX 10 13 1 0
BITMAP
1FC0
70C0
6040
E040
E000
E000
FF00
E000
E000
E040
7040
78C0
1FC0
ENDCHAR
STARTCHAR 0405
ENCODING 1029
SWIDTH 514 0
DWIDTH 10 0
BBX 9 13 1 0
BITMAP
3F00
6300
E300
E100
F000
7C00
3F00
1F80
0780
C380
C180
E300
7E00
ENDCHAR
STARTCHAR 0406
ENCODING 1030
SWIDTH 360 0
DWIDTH 7 0
BBX 6 13 1 0
BITMAP
FC
70
70
70
70
70
70
70
70
70
70
70
FC
ENDCHAR
STARTCHAR 0407
ENCODING 1031
SWIDTH 360 0
DWIDTH 7 0
BBX 7 17 0 0
BITMAP
64
EE
6E
00
7E
38
38
38
38
38
38
38
38
38
38
38
7E
ENDCHAR
STARTCHAR 0408
ENCODING 1032
SWIDTH 360 0
DWIDTH 7 0
BBX 6 18 0 -5
BITMAP
7C
38
38
38
38
38
38
38
38
38
38
38
38
38
30
70
E0
80
ENDCHAR
STARTCHAR 0409
ENCODING 1033
SWIDTH 925 0
DWIDTH 18 0
BBX 18 13 0 0
BITMAP
1FF800
0CE000
0CE000
08E000
08E000
08FC00
08FF00
08E380
08E3C0
18E3C0
F8E380
F0E780
F1FE00
ENDCHAR
STARTCHAR 040A
ENCODING 1034
SWIDTH 977 0
DWIDTH 19 0
BBX 18 13 1 0
BITMAP
FDF800
70F000
706000
706000
706000
706000
7FFF80
7063C0
7061C0
7061C0
7061C0
70F380
FDFF00
ENDCHAR
STARTCHAR 040B
ENCODING 1035
SWIDTH 822 0
DWIDTH 16 0
BBX 15 13 1 0
BITMAP
FFE0
CE60
8E20
0E00
0E00
0EE0
0FF8
0E38
0E1C
0E1C
0E1C
0E1C
3F3E
ENDCHAR
STARTCHAR 040C
ENCODING 1036
SWIDTH 720 0
DWIDTH 14 0
BBX 13 18 1 0
BITMAP
0380
0300
0200
0000
0000
FCF0
7060
70C0
7180
7300
7200
7700
7780
73C0
71C0
71E0
70F0
FC78
ENDCHAR
STARTCHAR 040D
ENCODING 1037
SWIDTH 771 0
DWIDTH 15 0
BBX 13 17 1 0
BITMAP
0E00
0600
0300
0000
FC78
70F0
70F0
71F0
7170
7370
7270
7670
7470
7C70
7870
7870
F0F8
ENDCHAR
STARTCHAR 040E
ENCODING 1038
SWIDTH 668 0
DWIDTH 13 0
BBX 13 17 0 0
BITMAP
1C60
0C60
07C0
0000
FC78
7830
3820
1C20
1C40
0E40
0780
0780
0300
0300
0600
3E00
3C00
ENDCHAR
STARTCHAR 040F
ENCODING 1039
SWIDTH 720 0
DWIDTH 14 0
BBX 13 16 1 -3
BITMAP
FDF8
7070
7070
7070
7070
7070
7070
7070
7070
7070
7070
70F0
FFF8
0700
0600
0200
ENDCHAR
STARTCHAR 0410
ENCODING 1040
SWIDTH 668 0
DWIDTH 13 0
BBX 13 13 0 0
BITMAP
0300
0700
0700
0780
0B80
09C0
19C0
10E0
1FE0
20F0
2070
6078
F0F8
ENDCHAR
STARTCHAR 0411
ENCODING 1041
SWIDTH 617 0
DWIDTH 12 0
BBX 11 13 1 0
BITMAP
FFC0
70C0
70C0
7000
7000
7600
7FC0
71E0
70E0
70E0
70E0
79C0
FF80
ENDCHAR
STARTCHAR 0412
ENCODING 1042
SWIDTH 668 0
DWIDTH 13 0
BBX 11 13 1 0
BITMAP
FF80
71C0
71C0
71C0
71C0
7380
7FC0
71E0
70E0
70E0
70E0
79C0
FF80
ENDCHAR
STARTCHAR 0413
ENCODING 1043
SWIDTH 565 0
DWIDTH 11 0
BBX 10 13 1 0
BITMAP
FF80
71C0
70C0
7000
7000
7000
7000
7000
7000
7000
7000
7800
FC00
ENDCHAR
STARTCHAR 0414
ENCODING 1044
SWIDTH 720 0
DWIDTH 14 0
BBX 14 16 0 -3
BITMAP
1FF8
0CF0
0CE0
0CE0
0CE0
08E0
08E0
08E0
08E0
18E0
10E0
30F0
FFFC
E01C
600C
600C
ENDCHAR
STARTCHAR 0415
ENCODING 1045
SWIDTH 617 0
DWIDTH 12 0
BBX 10 13 1 0
BITMAP
FFC0
70C0
70C0
7000
7100
7300
7F00
7300
7100
7040
7040
78C0
FFC0
ENDCHAR
STARTCHAR 0416
ENCODING 1046
SWIDTH 1028 0
DWIDTH 20 0
BBX 20 13 0 0
BITMAP
7CF9F0
1870C0
0C7180
047300
027600
037600
077F00
0F7700
0E7380
1E7380
1C71C0
3871E0
F8F8F0
ENDCHAR
STARTCHAR 0417
ENCODING 1047
SWIDTH 565 0
DWIDTH 11 0
BBX 10 13 1 0
BITMAP
FF00
E380
C380
4380
0300
1E00
1F00
0380
03C0
C1C0
C380
E380
7F00
ENDCHAR
STARTCHAR 0418
ENCODING 1048
SWIDTH 771 0
DWIDTH 15 0
BBX 13 13 1 0
BITMAP
FC78
70F0
70F0
71F0
7170
7370
7270
7670
7470
7C70
7870
7870
F0F8
ENDCHAR
STARTCHAR 0419
ENCODING 1049
SWIDTH 771 0
DWIDTH 15 0
BBX 13 17 1 0
BITMAP
18E0
18C0
0F80
0000
FC78
70F0
70F0
71F0
7170
7370
7270
7670
7470
7C70
7870
7870
F0F8
ENDCHAR
STARTCHAR 041A
ENCODING 1050
SWIDTH 720 0
DWIDTH 14 0
BBX 13 13 1 0
BITMAP
FCF0
7060
70C0
7180
7300
7200
7700
7780
73C0
71C0
71E0
70F0
FC78
ENDCHAR
STARTCHAR 041B
ENCODING 1051
SWIDTH 668 0
DWIDTH 13 0
BBX 13 13 0 0
BITMAP
1FF8
0C70
0C60
0860
0860
0860
0860
0860
0860
1860
F860
F0F0
F1F8
ENDCHAR
STARTCHAR 041C
ENCODING 1052
SWIDTH 925 0
DWIDTH 18 0
BBX 18 13 0 0
BITMAP
7C07C0
1C0700
1E0F00
1E0F00
1F0F00
371700
371300
33B380
23A380
21E380
21C380
70C380
F8C7C0
ENDCHAR
STARTCHAR 041D
ENCODING 1053
SWIDTH 771 0
DWIDTH 15 0
BBX 13 13 1 0
BITMAP
FCF8
7070
7070
7070
7070
7070
7FF0
7070
7070
7070
7070
7070
FCF8
ENDCHAR
STARTCHAR 041E
ENCODING 1054
SWIDTH 720 0
DWIDTH 14 0
BBX 13 13 1 0
BITMAP
1FC0
30E0
6070
E070
E038
E038
E038
E038
E038
E070
7070
38E0
1F80
ENDCHAR
STARTCHAR 041F
ENCODING 1055
SWIDTH 720 0
DWIDTH 14 0
BBX 13 13 1 0
BITMAP
FFF8
7070
7070
7070
7070
7070
7070
7070
7070
7070
7070
70F0
FDF8
ENDCHAR
STARTCHAR 0420
ENCODING 1056
SWIDTH 617 0
DWIDTH 12 0
BBX 11 13 1 0
BITMAP
FF80
71C0
71E0
70E0
70E0
70C0
71C0
7780
7000
7000
7000
7800
FC00
ENDCHAR
STARTCHAR 0421
ENCODING 1057
SWIDTH 617 0
DWIDTH 12 0
BBX 11 13 1 0
BITMAP
1FC0
30C0
6040
E040
E000
E000
E000
E000
E000
F000
7000
3CE0
1F80
ENDCHAR
STARTCHAR 0422
ENCODING 1058
SWIDTH 617 0
DWIDTH 12 0
BBX 11 13 1 0
BITMAP
FFE0
CE60
8E20
0E00
0E00
0E00
0E00
0E00
0E00
0E00
0E00
0E00
3F80
ENDCHAR
STARTCHAR 0423
ENCODING 1059
SWIDTH 668 0
DWIDTH 13 0
BBX 13 13 0 0
BITMAP
FC78
7830
3820
1C20
1C40
0E40
0780
0780
0300
0300
0600
3E00
3C00
ENDCHAR
STARTCHAR 0424
ENCODING 1060
SWIDTH 822 0
DWIDTH 16 0
BBX 15 14 1 0
BITMAP
0FE0
0380
0380
3FF8
739C
E38E
E38E
E38E
E38E
739C
3FF8
0380
0380
0FE0
ENDCHAR
STARTCHAR 0425
ENCODING 1061
SWIDTH 668 0
DWIDTH 13 0
BBX 12 13 1 0
BITMAP
FCF0
78E0
38C0
3C80
1D00
0F00
0F00
0F00
1F80
33C0
21C0
61E0
F3F0
ENDCHAR
STARTCHAR 0426
ENCODING 1062
SWIDTH 822 0
DWIDTH 16 0
BBX 14 16 1 -3
BITMAP
FDF8
7070
7070
7070
7070
7070
7070
7070
7070
7070
7070
7070
FFFC
000C
000C
000C
ENDCHAR
STARTCHAR 0427
ENCODING 1063
SWIDTH 720 0
DWIDTH 14 0
BBX 12 13 1 0
BITMAP
F9F0
70E0
70E0
70E0
70E0
70E0
3DE0
1FE0
00E0
00E0
00E0
00E0
03F0
ENDCHAR
STARTCHAR 0428
ENCODING 1064
SWIDTH 1028 0
DWIDTH 20 0
BBX 19 13 1 0
BITMAP
F9F7E0
70E380
70E380
70E380
70E380
70E380
70E380
70E380
70E380
70E380
70E380
70E3C0
FFFFE0
ENDCHAR
STARTCHAR 0429
ENCODING 1065
SWIDTH 1080 0
DWIDTH 21 0
BBX 20 16 1 -3
BITMAP
F9F7E0
70E380
70E380
70E380
70E380
70E380
70E380
70E380
70E380
70E380
70E380
70E3C0
FFFFF0
000030
000030
000030
ENDCHAR
STARTCHAR 042A
ENCODING 1066
SWIDTH 771 0
DWIDTH 15 0
BBX 13 13 1 0
BITMAP
FF80
CE00
8E00
0E00
0E00
0F80
0FF0
0E78
0E38
0E38
0E38
1E78
3FE0
ENDCHAR
STARTCHAR 042B
ENCODING 1067
SWIDTH 925 0
DWIDTH 18 0
BBX 17 13 1 0
BITMAP
FC1F00
780E00
700E00
700E00
700E00
760E00
7F8E00
71CE00
71CE00
71CE00
71CE00
79CE00
FF1F80
ENDCHAR
STARTCHAR 042C
ENCODING 1068
SWIDTH 668 0
DWIDTH 13 0
BBX 11 13 1 0
BITMAP
FC00
7800
7000
7000
7000
7600
7FC0
71E0
70E0
70E0
70E0
79C0
FF80
ENDCHAR
STARTCHAR 042D
ENCODING 1069
SWIDTH 617 0
DWIDTH 12 0
BBX 11 13 1 0
BITMAP
FF00
C380
C1C0
C1C0
00E0
00E0
3FE0
00E0
00C0
C1C0
C1C0
C380
7F00
ENDCHAR
STARTCHAR 042E
ENCODING 1070
SWIDTH 1028 0
DWIDTH 20 0
BBX 19 13 1 0
BITMAP
FC7F00
70C380
71C1C0
7381C0
7380E0
7380E0
7F80E0
7380E0
7380E0
73C1C0
71C1C0
70E380
FC7E00
ENDCHAR
STARTCHAR 042F
ENCODING 1071
SWIDTH 668 0
DWIDTH 13 0
BBX 13 13 0 0
BITMAP
0FF8
3CF0
38E0
38E0
38E0
1CE0
0FE0
0EE0
0EE0
1CE0
3CE0
78F0
F9F8
ENDCHAR
STARTCHAR 0430
ENCODING 1072
SWIDTH 462 0
DWIDTH 9 0
BBX 9 9 1 0
BITMAP
3C00
4E00
CE00
CE00
3E00
EE00
CE00
EF80
F700
ENDCHAR
STARTCHAR 0431
ENCODING 1073
SWIDTH 565 0
DWIDTH 11 0
BBX 9 14 1 0
BITMAP
0180
0780
1F80
6E00
6000
C400
DF00
C380
C380
C380
C380
E380
E300
7E00
ENDCHAR
STARTCHAR 0432
ENCODING 1074
SWIDTH 565 0
DWIDTH 11 0
BBX 9 9 1 0
BITMAP
FF00
7380
7380
7300
7F00
7380
7380
7380
FF00
ENDCHAR
STARTCHAR 0433
ENCODING 1075
SWIDTH 462 0
DWIDTH 9 0
BBX 8 9 1 0
BITMAP
FF
73
73
70
70
70
70
70
F8
ENDCHAR
STARTCHAR 0434
ENCODING 1076
SWIDTH 565 0
DWIDTH 11 0
BBX 12 12 0 -3
BITMAP
3FE0
19C0
11C0
11C0
11C0
11C0
31C0
31C0
FFF0
C060
C060
C020
ENDCHAR
STARTCHAR 0435
ENCODING 1077
SWIDTH 462 0
DWIDTH 9 0
BBX 8 9 1 0
BITMAP
3E
67
E7
E3
FF
E0
E0
73
3E
ENDCHAR
STARTCHAR 0436
ENCODING 1078
SWIDTH 874 0
DWIDTH 17 0
BBX 16 9 1 0
BITMAP
F7DE
638C
1398
1B90
1FB0
1FB8
3B9C
739E
E7CF
ENDCHAR
STARTCHAR 0437
ENCODING 1079
SWIDTH 462 0
DWIDTH 9 0
BBX 8 9 1 0
BITMAP
FC
CE
C7
0E
3E
0F
87
C7
FE
ENDCHAR
STARTCHAR 0438
ENCODING 1080
SWIDTH 617 0
DWIDTH 12 0
BBX 11 9 1 0
BITMAP
F9E0
71C0
63C0
67C0
65C0
69C0
79C0
71C0
E3E0
ENDCHAR
STARTCHAR 0439
ENCODING 1081
SWIDTH 617 0
DWIDTH 12 0
BBX 11 14 1 0
BITMAP
2180
7180
3380
1E00
0000
F9E0
71C0
63C0
67C0
65C0
69C0
79C0
71C0
E3E0
ENDCHAR
STARTCHAR 043A
ENCODING 1082
SWIDTH 565 0
DWIDTH 11 0
BBX 10 9 1 0
BITMAP
FBC0
7180
7300
7600
7E00
7E00
7700
7380
F9C0
ENDCHAR
STARTCHAR 043B
ENCODING 1083
SWIDTH 565 0
DWIDTH 11 0
BBX 11 9 0 0
BITMAP
3FE0
19C0
19C0
11C0
11C0
11C0
31C0
F1C0
E3E0
ENDCHAR
STARTCHAR 043C
ENCODING 1084
SWIDTH 720 0
DWIDTH 14 0
BBX 14 9 0 0
BITMAP
787C
3C78
3C70
2EB8
2EB8
2F38
2738
6738
F27C
ENDCHAR
STARTCHAR 043D
ENCODING 1085
SWIDTH 617 0
DWIDTH 12 0
BBX 11 9 1 0
BITMAP
FBE0
71C0
71C0
71C0
7FC0
71C0
71C0
71C0
FBE0
ENDCHAR
STARTCHAR 043E
ENCODING 1086
SWIDTH 565 0
DWIDTH 11 0
BBX 9 9 1 0
BITMAP
3E00
6700
E380
E380
E180
E180
E380
7300
3E00
ENDCHAR
STARTCHAR 043F
ENCODING 1087
SWIDTH 617 0
DWIDTH 12 0
BBX 11 9 1 0
BITMAP
FFE0
71C0
71C0
71C0
71C0
71C0
71C0
71C0
FBE0
ENDCHAR
STARTCHAR 0440
ENCODING 1088
SWIDTH 617 0
DWIDTH 12 0
BBX 11 14 1 -5
BITMAP
7780
FFC0
71C0
70E0
70E0
70C0
71C0
7180
7F00
7000
7000
7000
F800
FC00
ENDCHAR
STARTCHAR 0441
ENCODING 1089
SWIDTH 462 0
DWIDTH 9 0
BBX 7 9 1 0
BITMAP
3E
66
E2
C0
C0
E0
E0
72
3E
ENDCHAR
STARTCHAR 0442
ENCODING 1090
SWIDTH 514 0
DWIDTH 10 0
BBX 10 9 0 0
BITMAP
7FC0
EEC0
CE40
0E00
0E00
0E00
0E00
0E00
3F00
ENDCHAR
STARTCHAR 0443
ENCODING 1091
SWIDTH 514 0
DWIDTH 10 0
BBX 11 14 0 -5
BITMAP
FDE0
78C0
3880
3880
1D00
1D00
0F00
0E00
0E00
0400
0400
5800
7800
7000
ENDCHAR
STARTCHAR 0444
ENCODING 1092
SWIDTH 771 0
DWIDTH 15 0
BBX 14 19 1 -5
BITMAP
0300
0F00
0700
0700
0700
1FE0
7778
E738
E71C
E71C
E71C
E718
7778
3FE0
0700
0700
0700
0F80
0FC0
ENDCHAR
STARTCHAR 0445
ENCODING 1093
SWIDTH 565 0
DWIDTH 11 0
BBX 9 9 1 0
BITMAP
FB80
7300
7B00
3E00
1C00
3E00
6F00
6780
EF80
ENDCHAR
STARTCHAR 0446
ENCODING 1094
SWIDTH 668 0
DWIDTH 13 0
BBX 12 12 1 -3
BITMAP
FBE0
F1C0
71C0
71C0
71C0
71C0
71C0
71C0
FFF0
0030
0030
0030
ENDCHAR
STARTCHAR 0447
ENCODING 1095
SWIDTH 565 0
DWIDTH 11 0
BBX 11 9 0 0
BITMAP
FBE0
71C0
71C0
71C0
39C0
1FC0
01C0
01C0
07E0
ENDCHAR
STARTCHAR 0448
ENCODING 1096
SWIDTH 874 0
DWIDTH 17 0
BBX 16 9 1 0
BITMAP
FFDF
738E
738C
738C
738C
738C
738C
738E
FFFF
ENDCHAR
STARTCHAR 0449
ENCODING 1097
SWIDTH 925 0
DWIDTH 18 0
BBX 17 12 1 -3
BITMAP
FFDF00
738E00
738C00
738C00
738C00
738C00
738C00
738E00
FFFF80
000180
000180
000180
ENDCHAR
STARTCHAR 044A
ENCODING 1098
SWIDTH 565 0
DWIDTH 11 0
BBX 11 9 0 0
BITMAP
7F00
EE00
CC00
0D00
0FE0
0CE0
0CE0
1CE0
1FC0
ENDCHAR
STARTCHAR 044B
ENCODING 1099
SWIDTH 822 0
DWIDTH 16 0
BBX 15 9 1 0
BITMAP
F83E
703C
7018
7C18
7F18
7398
7398
73BC
FF3E
ENDCHAR
STARTCHAR 044C
ENCODING 1100
SWIDTH 565 0
DWIDTH 11 0
BBX 9 9 1 0
BITMAP
F800
7000
7000
7800
7F80
7380
7380
7380
FF00
ENDCHAR
STARTCHAR 044D
ENCODING 1101
SWIDTH 462 0
DWIDTH 9 0
BBX 8 9 0 0
BITMAP
7C
67
47
03
3F
03
C7
47
7C
ENDCHAR
STARTCHAR 044E
ENCODING 1102
SWIDTH 822 0
DWIDTH 16 0
BBX 14 9 1 0
BITMAP
F9F0
73B8
771C
771C
7F0C
770C
771C
7398
F9F0
ENDCHAR
STARTCHAR 044F
ENCODING 1103
SWIDTH 565 0
DWIDTH 11 0
BBX 10 9 0 0
BITMAP
1FC0
7180
7180
7180
3F80
1F80
1980
3B80
F3C0
ENDCHAR
STARTCHAR 0450
ENCODING 1104
SWIDTH 462 0
DWIDTH 9 0
BBX 8 14 1 0
BITMAP
70
30
18
08
00
3E
67
E7
E3
FF
E0
E0
73
3E
ENDCHAR
STARTCHAR 0451
ENCODING 1105
SWIDTH 462 0
DWIDTH 9 0
BBX 8 13 1 0
BITMAP
66
E7
67
00
3E
67
E7
E3
FF
E0
E0
73
3E
ENDCHAR
STARTCHAR 0452
ENCODING 1106
SWIDTH 617 0
DWIDTH 12 0
BBX 11 19 0 -5
BITMAP
1800
F800
3800
FF00
3800
3B80
3FC0
38E0
38E0
38E0
38E0
38E0
38E0
7CE0
00C0
01C0
0180
0300
0200
ENDCHAR
STARTCHAR 0453
ENCODING 1107
SWIDTH 462 0
DWIDTH 9 0
BBX 8 14 1 0
BITMAP
0C
0C
18
10
00
FF
73
73
70
70
70
70
70
F8
ENDCHAR
STARTCHAR 0454
ENCODING 1108
SWIDTH 462 0
DWIDTH 9 0
BBX 8 9 1 0
BITMAP
3E
66
E2
E0
FC
E0
E3
63
3F
ENDCHAR
STARTCHAR 0455
ENCODING 1109
SWIDTH 411 0
DWIDTH 8 0
BBX 7 9 1 0
BITMAP
7C
CE
C6
F0
7C
1E
8E
CE
FC
ENDCHAR
STARTCHAR 0456
ENCODING 1110
SWIDTH 308 0
DWIDTH 6 0
BBX 5 13 1 0
BITMAP
70
70
00
00
70
F0
70
70
70
70
70
70
F8
ENDCHAR
STARTCHAR 0457
ENCODING 1111
SWIDTH 308 0
DWIDTH 6 0
BBX 7 13 0 0
BITMAP
EC
EE
EC
00
38
78
38
38
38
38
38
38
7C
ENDCHAR
STARTCHAR 0458
ENCODING 1112
SWIDTH 308 0
DWIDTH 6 0
BBX 4 18 1 -5
BITMAP
70
70
00
00
70
F0
70
70
70
70
70
70
70
70
60
E0
C0
80
ENDCHAR
STARTCHAR 0459
ENCODING 1113
SWIDTH 771 0
DWIDTH 15 0
BBX 15 9 0 0
BITMAP
3FE0
19C0
09C0
09E0
19FE
11CE
11CE
F1CE
E3FC
ENDCHAR
STARTCHAR 045A
ENCODING 1114
SWIDTH 822 0
DWIDTH 16 0
BBX 15 9 1 0
BITMAP
FBE0
73C0
7180
7180
7FFC
719E
718E
73CE
FBFC
ENDCHAR
STARTCHAR 045B
ENCODING 1115
SWIDTH 617 0
DWIDTH 12 0
BBX 12 14 0 0
BITMAP
1800
7800
3800
FF00
3800
3B80
3FC0
3CE0
38E0
38E0
38E0
38E0
38E0
7DF0
ENDCHAR
STARTCHAR 045C
ENCODING 1116
SWIDTH 565 0
DWIDTH 11 0
BBX 10 14 1 0
BITMAP
0300
0300
0600
0400
0000
FBC0
7180
7300
7600
7E00
7E00
7700
7380
F9C0
ENDCHAR
STARTCHAR 045D
ENCODING 1117
SWIDTH 617 0
DWIDTH 12 0
BBX 11 14 1 0
BITMAP
3800
1800
0C00
0400
0000
F9E0
71C0
63C0
67C0
65C0
69C0
79C0
71C0
E3E0
ENDCHAR
STARTCHAR 045E
ENCODING 1118
SWIDTH 514 0
DWIDTH 10 0
BBX 11 19 0 -5
BITMAP
10C0
38C0
19C0
0F00
0000
FDE0
78C0
3880
3880
1D00
1D00
0F00
0E00
0E00
0400
0400
5800
7800
7000
ENDCHAR
STARTCHAR 045F
ENCODING 1119
SWIDTH 617 0
DWIDTH 12 0
BBX 11 12 1 -3
BITMAP
FBE0
F1C0
71C0
71C0
71C0
71C0
71C0
71C0
FFE0
0C00
0C00
0C00
ENDCHAR
STARTCHAR 0462
ENCODING 1122
SWIDTH 720 0
DWIDTH 14 0
BBX 13 14 0 0
BITMAP
3F00
0E00
0E00
7FE0
4E60
CE60
0E00
0FE0
0E78
0E38
0E38
0E38
0E38
3FE0
ENDCHAR
STARTCHAR 0463
ENCODING 1123
SWIDTH 617 0
DWIDTH 12 0
BBX 12 14 0 0
BITMAP
0C00
3C00
1C00
1C00
1C00
7FC0
DCC0
DCC0
1C00
1FE0
1C70
1C70
1C70
3FC0
ENDCHAR
STARTCHAR 046A
ENCODING 1130
SWIDTH 925 0
DWIDTH 18 0
BBX 18 13 0 0
BITMAP
3FFF00
1E0200
0F0400
070800
039800
01F000
07FC00
0EFE00
1CEE00
1CE700
3CE700
38E780
FBF3C0
ENDCHAR
STARTCHAR 046B
ENCODING 1131
SWIDTH 771 0
DWIDTH 15 0
BBX 15 9 0 0
BITMAP
3FFC
1C18
0E30
0760
0FF0
1FB8
3B9C
7B9C
F7CE
ENDCHAR
STARTCHAR 0472
ENCODING 1138
SWIDTH 720 0
DWIDTH 14 0
BBX 13 13 1 0
BITMAP
1FC0
30E0
6070
E070
E038
FE78
FFF8
E3B8
E038
E070
7070
38E0
1F80
ENDCHAR
STARTCHAR 0473
ENCODING 1139
SWIDTH 565 0
DWIDTH 11 0
BBX 9 9 1 0
BITMAP
3E00
6700
E380
E380
FF80
E180
E380
7300
3E00
ENDCHAR
STARTCHAR 0474
ENCODING 1140
SWIDTH 720 0
DWIDTH 14 0
BBX 14 13 0 0
BITMAP
FC1C
783C
3820
3860
1C40
1C40
1C80
0E80
0E80
0780
0700
0700
0300
ENDCHAR
STARTCHAR 0475
ENCODING 1141
SWIDTH 514 0
DWIDTH 10 0
BBX 10 9 0 0
BITMAP
F8C0
71C0
7100
3B00
3A00
1E00
1E00
0C00
0C00
ENDCHAR
STARTCHAR 048A
ENCODING 1162
SWIDTH 822 0
DWIDTH 16 0
BBX 14 20 1 -3
BITMAP
18E0
18C0
0F80
0000
FC78
70F0
70F0
71F0
7170
7370
7270
7670
7470
7C70
7870
7870
F0FC
000C
001C
0018
ENDCHAR
STARTCHAR 048B
ENCODING 1163
SWIDTH 668 0
DWIDTH 13 0
BBX 12 17 1 -3
BITMAP
2180
7180
3380
1E00
0000
F9E0
71C0
63C0
67C0
65C0
69C0
79C0
71C0
E3F0
0060
0060
00C0
ENDCHAR
STARTCHAR 048C
ENCODING 1164
SWIDTH 668 0
DWIDTH 13 0
BBX 12 13 0 0
BITMAP
7E00
3C00
3800
FF00
3800
3B00
3FE0
38F0
3870
3870
3870
3CE0
7FC0
ENDCHAR
STARTCHAR 048D
ENCODING 1165
SWIDTH 565 0
DWIDTH 11 0
BBX 11 14 0 0
BITMAP
1000
F800
3800
3800
3800
FF00
3800
3800
3F00
3BC0
39C0
39E0
39C0
7F80
ENDCHAR
STARTCHAR 048E
ENCODING 1166
SWIDTH 617 0
DWIDTH 12 0
BBX 11 13 1 0
BITMAP
FF80
71C0
70E0
70E0
70E0
72C0
73C0
7780
7040
7000
7000
7800
FC00
ENDCHAR
STARTCHAR 048F
ENCODING 1167
SWIDTH 617 0
DWIDTH 12 0
BBX 11 14 1 -5
BITMAP
7780
FFC0
71C0
70E0
70E0
70C0
77C0
7380
7F80
7080
7000
7000
F800
FC00
ENDCHAR
STARTCHAR 0490
ENCODING 1168
SWIDTH 514 0
DWIDTH 10 0
BBX 9 17 1 0
BITMAP
0080
0180
0180
0180
FF80
7000
7000
7000
7000
7000
7000
7000
7000
7000
7000
7800
FC00
ENDCHAR
STARTCHAR 0491
ENCODING 1169
SWIDTH 411 0
DWIDTH 8 0
BBX 8 12 1 0
BITMAP
03
03
03
FF
70
70
70
70
70
70
70
F8
ENDCHAR
STARTCHAR 0492
ENCODING 1170
SWIDTH 565 0
DWIDTH 11 0
BBX 11 13 0 0
BITMAP
7FC0
38E0
3860
3800
3800
3800
FF00
3800
3800
3800
3800
3C00
7E00
ENDCHAR
STARTCHAR 0493
ENCODING 1171
SWIDTH 462 0
DWIDTH 9 0
BBX 9 9 0 0
BITMAP
7F80
3980
3980
3800
FE00
3800
3800
3800
7C00
ENDCHAR
STARTCHAR 0494
ENCODING 1172
SWIDTH 617 0
DWIDTH 12 0
BBX 11 18 1 -5
BITMAP
FFC0
70C0
70C0
7000
7000
7000
7F80
71C0
71E0
70E0
70E0
78E0
FCE0
00C0
01C0
0180
0300
0200
ENDCHAR
STARTCHAR 0495
ENCODING 1173
SWIDTH 565 0
DWIDTH 11 0
BBX 9 14 1 -5
BITMAP
FF00
7380
7180
7000
7F00
7380
7380
7180
F980
0180
0380
0300
0600
0400
ENDCHAR
STARTCHAR 0496
ENCODING 1174
SWIDTH 1080 0
DWIDTH 21 0
BBX 21 16 0 -3
BITMAP
79F9E0
18F1C0
087100
047300
067600
077E00
077E00
0E7700
0E7780
1C7380
3C73C0
78F1E0
F9F8F8
000018
000018
000018
ENDCHAR
STARTCHAR 0497
ENCODING 1175
SWIDTH 874 0
DWIDTH 17 0
BBX 17 12 0 -3
BITMAP
7BEF00
31C600
19CC00
0DD800
0FF800
1DDC00
1DDC00
79CF00
F3E780
000180
000180
000180
ENDCHAR
STARTCHAR 0498
ENCODING 1176
SWIDTH 565 0
DWIDTH 11 0
BBX 10 16 1 -3
BITMAP
FF00
E380
C380
4380
0300
1E00
1F00
0380
03C0
C1C0
C380
E380
7F00
1800
1800
1800
ENDCHAR
STARTCHAR 0499
ENCODING 1177
SWIDTH 462 0
DWIDTH 9 0
BBX 8 12 1 -3
BITMAP
FC
CE
C7
0E
3E
0F
87
C7
FE
30
30
30
ENDCHAR
STARTCHAR 049A
ENCODING 1178
SWIDTH 720 0
DWIDTH 14 0
BBX 14 16 1 -3
BITMAP
FCF0
7060
70C0
7180
7300
7200
7700
7780
73C0
71C0
71E0
70F0
FC7C
001C
000C
0008
ENDCHAR
STARTCHAR 049B
ENCODING 1179
SWIDTH 565 0
DWIDTH 11 0
BBX 11 12 1 -3
BITMAP
FBC0
7180
7300
7600
7E00
7E00
7700
7380
F9E0
0060
0060
0060
ENDCHAR
STARTCHAR 049C
ENCODING 1180
SWIDTH 720 0
DWIDTH 14 0
BBX 13 13 1 0
BITMAP
FC38
7078
70D8
7480
7580
7700
7F80
75C0
75C0
74E0
70E0
7070
FC78
ENDCHAR
STARTCHAR 049D
ENCODING 1181
SWIDTH 668 0
DWIDTH 13 0
BBX 12 9 1 0
BITMAP
F860
70E0
7520
7700
7F00
7780
75C0
71E0
F8F0
ENDCHAR
STARTCHAR 049E
ENCODING 1182
SWIDTH 720 0
DWIDTH 14 0
BBX 14 13 0 0
BITMAP
7E38
3878
FE48
FE80
3980
3B00
3F80
39C0
38E0
38E0
3870
3878
7E3C
ENDCHAR
STARTCHAR 049F
ENCODING 1183
SWIDTH 565 0
DWIDTH 11 0
BBX 12 14 0 0
BITMAP
1800
7800
3800
FF00
3800
38E0
38E0
3960
3A00
3F00
3B80
3BC0
39C0
7CF0
ENDCHAR
STARTCHAR 04A0
ENCODING 1184
SWIDTH 822 0
DWIDTH 16 0
BBX 15 13 1 0
BITMAP
FF1E
CE1E
8E36
0E60
0E40
0FC0
0FE0
0E70
0E70
0E38
0E38
1E1C
3F1E
ENDCHAR
STARTCHAR 04A1
ENCODING 1185
SWIDTH 668 0
DWIDTH 13 0
BBX 13 9 0 0
BITMAP
7F38
CE78
CE58
0E80
0FC0
0EE0
0EE0
0E70
3F78
ENDCHAR
STARTCHAR 04A2
ENCODING 1186
SWIDTH 822 0
DWIDTH 16 0
BBX 14 16 1 -3
BITMAP
FCF8
7070
7070
7070
7070
7070
7FF0
7070
7070
7070
7070
7070
FCFC
000C
000C
000C
ENDCHAR
STARTCHAR 04A3
ENCODING 1187
SWIDTH 668 0
DWIDTH 13 0
BBX 12 12 1 -3
BITMAP
FBE0
71C0
71C0
71C0
7FC0
71C0
71C0
71C0
FBF0
0030
0030
0030
ENDCHAR
STARTCHAR 04A4
ENCODING 1188
SWIDTH 874 0
DWIDTH 17 0
BBX 16 13 1 0
BITMAP
FDFF
70E3
70E1
70E0
70E0
70E0
7FE0
70E0
70E0
70E0
70E0
70F0
FDF8
ENDCHAR
STARTCHAR 04A5
ENCODING 1189
SWIDTH 720 0
DWIDTH 14 0
BBX 14 9 1 0
BITMAP
FBF8
71D8
71CC
71C0
7FC0
71C0
71C0
71C0
FBE0
ENDCHAR
STARTCHAR 04A8
ENCODING 1192
SWIDTH 874 0
DWIDTH 17 0
BBX 16 13 1 0
BITMAP
1C20
31F8
739C
E30E
E70E
E70E
E70E
E70E
E38E
E39C
71D8
38F3
1FFE
ENDCHAR
STARTCHAR 04A9
ENCODING 1193
SWIDTH 771 0
DWIDTH 15 0
BBX 13 9 1 0
BITMAP
31C0
7770
E670
EE38
EE30
EE30
E670
73E8
3FF8
ENDCHAR
STARTCHAR 04AA
ENCODING 1194
SWIDTH 617 0
DWIDTH 12 0
BBX 11 16 1 -3
BITMAP
1FC0
30C0
6040
E040
E000
E000
E000
E000
E000
F000
7000
3CE0
1F80
0600
0600
0600
ENDCHAR
STARTCHAR 04AB
ENCODING 1195
SWIDTH 462 0
DWIDTH 9 0
BBX 7 12 1 -3
BITMAP
3E
66
E2
C0
C0
E0
E0
72
3E
18
08
08
ENDCHAR
STARTCHAR 04AC
ENCODING 1196
SWIDTH 617 0
DWIDTH 12 0
BBX 11 16 1 -3
BITMAP
FFE0
CE60
8E20
0E00
0E00
0E00
0E00
0E00
0E00
0E00
0E00
0E00
3F80
0180
0180
0180
ENDCHAR
STARTCHAR 04AD
ENCODING 1197
SWIDTH 514 0
DWIDTH 10 0
BBX 10 12 0 -3
BITMAP
7FC0
EEC0
CE40
0E00
0E00
0E00
0E00
0E00
3F80
0180
0180
0180
ENDCHAR
STARTCHAR 04AE
ENCODING 1198
SWIDTH 617 0
DWIDTH 12 0
BBX 12 13 0 0
BITMAP
FCF0
7860
3840
1C40
1C80
1E80
0F00
0F00
0700
0700
0700
0F00
1FC0
ENDCHAR
STARTCHAR 04AF
ENCODING 1199
SWIDTH 514 0
DWIDTH 10 0
BBX 11 14 0 -5
BITMAP
FDE0
78C0
3880
3880
1D00
1D00
0F00
0E00
0E00
0E00
0E00
0E00
0F00
1F00
ENDCHAR
STARTCHAR 04B0
ENCODING 1200
SWIDTH 617 0
DWIDTH 12 0
BBX 12 13 0 0
BITMAP
FCF0
7860
3840
1C40
1C80
1E80
0F00
0F00
3FC0
0700
0700
0F00
1FC0
ENDCHAR
STARTCHAR 04B1
ENCODING 1201
SWIDTH 514 0
DWIDTH 10 0
BBX 11 14 0 -5
BITMAP
FDE0
78C0
3880
3880
1D00
1D00
0F00
0E00
3F80
0E00
0E00
0E00
0F00
1F00
ENDCHAR
STARTCHAR 04B2
ENCODING 1202
SWIDTH 720 0
DWIDTH 14 0
BBX 13 16 1 -3
BITMAP
FCF0
78E0
38C0
3C80
1D00
0F00
0F00
0F00
1F80
33C0
21C0
61E0
F3F8
0018
0018
0010
ENDCHAR
STARTCHAR 04B3
ENCODING 1203
SWIDTH 565 0
DWIDTH 11 0
BBX 10 12 1 -3
BITMAP
FB80
7300
7B00
3E00
1C00
3E00
6F00
6780
EFC0
00C0
00C0
00C0
ENDCHAR
STARTCHAR 04B4
ENCODING 1204
SWIDTH 1028 0
DWIDTH 20 0
BBX 18 16 1 -3
BITMAP
FFDF80
CEC700
8E4700
0E0700
0E0700
0E0700
0E0700
0E0700
0E0700
0E0700
0E0700
0E0F00
1FFFC0
0000C0
0000C0
0000C0
ENDCHAR
STARTCHAR 04B5
ENCODING 1205
SWIDTH 822 0
DWIDTH 16 0
BBX 16 12 0 -3
BITMAP
7FBE
CE9C
CEDC
0E1C
0E1C
0E1C
0E1C
0E1C
1FFF
0003
0003
0003
ENDCHAR
STARTCHAR 04B6
ENCODING 1206
SWIDTH 771 0
DWIDTH 15 0
BBX 14 16 1 -3
BITMAP
F9F0
70E0
70E0
70E0
70E0
70E0
3DE0
1FE0
00E0
00E0
00E0
00E0
03FC
001C
0018
0008
ENDCHAR
STARTCHAR 04B7
ENCODING 1207
SWIDTH 617 0
DWIDTH 12 0
BBX 12 12 0 -3
BITMAP
FBE0
71C0
71C0
71C0
39C0
1FC0
01C0
01C0
07F0
0030
0030
0030
ENDCHAR
STARTCHAR 04B8
ENCODING 1208
SWIDTH 771 0
DWIDTH 15 0
BBX 13 13 1 0
BITMAP
F8F8
7070
7070
7270
7270
3A70
3FF0
0270
0270
0270
0070
00F0
01F8
ENDCHAR
STARTCHAR 04B9
ENCODING 1209
SWIDTH 617 0
DWIDTH 12 0
BBX 12 9 0 0
BITMAP
F9F0
70E0
72E0
32E0
3FE0
02E0
02E0
00E0
03F0
ENDCHAR
STARTCHAR 04BA
ENCODING 1210
SWIDTH 720 0
DWIDTH 14 0
BBX 13 13 1 0
BITMAP
FC00
7800
7000
7000
7000
7FC0
71E0
70E0
70E0
70E0
70E0
70F0
F9F8
ENDCHAR
STARTCHAR 04BB
ENCODING 1211
SWIDTH 617 0
DWIDTH 12 0
BBX 11 14 1 0
BITMAP
3000
F000
7000
7000
7000
7780
7FC0
71C0
71C0
71C0
71C0
71C0
71C0
FBE0
ENDCHAR
STARTCHAR 04BC
ENCODING 1212
SWIDTH 822 0
DWIDTH 16 0
BBX 14 13 1 0
BITMAP
03F0
0638
4C1C
DC1C
DC1C
FFFC
7FFC
1C00
1C00
1C00
0E04
0F9C
03F0
ENDCHAR
STARTCHAR 04BD
ENCODING 1213
SWIDTH 617 0
DWIDTH 12 0
BBX 11 9 1 0
BITMAP
0780
4CC0
DCE0
D8E0
7FE0
1800
1C00
1E60
0FC0
ENDCHAR
STARTCHAR 04BE
ENCODING 1214
SWIDTH 822 0
DWIDTH 16 0
BBX 14 16 1 -3
BITMAP
03F0
0638
4C1C
DC1C
DC1C
FFFC
7FFC
1C00
1C00
1C00
0E04
0F9C
03F0
00C0
00C0
00C0
ENDCHAR
STARTCHAR 04BF
ENCODING 1215
SWIDTH 617 0
DWIDTH 12 0
BBX 11 12 1 -3
BITMAP
0780
4CC0
DCE0
D8E0
7FE0
1800
1C00
1E60
0FC0
0300
0300
0300
ENDCHAR
STARTCHAR 04C0
ENCODING 1216
SWIDTH 360 0
DWIDTH 7 0
BBX 6 13 1 0
BITMAP
FC
70
70
70
70
70
70
70
70
70
70
70
FC
ENDCHAR
STARTCHAR 04C1
ENCODING 1217
SWIDTH 1028 0
DWIDTH 20 0
BBX 20 17 0 0
BITMAP
030C00
019C00
00F000
000000
79F9E0
18F1C0
087100
047300
067600
077E00
077E00
0E7700
0E7780
1C7380
3C73C0
78F1E0
F9F8F0
ENDCHAR
STARTCHAR 04C2
ENCODING 1218
SWIDTH 874 0
DWIDTH 17 0
BBX 17 14 0 0
BITMAP
063000
063800
073000
03E000
000000
7BEF00
31C600
19CC00
0DD800
0FF800
1DDC00
1DDC00
79CF00
F3E780
ENDCHAR
STARTCHAR 04C3
ENCODING 1219
SWIDTH 668 0
DWIDTH 13 0
BBX 12 18 1 -5
BITMAP
FCF0
70F0
7130
7100
7200
7600
7F80
71E0
70E0
7070
7070
7070
FC70
0060
00E0
00C0
0380
0200
ENDCHAR
STARTCHAR 04C4
ENCODING 1220
SWIDTH 565 0
DWIDTH 11 0
BBX 10 14 1 -5
BITMAP
F980
7380
7680
7400
7E00
7380
7180
71C0
F9C0
01C0
0380
0300
0600
0400
ENDCHAR
STARTCHAR 04C5
ENCODING 1221
SWIDTH 720 0
DWIDTH 14 0
BBX 14 16 0 -3
BITMAP
1FF8
0C70
0C60
0860
0860
0860
0860
0860
0860
1860
F860
F0F0
F1FC
001C
0018
0030
ENDCHAR
STARTCHAR 04C6
ENCODING 1222
SWIDTH 617 0
DWIDTH 12 0
BBX 12 12 0 -3
BITMAP
3FE0
19C0
19C0
11C0
11C0
11C0
31C0
F1C0
E3F0
0060
0060
00C0
ENDCHAR
STARTCHAR 04C7
ENCODING 1223
SWIDTH 720 0
DWIDTH 14 0
BBX 13 18 1 -5
BITMAP
FCF8
7070
7070
7070
7070
7070
7FF0
7070
7070
7070
7070
7070
FC70
0070
0060
00E0
01C0
0100
ENDCHAR
STARTCHAR 04C8
ENCODING 1224
SWIDTH 617 0
DWIDTH 12 0
BBX 11 14 1 -5
BITMAP
FBE0
71C0
71C0
71C0
7FC0
71C0
71C0
71C0
F9C0
0180
0180
0380
0700
0400
ENDCHAR
STARTCHAR 04C9
ENCODING 1225
SWIDTH 822 0
DWIDTH 16 0
BBX 14 16 1 -3
BITMAP
FCF8
7070
7070
7070
7070
7070
7FF0
7070
7070
7070
7070
7070
FCFC
000C
001C
0018
ENDCHAR
STARTCHAR 04CA
ENCODING 1226
SWIDTH 668 0
DWIDTH 13 0
BBX 12 12 1 -3
BITMAP
FBE0
71C0
71C0
71C0
7FC0
71C0
71C0
71C0
FBF0
0070
0060
00C0
ENDCHAR
STARTCHAR 04CB
ENCODING 1227
SWIDTH 720 0
DWIDTH 14 0
BBX 12 16 1 -3
BITMAP
F9F0
70E0
70E0
70E0
70E0
70E0
3DE0
1FE0
00E0
00E0
00E0
00E0
07F0
0300
0300
0300
ENDCHAR
STARTCHAR 04CC
ENCODING 1228
SWIDTH 565 0
DWIDTH 11 0
BBX 11 12 0 -3
BITMAP
FBE0
71C0
71C0
71C0
39C0
1FC0
01C0
01C0
07E0
0600
0600
0600
ENDCHAR
STARTCHAR 04CD
ENCODING 1229
SWIDTH 977 0
DWIDTH 19 0
BBX 19 16 0 -3
BITMAP
7C07C0
1C0700
1E0F00
1E0F00
1F0F00
371700
371300
33B380
23A380
21E380
21C380
70C380
F8C7E0
000060
0000E0
0000C0
ENDCHAR
STARTCHAR 04CE
ENCODING 1230
SWIDTH 771 0
DWIDTH 15 0
BBX 15 12 0 -3
BITMAP
787C
3C78
3C70
2EB8
2EB8
2F38
2738
6738
F27E
0006
000C
000C
ENDCHAR
STARTCHAR 04CF
ENCODING 1231
SWIDTH 308 0
DWIDTH 6 0
BBX 5 14 1 0
BITMAP
30
F0
70
70
70
70
70
70
70
70
70
70
70
F8
ENDCHAR
STARTCHAR 04D0
ENCODING 1232
SWIDTH 668 0
DWIDTH 13 0
BBX 13 17 0 0
BITMAP
18E0
1CC0
0F80
0000
0300
0700
0700
0780
0B80
09C0
19C0
10E0
1FE0
20F0
2070
6078
F0F8
ENDCHAR
STARTCHAR 04D1
ENCODING 1233
SWIDTH 514 0
DWIDTH 10 0
BBX 9 14 1 0
BITMAP
6600
6600
6600
3C00
0000
1E00
6F00
E700
6700
1F00
6700
E700
E780
7F80
ENDCHAR
STARTCHAR 04D2
ENCODING 1234
SWIDTH 668 0
DWIDTH 13 0
BBX 13 17 0 0
BITMAP
1CC0
1DC0
1CC0
0000
0300
0700
0700
0780
0B80
09C0
19C0
10E0
1FE0
20F0
2070
6078
F0F8
ENDCHAR
STARTCHAR 04D3
ENCODING 1235
SWIDTH 514 0
DWIDTH 10 0
BBX 9 13 1 0
BITMAP
6600
E700
6600
0000
1E00
6F00
E700
6700
1F00
6700
E700
E780
7F80
ENDCHAR
STARTCHAR 04D4
ENCODING 1236
SWIDTH 925 0
DWIDTH 18 0
BBX 18 13 0 0
BITMAP
03FF80
01F180
017080
037000
027000
067200
07FE00
0C7600
187200
107000
3070C0
7071C0
F8FFC0
ENDCHAR
STARTCHAR 04D5
ENCODING 1237
SWIDTH 720 0
DWIDTH 14 0
BBX 12 9 1 0
BITMAP
7DE0
EF70
C630
0630
7FF0
E600
CF00
EF90
F1F0
ENDCHAR
STARTCHAR 04D6
ENCODING 1238
SWIDTH 617 0
DWIDTH 12 0
BBX 10 17 1 0
BITMAP
6180
7380
1E00
0000
FFC0
70C0
70C0
7000
7100
7300
7F00
7300
7100
7040
7040
78C0
FFC0
ENDCHAR
STARTCHAR 04D7
ENCODING 1239
SWIDTH 462 0
DWIDTH 9 0
BBX 8 14 1 0
BITMAP
66
66
66
3C
00
3E
67
E7
E3
FF
E0
E0
73
3E
ENDCHAR
STARTCHAR 04D8
ENCODING 1240
SWIDTH 668 0
DWIDTH 13 0
BBX 11 13 1 0
BITMAP
FF00
E3C0
C1C0
40E0
00E0
00E0
FFE0
E0E0
E0E0
E0E0
60C0
7180
3F00
ENDCHAR
STARTCHAR 04D9
ENCODING 1241
SWIDTH 462 0
DWIDTH 9 0
BBX 8 9 1 0
BITMAP
FC
CE
C7
07
FF
C7
E7
E6
7C
ENDCHAR
STARTCHAR 04DA
ENCODING 1242
SWIDTH 668 0
DWIDTH 13 0
BBX 11 17 1 0
BITMAP
3180
3B80
3180
0000
FF00
E3C0
C1C0
40E0
00E0
00E0
FFE0
E0E0
E0E0
E0E0
60C0
7180
3F00
ENDCHAR
STARTCHAR 04DB
ENCODING 1243
SWIDTH 462 0
DWIDTH 9 0
BBX 8 13 1 0
BITMAP
66
E7
66
00
FC
CE
C7
07
FF
C7
E7
E6
7C
ENDCHAR
STARTCHAR 04DC
ENCODING 1244
SWIDTH 1028 0
DWIDTH 20 0
BBX 20 17 0 0
BITMAP
019800
039C00
019800
000000
79F9E0
18F1C0
087100
047300
067600
077E00
077E00
0E7700
0E7780
1C7380
3C73C0
78F1E0
F9F8F0
ENDCHAR
STARTCHAR 04DD
ENCODING 1245
SWIDTH 874 0
DWIDTH 17 0
BBX 17 13 0 0
BITMAP
063000
077000
073000
000000
7BEF00
31C600
19CC00
0DD800
0FF800
1DDC00
1DDC00
79CF00
F3E780
ENDCHAR
STARTCHAR 04DE
ENCODING 1246
SWIDTH 565 0
DWIDTH 11 0
BBX 10 17 1 0
BITMAP
6300
7700
6300
0000
FF00
E380
C380
4380
0300
1E00
1F00
0380
03C0
C1C0
C380
E380
7F00
ENDCHAR
STARTCHAR 04DF
ENCODING 1247
SWIDTH 462 0
DWIDTH 9 0
BBX 8 13 1 0
BITMAP
66
EE
E6
00
FC
CE
C7
0E
3E
0F
87
C7
FE
ENDCHAR
STARTCHAR 04E0
ENCODING 1248
SWIDTH 565 0
DWIDTH 11 0
BBX 9 13 1 0
BITMAP
FF80
FF00
E300
C600
0C00
1C00
1F00
0780
0380
C380
C380
E700
7E00
ENDCHAR
STARTCHAR 04E1
ENCODING 1249
SWIDTH 462 0
DWIDTH 9 0
BBX 8 14 1 -5
BITMAP
FF
FE
C6
CC
08
18
3E
3E
07
07
C7
C7
EE
78
ENDCHAR
STARTCHAR 04E2
ENCODING 1250
SWIDTH 771 0
DWIDTH 15 0
BBX 13 16 1 0
BITMAP
1FC0
0000
0000
FC78
70F0
70F0
71F0
7170
7370
7270
7670
7470
7C70
7870
7870
F0F8
ENDCHAR
STARTCHAR 04E3
ENCODING 1251
SWIDTH 617 0
DWIDTH 12 0
BBX 11 12 1 0
BITMAP
3F80
0000
0000
F9E0
71C0
63C0
67C0
65C0
69C0
79C0
71C0
E3E0
ENDCHAR
STARTCHAR 04E4
ENCODING 1252
SWIDTH 771 0
DWIDTH 15 0
BBX 13 17 1 0
BITMAP
18C0
1DC0
18C0
0000
FC78
70F0
70F0
71F0
7170
7370
7270
7670
7470
7C70
7870
7870
F0F8
ENDCHAR
STARTCHAR 04E5
ENCODING 1253
SWIDTH 617 0
DWIDTH 12 0
BBX 11 13 1 0
BITMAP
3300
3B80
3380
0000
F9E0
71C0
63C0
67C0
65C0
69C0
79C0
71C0
E3E0
ENDCHAR
STARTCHAR 04E6
ENCODING 1254
SWIDTH 720 0
DWIDTH 14 0
BBX 13 17 1 0
BITMAP
1980
1DC0
19C0
0000
1FC0
30E0
6070
E070
E038
E038
E038
E038
E038
E070
7070
38E0
1F80
ENDCHAR
STARTCHAR 04E7
ENCODING 1255
SWIDTH 565 0
DWIDTH 11 0
BBX 9 13 1 0
BITMAP
6300
7700
6300
0000
3E00
6700
E380
E380
E180
E180
E380
7300
3E00
ENDCHAR
STARTCHAR 04E8
ENCODING 1256
SWIDTH 720 0
DWIDTH 14 0
BBX 13 13 1 0
BITMAP
1FC0
30E0
6070
E070
E038
E038
FFF8
E038
E038
E070
7070
38E0
1F80
ENDCHAR
STARTCHAR 04E9
ENCODING 1257
SWIDTH 565 0
DWIDTH 11 0
BBX 9 9 1 0
BITMAP
3E00
6700
E380
E380
FF80
E180
E380
7300
3E00
ENDCHAR
STARTCHAR 04EA
ENCODING 1258
SWIDTH 720 0
DWIDTH 14 0
BBX 13 17 1 0
BITMAP
1980
1DC0
19C0
0000
1FC0
30E0
6070
E070
E038
E038
FFF8
E038
E038
E070
7070
38E0
1F80
ENDCHAR
STARTCHAR 04EB
ENCODING 1259
SWIDTH 565 0
DWIDTH 11 0
BBX 9 13 1 0
BITMAP
6300
7700
6300
0000
3E00
6700
E380
E380
FF80
E180
E380
7300
3E00
ENDCHAR
STARTCHAR 04EC
ENCODING 1260
SWIDTH 617 0
DWIDTH 12 0
BBX 11 17 1 0
BITMAP
6300
7700
6300
0000
FF00
C380
C1C0
C1C0
00E0
00E0
3FE0
00E0
00C0
C1C0
C1C0
C380
7F00
ENDCHAR
STARTCHAR 04ED
ENCODING 1261
SWIDTH 462 0
DWIDTH 9 0
BBX 8 13 0 0
BITMAP
66
E7
66
00
7C
67
47
03
3F
03
C7
47
7C
ENDCHAR
STARTCHAR 04EE
ENCODING 1262
SWIDTH 668 0
DWIDTH 13 0
BBX 13 16 0 0
BITMAP
0FE0
0000
0000
FC78
7830
3820
1C20
1C40
0E40
0780
0780
0300
0300
0600
3E00
3C00
ENDCHAR
STARTCHAR 04EF
ENCODING 1263
SWIDTH 514 0
DWIDTH 10 0
BBX 11 17 0 -5
BITMAP
1FC0
0000
0000
FDE0
78C0
3880
3880
1D00
1D00
0F00
0E00
0E00
0400
0400
5800
7800
7000
ENDCHAR
STARTCHAR 04F0
ENCODING 1264
SWIDTH 668 0
DWIDTH 13 0
BBX 13 17 0 0
BITMAP
0CE0
0EE0
0CE0
0000
FC78
7830
3820
1C20
1C40
0E40
0780
0780
0300
0300
0600
3E00
3C00
ENDCHAR
STARTCHAR 04F1
ENCODING 1265
SWIDTH 514 0
DWIDTH 10 0
BBX 11 18 0 -5
BITMAP
1980
19C0
19C0
0000
FDE0
78C0
3880
3880
1D00
1D00
0F00
0E00
0E00
0400
0400
5800
7800
7000
ENDCHAR
STARTCHAR 04F2
ENCODING 1266
SWIDTH 668 0
DWIDTH 13 0
BBX 13 17 0 0
BITMAP
0760
0640
04C0
0000
FC78
7830
3820
1C20
1C40
0E40
0780
0780
0300
0300
0600
3E00
3C00
ENDCHAR
STARTCHAR 04F3
ENCODING 1267
SWIDTH 514 0
DWIDTH 10 0
BBX 11 19 0 -5
BITMAP
06E0
0CC0
0D80
0900
0000
FDE0
78C0
3880
3880
1D00
1D00
0F00
0E00
0E00
0400
0400
5800
7800
7000
ENDCHAR
STARTCHAR 04F4
ENCODING 1268
SWIDTH 720 0
DWIDTH 14 0
BBX 12 17 1 0
BITMAP
1980
39C0
1980
0000
F9F0
70E0
70E0
70E0
70E0
70E0
3DE0
1FE0
00E0
00E0
00E0
00E0
03F0
ENDCHAR
STARTCHAR 04F5
ENCODING 1269
SWIDTH 565 0
DWIDTH 11 0
BBX 11 13 0 0
BITMAP
3180
3B80
3180
0000
FBE0
71C0
71C0
71C0
39C0
1FC0
01C0
01C0
07E0
ENDCHAR
STARTCHAR 04F6
ENCODING 1270
SWIDTH 565 0
DWIDTH 11 0
BBX 10 16 1 -3
BITMAP
FF80
71C0
70C0
7000
7000
7000
7000
7000
7000
7000
7000
7800
FE00
0600
0600
0600
ENDCHAR
STARTCHAR 04F7
ENCODING 1271
SWIDTH 462 0
DWIDTH 9 0
BBX 8 12 1 -3
BITMAP
FF
73
73
70
70
70
70
70
FC
0C
0C
0C
ENDCHAR
STARTCHAR 04F8
ENCODING 1272
SWIDTH 925 0
DWIDTH 18 0
BBX 17 17 1 0
BITMAP
063000
077000
063000
000000
FC1F00
780E00
700E00
700E00
700E00
760E00
7F8E00
71CE00
71CE00
71CE00
71CE00
79CE00
FF1F80
ENDCHAR
STARTCHAR 04F9
ENCODING 1273
SWIDTH 822 0
DWIDTH 16 0
BBX 15 13 1 0
BITMAP
0CC0
1CE0
0CC0
0000
F83E
703C
7018
7C18
7F18
7398
7398
73BC
FF3E
ENDCHAR
STARTCHAR 04FA
ENCODING 1274
SWIDTH 565 0
DWIDTH 11 0
BBX 11 18 0 -5
BITMAP
7FC0
38E0
3860
3800
3800
3800
FF00
3800
3800
3800
3800
3C00
7F00
0300
0300
0700
0E00
0800
ENDCHAR
STARTCHAR 04FB
ENCODING 1275
SWIDTH 462 0
DWIDTH 9 0
BBX 9 14 0 -5
BITMAP
7F80
3980
3980
3800
FE00
3800
3800
3800
7E00
0600
0600
0E00
1C00
1000
ENDCHAR
STARTCHAR 04FC
ENCODING 1276
SWIDTH 668 0
DWIDTH 13 0
BBX 12 18 1 -5
BITMAP
FDF0
78C0
38C0
3D80
1F00
0F00
0700
0F80
1BC0
31C0
20E0
60F0
F070
0070
0070
0060
00C0
0080
ENDCHAR
STARTCHAR 04FD
ENCODING 1277
SWIDTH 565 0
DWIDTH 11 0
BBX 10 14 1 -5
BITMAP
FB80
7300
7A00
3E00
1C00
1E00
2700
6380
F380
01C0
0180
0180
0300
0200
ENDCHAR
STARTCHAR 04FE
ENCODING 1278
SWIDTH 668 0
DWIDTH 13 0
BBX 12 13 1 0
BITMAP
FCF0
78E0
38C0
3C80
1D00
0F00
FFE0
0F00
1F80
33C0
21C0
61E0
F3F0
ENDCHAR
STARTCHAR 04FF
ENCODING 1279
SWIDTH 565 0
DWIDTH 11 0
BBX 9 9 1 0
BITMAP
FB80
7300
7B00
3E00
FF80
3E00
6F00
6780
EF80
ENDCHAR
STARTCHAR 0510
ENCODING 1296
SWIDTH 565 0
DWIDTH 11 0
BBX 10 13 1 0
BITMAP
3F80
7180
E180
F100
7000
3C00
3E00
7000
E000
E0C0
E180
F180
3F80
ENDCHAR
STARTCHAR 0511
ENCODING 1297
SWIDTH 462 0
DWIDTH 9 0
BBX 8 9 1 0
BITMAP
7E
E2
E3
F0
3C
E0
E3
E3
7F
ENDCHAR
STARTCHAR 0512
ENCODING 1298
SWIDTH 668 0
DWIDTH 13 0
BBX 13 18 0 -5
BITMAP
1FF8
0CF0
0C60
0860
0860
0860
0860
0860
0860
1860
F860
F060
F060
00E0
00E0
00C0
0180
0100
ENDCHAR
STARTCHAR 0513
ENCODING 1299
SWIDTH 565 0
DWIDTH 11 0
BBX 11 14 0 -5
BITMAP
3FE0
09C0
09C0
09C0
19C0
11C0
11C0
F1C0
E1C0
01C0
0180
0380
0300
0200
ENDCHAR
STARTCHAR 051A
ENCODING 1306
SWIDTH 720 0
DWIDTH 14 0
BBX 14 17 1 -4
BITMAP
1FC0
30E0
6070
E070
E038
E038
E038
E038
E038
E070
7070
38E0
1F80
01C0
00F0
007C
0030
ENDCHAR
STARTCHAR 051B
ENCODING 1307
SWIDTH 565 0
DWIDTH 11 0
BBX 11 14 1 -5
BITMAP
3F00
7380
E380
E380
E380
E380
E380
F780
7B80
0380
0380
0380
07C0
0FE0
ENDCHAR
STARTCHAR 051C
ENCODING 1308
SWIDTH 977 0
DWIDTH 19 0
BBX 19 13 0 0
BITMAP
FC21E0
7870C0
3870C0
387080
38B880
1CB980
1DBD00
1D1D00
0F1D00
0F0E00
0E0E00
060E00
060600
ENDCHAR
STARTCHAR 051D
ENCODING 1309
SWIDTH 771 0
DWIDTH 15 0
BBX 15 9 0 0
BITMAP
F89E
71CC
39CC
39E8
3AE8
1AE8
1E70
1C70
0C30
ENDCHAR
STARTCHAR 0524
ENCODING 1316
SWIDTH 822 0
DWIDTH 16 0
BBX 14 16 1 -3
BITMAP
FFF8
7070
7070
7070
7070
7070
7070
7070
7070
7070
7070
70F0
FDFC
000C
000C
000C
ENDCHAR
STARTCHAR 0525
ENCODING 1317
SWIDTH 668 0
DWIDTH 13 0
BBX 12 12 1 -3
BITMAP
FFE0
71C0
71C0
71C0
71C0
71C0
71C0
71C0
FBF0
0030
0030
0030
ENDCHAR
STARTCHAR 0526
ENCODING 1318
SWIDTH 771 0
DWIDTH 15 0
BBX 14 16 1 -3
BITMAP
FC00
7800
7000
7000
7000
7FC0
71E0
70E0
70E0
70E0
70E0
70F0
F9FC
000C
000C
000C
ENDCHAR
STARTCHAR 0527
ENCODING 1319
SWIDTH 668 0
DWIDTH 13 0
BBX 12 17 1 -3
BITMAP
3000
F000
7000
7000
7000
7780
7FC0
71C0
71C0
71C0
71C0
71C0
71C0
FBF0
0030
0030
0030
ENDCHAR
STARTCHAR 0528
ENCODING 1320
SWIDTH 771 0
DWIDTH 15 0
BBX 13 18 1 -5
BITMAP
FCF8
7070
7070
7070
7070
7070
7FF0
7070
7070
7070
7070
7070
70F8
7000
7000
6000
C000
8000
ENDCHAR
STARTCHAR 0529
ENCODING 1321
SWIDTH 617 0
DWIDTH 12 0
BBX 11 14 1 -5
BITMAP
FBE0
71C0
71C0
71C0
7FC0
71C0
71C0
71C0
73E0
7000
6000
E000
C000
8000
ENDCHAR
STARTCHAR 052E
ENCODING 1326
SWIDTH 720 0
DWIDTH 14 0
BBX 14 16 0 -3
BITMAP
1FF8
0C70
0C60
0860
0860
0860
0860
0860
0860
1860
F860
F0F0
F1FC
000C
000C
000C
ENDCHAR
STARTCHAR 052F
ENCODING 1327
SWIDTH 617 0
DWIDTH 12 0
BBX 12 12 0 -3
BITMAP
3FE0
19C0
19C0
11C0
11C0
11C0
31C0
F1C0
E3F0
0030
0030
0030
ENDCHAR
STARTCHAR 058F
ENCODING 1423
SWIDTH 565 0
DWIDTH 11 0
BBX 10 13 1 0
BITMAP
7E00
E700
C700
C700
0700
0700
3FC0
0700
3FC0
0700
0700
0780
1FC0
ENDCHAR
STARTCHAR 1E08
ENCODING 7688
SWIDTH 617 0
DWIDTH 12 0
BBX 11 22 1 -5
BITMAP
0380
0300
0600
0000
1FC0
30C0
6040
E040
E000
E000
E000
E000
E000
F000
7000
3CE0
1F80
0400
0600
0300
0300
0400
ENDCHAR
STARTCHAR 1E09
ENCODING 7689
SWIDTH 462 0
DWIDTH 9 0
BBX 7 19 1 -5
BITMAP
0E
0C
08
18
00
3E
66
E2
C0
C0
E0
E0
72
3E
18
1C
0C
0C
10
ENDCHAR
STARTCHAR 1E0C
ENCODING 7692
SWIDTH 720 0
DWIDTH 14 0
BBX 13 17 1 -4
BITMAP
FFC0
70E0
7070
7070
7070
7038
7038
7038
7070
7070
7060
79C0
FF00
0000
0000
0E00
0E00
ENDCHAR
STARTCHAR 1E0D
ENCODING 7693
SWIDTH 565 0
DWIDTH 11 0
BBX 10 18 1 -4
BITMAP
0180
0780
0380
0380
0380
3F80
7380
E380
E380
E380
E380
E380
F3C0
7FC0
0000
0000
1C00
1C00
ENDCHAR
STARTCHAR 1E0E
ENCODING 7694
SWIDTH 720 0
DWIDTH 14 0
BBX 13 16 1 -3
BITMAP
FFC0
70E0
7070
7070
7070
7038
7038
7038
7070
7070
7060
79C0
FF00
0000
0000
3F80
ENDCHAR
STARTCHAR 1E0F
ENCODING 7695
SWIDTH 565 0
DWIDTH 11 0
BBX 10 17 1 -3
BITMAP
0180
0780
0380
0380
0380
3F80
7380
E380
E380
E380
E380
E380
F3C0
7FC0
0000
0000
7F00
ENDCHAR
STARTCHAR 1E10
ENCODING 7696
SWIDTH 720 0
DWIDTH 14 0
BBX 13 19 1 -6
BITMAP
FFC0
70E0
7070
7070
7070
7038
7038
7038
7070
7070
7060
79C0
FF00
0000
0E00
0E00
0600
0400
0800
ENDCHAR
STARTCHAR 1E11
ENCODING 7697
SWIDTH 565 0
DWIDTH 11 0
BBX 10 20 1 -6
BITMAP
0180
0780
0380
0380
0380
3F80
7380
E380
E380
E380
E380
E380
F3C0
7FC0
0000
1C00
1C00
0C00
0C00
1800
ENDCHAR
STARTCHAR 1E14
ENCODING 7700
SWIDTH 617 0
DWIDTH 12 0
BBX 10 20 1 0
BITMAP
1800
1800
0C00
0000
7F80
0000
0000
FFC0
70C0
70C0
7000
7100
7300
7F00
7300
7100
7040
7040
78C0
FFC0
ENDCHAR
STARTCHAR 1E15
ENCODING 7701
SWIDTH 462 0
DWIDTH 9 0
BBX 8 16 1 0
BITMAP
10
30
18
00
7F
E0
00
3E
67
E7
E3
FF
E0
E0
73
3E
ENDCHAR
STARTCHAR 1E16
ENCODING 7702
SWIDTH 617 0
DWIDTH 12 0
BBX 10 20 1 0
BITMAP
0600
0C00
0C00
0000
7F80
0000
0000
FFC0
70C0
70C0
7000
7100
7300
7F00
7300
7100
7040
7040
78C0
FFC0
ENDCHAR
STARTCHAR 1E17
ENCODING 7703
SWIDTH 462 0
DWIDTH 9 0
BBX 8 16 1 0
BITMAP
06
0C
18
00
7F
E0
00
3E
67
E7
E3
FF
E0
E0
73
3E
ENDCHAR
STARTCHAR 1E1C
ENCODING 7708
SWIDTH 617 0
DWIDTH 12 0
BBX 10 22 1 -5
BITMAP
2100
3F00
1E00
0000
FFC0
70C0
70C0
7000
7100
7300
7F00
7300
7100
7040
7040
78C0
FFC0
0800
0C00
0600
0600
0800
ENDCHAR
STARTCHAR 1E1D
ENCODING 7709
SWIDTH 462 0
DWIDTH 9 0
BBX 8 19 1 -5
BITMAP
41
63
7E
3C
00
3E
67
E7
E3
FF
E0
E0
F3
3E
18
1C
0C
0C
10
ENDCHAR
STARTCHAR 1E20
ENCODING 7712
SWIDTH 668 0
DWIDTH 13 0
BBX 12 16 1 0
BITMAP
1FC0
0000
0000
1FE0
3060
7060
E060
E000
E000
E000
E1F0
E060
E060
7060
38E0
1FC0
ENDCHAR
STARTCHAR 1E21
ENCODING 7713
SWIDTH 514 0
DWIDTH 10 0
BBX 9 17 1 -5
BITMAP
FE00
0000
0000
7F80
E700
E700
E700
E700
7E00
4000
FC00
FF80
7F80
C380
C300
E700
7C00
ENDCHAR
STARTCHAR 1E24
ENCODING 7716
SWIDTH 771 0
DWIDTH 15 0
BBX 13 17 1 -4
BITMAP
FCF8
7070
7070
7070
7070
7070
7FF0
7070
7070
7070
7070
7070
FCF8
0000
0000
0700
0700
ENDCHAR
STARTCHAR 1E25
ENCODING 7717
SWIDTH 617 0
DWIDTH 12 0
BBX 11 18 1 -4
BITMAP
3000
F000
7000
7000
7000
7780
7FC0
71C0
71C0
71C0
71C0
71C0
71C0
FBE0
0000
0000
0E00
0E00
ENDCHAR
STARTCHAR 1E2A
ENCODING 7722
SWIDTH 771 0
DWIDTH 15 0
BBX 13 17 1 -4
BITMAP
FCF8
7070
7070
7070
7070
7070
7FF0
7070
7070
7070
7070
7070
FCF8
0000
18C0
0F80
0700
ENDCHAR
STARTCHAR 1E2B
ENCODING 7723
SWIDTH 617 0
DWIDTH 12 0
BBX 11 18 1 -4
BITMAP
3000
F000
7000
7000
7000
7780
7FC0
71C0
71C0
71C0
71C0
71C0
71C0
FBE0
0000
3180
3F00
1E00
ENDCHAR
STARTCHAR 1E2E
ENCODING 7726
SWIDTH 360 0
DWIDTH 7 0
BBX 7 20 0 0
BITMAP
0C
18
10
64
EE
6E
00
7E
38
38
38
38
38
38
38
38
38
38
38
7E
ENDCHAR
STARTCHAR 1E2F
ENCODING 7727
SWIDTH 308 0
DWIDTH 6 0
BBX 7 16 0 0
BITMAP
1C
18
30
00
EE
EC
00
38
78
38
38
38
38
38
38
7C
ENDCHAR
STARTCHAR 1E36
ENCODING 7734
SWIDTH 565 0
DWIDTH 11 0
BBX 10 17 1 -4
BITMAP
FC00
7000
7000
7000
7000
7000
7000
7000
7000
7040
70C0
78C0
FFC0
0000
0000
1E00
1C00
ENDCHAR
STARTCHAR 1E37
ENCODING 7735
SWIDTH 308 0
DWIDTH 6 0
BBX 5 18 1 -4
BITMAP
30
F0
70
70
70
70
70
70
70
70
70
70
70
F8
00
00
70
70
ENDCHAR
STARTCHAR 1E3A
ENCODING 7738
SWIDTH 565 0
DWIDTH 11 0
BBX 10 16 1 -3
BITMAP
FC00
7000
7000
7000
7000
7000
7000
7000
7000
7040
70C0
78C0
FFC0
0000
0000
7F80
ENDCHAR
STARTCHAR 1E3B
ENCODING 7739
SWIDTH 308 0
DWIDTH 6 0
BBX 6 17 0 -3
BITMAP
18
78
38
38
38
38
38
38
38
38
38
38
38
7C
00
00
FC
ENDCHAR
STARTCHAR 1E42
ENCODING 7746
SWIDTH 925 0
DWIDTH 18 0
BBX 18 17 0 -4
BITMAP
7C07C0
1C0700
1E0F00
1E0F00
1F0F00
371700
371300
33B380
23A380
21E380
21C380
70C380
F8C7C0
000000
000000
01C000
01C000
ENDCHAR
STARTCHAR 1E43
ENCODING 7747
SWIDTH 925 0
DWIDTH 18 0
BBX 17 13 1 -4
BITMAP
778E00
FFFF00
71C700
71C700
71C700
71C700
71C700
71C700
FBEF80
000000
000000
01C000
01C000
ENDCHAR
STARTCHAR 1E44
ENCODING 7748
SWIDTH 720 0
DWIDTH 14 0
BBX 12 17 1 0
BITMAP
0600
0F00
0600
0000
F0F0
7820
7820
7C20
7E20
6F20
6720
63A0
63E0
61E0
60E0
6060
F060
ENDCHAR
STARTCHAR 1E45
ENCODING 7749
SWIDTH 617 0
DWIDTH 12 0
BBX 11 13 1 0
BITMAP
0E00
0E00
0E00
0000
7780
FFC0
71C0
71C0
71C0
71C0
71C0
71C0
FBE0
ENDCHAR
STARTCHAR 1E46
ENCODING 7750
SWIDTH 720 0
DWIDTH 14 0
BBX 12 17 1 -4
BITMAP
F0F0
7820
7820
7C20
7E20
6F20
6720
63A0
63E0
61E0
60E0
6060
F060
0000
0000
0700
0700
ENDCHAR
STARTCHAR 1E47
ENCODING 7751
SWIDTH 617 0
DWIDTH 12 0
BBX 11 13 1 -4
BITMAP
7780
FFC0
71C0
71C0
71C0
71C0
71C0
71C0
FBE0
0000
0000
0E00
0E00
ENDCHAR
STARTCHAR 1E48
ENCODING 7752
SWIDTH 720 0
DWIDTH 14 0
BBX 12 16 1 -3
BITMAP
F0F0
7820
7820
7C20
7E20
6F20
6720
63A0
63E0
61E0
60E0
6060
F060
0000
0000
1FC0
ENDCHAR
STARTCHAR 1E49
ENCODING 7753
SWIDTH 617 0
DWIDTH 12 0
BBX 11 12 1 -3
BITMAP
7780
FFC0
71C0
71C0
71C0
71C0
71C0
71C0
FBE0
0000
0000
3F80
ENDCHAR
STARTCHAR 1E4C
ENCODING 7756
SWIDTH 720 0
DWIDTH 14 0
BBX 13 21 1 0
BITMAP
0180
0300
0600
0000
0E40
1F80
0100
0000
1FC0
30E0
6070
E070
E038
E038
E038
E038
E038
E070
7070
38E0
1F80
ENDCHAR
STARTCHAR 1E4D
ENCODING 7757
SWIDTH 565 0
DWIDTH 11 0
BBX 9 16 1 0
BITMAP
0E00
0C00
0000
1000
7F00
4E00
0000
3E00
6700
E380
E380
E180
E180
E380
7300
3E00
ENDCHAR
STARTCHAR 1E4E
ENCODING 7758
SWIDTH 720 0
DWIDTH 14 0
BBX 13 20 1 0
BITMAP
19C0
19C0
0000
0E40
1F80
0100
0000
1FC0
30E0
6070
E070
E038
E038
E038
E038
E038
E070
7070
38E0
1F80
ENDCHAR
STARTCHAR 1E4F
ENCODING 7759
SWIDTH 565 0
DWIDTH 11 0
BBX 9 16 1 0
BITMAP
7700
7700
2200
1000
7F00
4E00
0000
3E00
6700
E380
E380
E180
E180
E380
7300
3E00
ENDCHAR
STARTCHAR 1E50
ENCODING 7760
SWIDTH 720 0
DWIDTH 14 0
BBX 13 20 1 0
BITMAP
0C00
0600
0600
0000
1FC0
0000
0000
1FC0
30E0
6070
E070
E038
E038
E038
E038
E038
E070
7070
38E0
1F80
ENDCHAR
STARTCHAR 1E51
ENCODING 7761
SWIDTH 565 0
DWIDTH 11 0
BBX 9 16 1 0
BITMAP
1000
3800
1800
0000
7F00
6000
0000
3E00
6700
E380
E380
E180
E180
E380
7300
3E00
ENDCHAR
STARTCHAR 1E52
ENCODING 7762
SWIDTH 720 0
DWIDTH 14 0
BBX 13 20 1 0
BITMAP
0380
0300
0600
0000
1FC0
0000
0000
1FC0
30E0
6070
E070
E038
E038
E038
E038
E038
E070
7070
38E0
1F80
ENDCHAR
STARTCHAR 1E53
ENCODING 7763
SWIDTH 565 0
DWIDTH 11 0
BBX 9 16 1 0
BITMAP
0600
0C00
0800
0000
7F00
6000
0000
3E00
6700
E380
E380
E180
E180
E380
7300
3E00
ENDCHAR
STARTCHAR 1E5A
ENCODING 7770
SWIDTH 668 0
DWIDTH 13 0
BBX 12 17 1 -4
BITMAP
FF80
71C0
70E0
70E0
70E0
71C0
7F80
7F00
7380
71C0
71C0
70E0
F8F0
0000
0000
0700
0700
ENDCHAR
STARTCHAR 1E5B
ENCODING 7771
SWIDTH 462 0
DWIDTH 9 0
BBX 8 13 1 -4
BITMAP
77
FF
73
72
70
70
70
70
FC
00
00
70
70
ENDCHAR
STARTCHAR 1E5E
ENCODING 7774
SWIDTH 668 0
DWIDTH 13 0
BBX 12 16 1 -3
BITMAP
FF80
71C0
70E0
70E0
70E0
71C0
7F80
7F00
7380
71C0
71C0
70E0
F8F0
0000
0000
1FC0
ENDCHAR
STARTCHAR 1E5F
ENCODING 7775
SWIDTH 462 0
DWIDTH 9 0
BBX 9 12 0 -3
BITMAP
3B80
7F80
3980
3900
3800
3800
3800
3800
7E00
0000
0000
FE00
ENDCHAR
STARTCHAR 1E60
ENCODING 7776
SWIDTH 514 0
DWIDTH 10 0
BBX 9 17 1 0
BITMAP
0C00
1C00
1C00
0000
3F00
6300
E300
E100
F000
7C00
3F00
1F80
0780
C380
C180
E300
7E00
ENDCHAR
STARTCHAR 1E61
ENCODING 7777
SWIDTH 411 0
DWIDTH 8 0
BBX 7 13 1 0
BITMAP
38
38
38
00
7C
CE
C6
F0
7C
1E
8E
CE
FC
ENDCHAR
STARTCHAR 1E62
ENCODING 7778
SWIDTH 514 0
DWIDTH 10 0
BBX 9 17 1 -4
BITMAP
3F00
6300
E300
E100
F000
7C00
3F00
1F80
0780
C380
C180
E300
7E00
0000
0000
1C00
1C00
ENDCHAR
STARTCHAR 1E63
ENCODING 7779
SWIDTH 411 0
DWIDTH 8 0
BBX 7 13 1 -4
BITMAP
7C
CE
C6
F0
7C
1E
8E
CE
FC
00
00
38
38
ENDCHAR
STARTCHAR 1E64
ENCODING 7780
SWIDTH 514 0
DWIDTH 10 0
BBX 9 21 1 0
BITMAP
0C00
1C00
1C00
0000
0E00
0C00
1800
0000
3F00
6300
E300
E100
F000
7C00
3F00
1F80
0780
C380
C180
E300
7E00
ENDCHAR
STARTCHAR 1E65
ENCODING 7781
SWIDTH 411 0
DWIDTH 8 0
BBX 7 16 1 0
BITMAP
38
38
00
1C
18
30
00
7C
CE
C6
F0
7C
1E
8E
CE
FC
ENDCHAR
STARTCHAR 1E66
ENCODING 7782
SWIDTH 514 0
DWIDTH 10 0
BBX 9 21 1 0
BITMAP
1C00
1C00
1C00
0000
7300
3C00
1800
0000
3F00
6300
E300
E100
F000
7C00
3F00
1F80
0780
C380
C180
E300
7E00
ENDCHAR
STARTCHAR 1E67
ENCODING 7783
SWIDTH 411 0
DWIDTH 8 0
BBX 7 17 1 0
BITMAP
10
38
38
00
C4
7C
30
00
7C
CE
C6
F0
7C
1E
8E
CE
FC
ENDCHAR
STARTCHAR 1E68
ENCODING 7784
SWIDTH 514 0
DWIDTH 10 0
BBX 9 21 1 -4
BITMAP
0C00
1C00
1C00
0000
3F00
6300
E300
E100
F000
7C00
3F00
1F80
0780
C380
C180
E300
7E00
0000
0000
1C00
1C00
ENDCHAR
STARTCHAR 1E69
ENCODING 7785
SWIDTH 411 0
DWIDTH 8 0
BBX 7 17 1 -4
BITMAP
38
38
38
00
7C
CE
C6
F0
7C
1E
8E
CE
FC
00
00
38
38
ENDCHAR
STARTCHAR 1E6C
ENCODING 7788
SWIDTH 617 0
DWIDTH 12 0
BBX 11 17 1 -4
BITMAP
FFE0
CE60
8E20
0E00
0E00
0E00
0E00
0E00
0E00
0E00
0E00
0E00
3F80
0000
0000
0E00
0E00
ENDCHAR
STARTCHAR 1E6D
ENCODING 7789
SWIDTH 360 0
DWIDTH 7 0
BBX 7 16 0 -4
BITMAP
10
30
30
FE
FE
30
30
30
30
30
38
3E
00
00
1C
1C
ENDCHAR
STARTCHAR 1E6E
ENCODING 7790
SWIDTH 617 0
DWIDTH 12 0
BBX 11 16 1 -3
BITMAP
FFE0
CE60
8E20
0E00
0E00
0E00
0E00
0E00
0E00
0E00
0E00
0E00
3F80
0000
0000
3F80
ENDCHAR
STARTCHAR 1E6F
ENCODING 7791
SWIDTH 360 0
DWIDTH 7 0
BBX 8 15 0 -3
BITMAP
10
30
30
FE
FE
30
30
30
30
30
38
3E
00
00
7F
ENDCHAR
STARTCHAR 1E78
ENCODING 7800
SWIDTH 668 0
DWIDTH 13 0
BBX 12 21 1 0
BITMAP
0180
0300
0200
0000
0E40
1FC0
0100
0000
F8F0
7060
7040
7040
7040
7040
7040
7040
7040
7040
7040
38C0
1F80
ENDCHAR
STARTCHAR 1E79
ENCODING 7801
SWIDTH 565 0
DWIDTH 11 0
BBX 11 18 0 0
BITMAP
0300
0300
0600
0000
0000
1C80
3F80
0000
0000
73C0
F3C0
71C0
31C0
31C0
31C0
31C0
39E0
3FE0
ENDCHAR
STARTCHAR 1E7A
ENCODING 7802
SWIDTH 668 0
DWIDTH 13 0
BBX 12 20 1 0
BITMAP
0880
1DC0
1DC0
0000
1FC0
0000
0000
F8F0
7060
7040
7040
7040
7040
7040
7040
7040
7040
7040
38C0
1F80
ENDCHAR
STARTCHAR 1E7B
ENCODING 7803
SWIDTH 565 0
DWIDTH 11 0
BBX 11 15 0 0
BITMAP
3980
3980
0000
3F80
3000
0000
73C0
F3C0
71C0
31C0
31C0
31C0
31C0
39E0
3FE0
ENDCHAR
STARTCHAR 1E80
ENCODING 7808
SWIDTH 977 0
DWIDTH 19 0
BBX 19 17 0 0
BITMAP
00C000
006000
002000
000000
FC21E0
7870C0
3870C0
387080
38B880
1CB980
1DBD00
1D1D00
0F1D00
0F0E00
0E0E00
060E00
060600
ENDCHAR
STARTCHAR 1E81
ENCODING 7809
SWIDTH 771 0
DWIDTH 15 0
BBX 15 14 0 0
BITMAP
0300
0380
0180
0080
0000
F89E
71CC
39CC
39E8
3AE8
1AE8
1E70
1C70
0C30
ENDCHAR
STARTCHAR 1E82
ENCODING 7810
SWIDTH 977 0
DWIDTH 19 0
BBX 19 17 0 0
BITMAP
003800
003000
006000
000000
FC21E0
7870C0
3870C0
387080
38B880
1CB980
1DBD00
1D1D00
0F1D00
0F0E00
0E0E00
060E00
060600
ENDCHAR
STARTCHAR 1E83
ENCODING 7811
SWIDTH 771 0
DWIDTH 15 0
BBX 15 14 0 0
BITMAP
0060
00C0
00C0
0080
0000
F89E
71CC
39CC
39E8
3AE8
1AE8
1E70
1C70
0C30
ENDCHAR
STARTCHAR 1E84
ENCODING 7812
SWIDTH 977 0
DWIDTH 19 0
BBX 19 17 0 0
BITMAP
018C00
01DC00
019C00
000000
FC21E0
7870C0
3870C0
387080
38B880
1CB980
1DBD00
1D1D00
0F1D00
0F0E00
0E0E00
060E00
060600
ENDCHAR
STARTCHAR 1E85
ENCODING 7813
SWIDTH 771 0
DWIDTH 15 0
BBX 15 13 0 0
BITMAP
0630
0770
0670
0000
F89E
71CC
39CC
39E8
3AE8
1AE8
1E70
1C70
0C30
ENDCHAR
STARTCHAR 1E8E
ENCODING 7822
SWIDTH 617 0
DWIDTH 12 0
BBX 12 17 0 0
BITMAP
0300
0780
0300
0000
FCF0
7860
3840
1C40
1C80
1E80
0F00
0F00
0700
0700
0700
0F00
1FC0
ENDCHAR
STARTCHAR 1E8F
ENCODING 7823
SWIDTH 514 0
DWIDTH 10 0
BBX 11 18 0 -5
BITMAP
0700
0700
0600
0000
FDE0
78C0
3880
3880
1D00
1D00
0F00
0E00
0E00
0400
0400
5800
7800
7000
ENDCHAR
STARTCHAR 1E90
ENCODING 7824
SWIDTH 565 0
DWIDTH 11 0
BBX 10 17 1 0
BITMAP
0E00
1F00
2100
0000
7FC0
6380
C780
C700
0F00
0E00
1E00
1C00
3800
7880
70C0
F1C0
FF80
ENDCHAR
STARTCHAR 1E91
ENCODING 7825
SWIDTH 462 0
DWIDTH 9 0
BBX 8 14 1 0
BITMAP
18
3C
6E
43
00
FF
CF
CE
1C
3C
38
71
F3
FF
ENDCHAR
STARTCHAR 1E92
ENCODING 7826
SWIDTH 565 0
DWIDTH 11 0
BBX 10 17 1 -4
BITMAP
7FC0
6380
C780
C700
0F00
0E00
1E00
1C00
3800
7880
70C0
F1C0
FF80
0000
0000
1C00
1C00
ENDCHAR
STARTCHAR 1E93
ENCODING 7827
SWIDTH 462 0
DWIDTH 9 0
BBX 8 13 1 -4
BITMAP
FF
CF
CE
1C
3C
38
71
F3
FF
00
00
3C
38
ENDCHAR
STARTCHAR 1E97
ENCODING 7831
SWIDTH 360 0
DWIDTH 7 0
BBX 7 15 0 0
BITMAP
E6
EE
C6
10
30
30
FE
FE
30
30
30
30
30
38
3E
ENDCHAR
STARTCHAR 1E9E
ENCODING 7838
SWIDTH 720 0
DWIDTH 14 0
BBX 13 13 1 0
BITMAP
1FF0
38F0
70E0
71E0
71C0
73C0
71F0
7070
7038
7638
7638
7670
F7E0
ENDCHAR
STARTCHAR 1EA0
ENCODING 7840
SWIDTH 668 0
DWIDTH 13 0
BBX 13 17 0 -4
BITMAP
0300
0700
0700
0780
0B80
09C0
19C0
10E0
1FE0
20F0
2070
6078
F0F8
0000
0000
0F00
0700
ENDCHAR
STARTCHAR 1EA1
ENCODING 7841
SWIDTH 514 0
DWIDTH 10 0
BBX 9 13 1 -4
BITMAP
1E00
6F00
E700
6700
1F00
6700
E700
E780
7F80
0000
0000
1C00
1C00
ENDCHAR
STARTCHAR 1EA2
ENCODING 7842
SWIDTH 668 0
DWIDTH 13 0
BBX 13 17 0 0
BITMAP
0780
0500
0200
0000
0300
0700
0700
0780
0B80
09C0
19C0
10E0
1FE0
20F0
2070
6078
F0F8
ENDCHAR
STARTCHAR 1EA3
ENCODING 7843
SWIDTH 514 0
DWIDTH 10 0
BBX 9 14 1 0
BITMAP
1C00
2C00
1C00
1800
0000
1E00
6F00
E700
6700
1F00
6700
E700
E780
7F80
ENDCHAR
STARTCHAR 1EA4
ENCODING 7844
SWIDTH 668 0
DWIDTH 13 0
BBX 13 19 0 0
BITMAP
0030
0060
0700
0F80
08C0
0000
0300
0700
0700
0780
0B80
09C0
19C0
10E0
1FE0
20F0
2070
6078
F0F8
ENDCHAR
STARTCHAR 1EA5
ENCODING 7845
SWIDTH 514 0
DWIDTH 10 0
BBX 9 15 1 0
BITMAP
0180
0100
1800
3C00
6600
0000
1E00
6F00
E700
6700
1F00
6700
E700
E780
7F80
ENDCHAR
STARTCHAR 1EA6
ENCODING 7846
SWIDTH 668 0
DWIDTH 13 0
BBX 13 19 0 0
BITMAP
00C0
00C0
0700
0F80
08C0
0000
0300
0700
0700
0780
0B80
09C0
19C0
10E0
1FE0
20F0
2070
6078
F0F8
ENDCHAR
STARTCHAR 1EA7
ENCODING 7847
SWIDTH 514 0
DWIDTH 10 0
BBX 9 15 1 0
BITMAP
0600
0200
1B00
3C00
6600
0000
1E00
6F00
E700
6700
1F00
6700
E700
E780
7F80
ENDCHAR
STARTCHAR 1EA8
ENCODING 7848
SWIDTH 668 0
DWIDTH 13 0
BBX 13 20 0 0
BITMAP
00E0
00A0
0040
0700
0F80
08C0
0000
0300
0700
0700
0780
0B80
09C0
19C0
10E0
1FE0
20F0
2070
6078
F0F8
ENDCHAR
STARTCHAR 1EA9
ENCODING 7849
SWIDTH 514 0
DWIDTH 10 0
BBX 9 16 1 0
BITMAP
0780
0580
0300
1800
3C00
6600
0000
1E00
6F00
E700
6700
1F00
6700
E700
E780
7F80
ENDCHAR
STARTCHAR 1EAA
ENCODING 7850
SWIDTH 668 0
DWIDTH 13 0
BBX 13 21 0 0
BITMAP
0400
1FC0
1380
0000
0700
0F80
08C0
0000
0300
0700
0700
0780
0B80
09C0
19C0
10E0
1FE0
20F0
2070
6078
F0F8
ENDCHAR
STARTCHAR 1EAB
ENCODING 7851
SWIDTH 514 0
DWIDTH 10 0
BBX 9 16 1 0
BITMAP
7E00
DE00
0000
1800
3C00
6600
0000
1E00
6F00
E700
6700
1F00
6700
E700
E780
7F80
ENDCHAR
STARTCHAR 1EAC
ENCODING 7852
SWIDTH 668 0
DWIDTH 13 0
BBX 13 21 0 -4
BITMAP
0700
0F80
08C0
0000
0300
0700
0700
0780
0B80
09C0
19C0
10E0
1FE0
20F0
2070
6078
F0F8
0000
0000
0F00
0700
ENDCHAR
STARTCHAR 1EAD
ENCODING 7853
SWIDTH 514 0
DWIDTH 10 0
BBX 9 18 1 -4
BITMAP
1800
3C00
6E00
4300
0000
1E00
6F00
E700
6700
1F00
6700
E700
E780
7F80
0000
0000
1C00
1C00
ENDCHAR
STARTCHAR 1EAE
ENCODING 7854
SWIDTH 668 0
DWIDTH 13 0
BBX 13 20 0 0
BITMAP
0180
0300
0300
1840
0FC0
0780
0000
0300
0700
0700
0780
0B80
09C0
19C0
10E0
1FE0
20F0
2070
6078
F0F8
ENDCHAR
STARTCHAR 1EAF
ENCODING 7855
SWIDTH 514 0
DWIDTH 10 0
BBX 9 16 1 0
BITMAP
0400
0C00
1800
4200
7E00
3C00
0000
1E00
6F00
E700
6700
1F00
6700
E700
E780
7F80
ENDCHAR
STARTCHAR 1EB0
ENCODING 7856
SWIDTH 668 0
DWIDTH 13 0
BBX 13 20 0 0
BITMAP
0600
0600
0300
1840
0FC0
0780
0000
0300
0700
0700
0780
0B80
09C0
19C0
10E0
1FE0
20F0
2070
6078
F0F8
ENDCHAR
STARTCHAR 1EB1
ENCODING 7857
SWIDTH 514 0
DWIDTH 10 0
BBX 9 15 1 0
BITMAP
3000
1800
4200
7E00
3C00
0000
1E00
6F00
E700
6700
1F00
6700
E700
E780
7F80
ENDCHAR
STARTCHAR 1EB2
ENCODING 7858
SWIDTH 668 0
DWIDTH 13 0
BBX 13 20 0 0
BITMAP
0780
0580
0300
1840
0FC0
0780
0000
0300
0700
0700
0780
0B80
09C0
19C0
10E0
1FE0
20F0
2070
6078
F0F8
ENDCHAR
STARTCHAR 1EB3
ENCODING 7859
SWIDTH 514 0
DWIDTH 10 0
BBX 9 16 1 0
BITMAP
3C00
2C00
1800
4200
7E00
3C00
0000
1E00
6F00
E700
6700
1F00
6700
E700
E780
7F80
ENDCHAR
STARTCHAR 1EB4
ENCODING 7860
SWIDTH 668 0
DWIDTH 13 0
BBX 13 20 0 0
BITMAP
0E40
1FC0
0000
1840
0FC0
0780
0000
0300
0700
0700
0780
0B80
09C0
19C0
10E0
1FE0
20F0
2070
6078
F0F8
ENDCHAR
STARTCHAR 1EB5
ENCODING 7861
SWIDTH 514 0
DWIDTH 10 0
BBX 9 16 1 0
BITMAP
3000
FE00
0C00
4200
7E00
3C00
0000
1E00
6F00
E700
6700
1F00
6700
E700
E780
7F80
ENDCHAR
STARTCHAR 1EB6
ENCODING 7862
SWIDTH 668 0
DWIDTH 13 0
BBX 13 21 0 -4
BITMAP
1840
0FC0
0780
0000
0300
0700
0700
0780
0B80
09C0
19C0
10E0
1FE0
20F0
2070
6078
F0F8
0000
0000
0F00
0700
ENDCHAR
STARTCHAR 1EB7
ENCODING 7863
SWIDTH 514 0
DWIDTH 10 0
BBX 9 18 1 -4
BITMAP
C300
C200
7E00
3C00
0000
1E00
6F00
E700
6700
1F00
6700
E700
E780
7F80
0000
0000
1C00
1C00
ENDCHAR
STARTCHAR 1EB8
ENCODING 7864
SWIDTH 617 0
DWIDTH 12 0
BBX 10 17 1 -4
BITMAP
FFC0
70C0
70C0
7000
7100
7300
7F00
7300
7100
7040
7040
78C0
FFC0
0000
0000
0E00
0E00
ENDCHAR
STARTCHAR 1EB9
ENCODING 7865
SWIDTH 462 0
DWIDTH 9 0
BBX 8 13 1 -4
BITMAP
3E
67
E7
E3
FF
E0
E0
73
3E
00
00
1C
1C
ENDCHAR
STARTCHAR 1EBA
ENCODING 7866
SWIDTH 617 0
DWIDTH 12 0
BBX 10 17 1 0
BITMAP
1E00
1600
0800
0000
FFC0
70C0
70C0
7000
7100
7300
7F00
7300
7100
7040
7040
78C0
FFC0
ENDCHAR
STARTCHAR 1EBB
ENCODING 7867
SWIDTH 462 0
DWIDTH 9 0
BBX 8 14 1 0
BITMAP
1C
24
0C
18
00
3E
67
E7
E3
FF
E0
E0
73
3E
ENDCHAR
STARTCHAR 1EBC
ENCODING 7868
SWIDTH 617 0
DWIDTH 12 0
BBX 10 17 1 0
BITMAP
3900
7F00
0600
0000
FFC0
70C0
70C0
7000
7100
7300
7F00
7300
7100
7040
7040
78C0
FFC0
ENDCHAR
STARTCHAR 1EBD
ENCODING 7869
SWIDTH 462 0
DWIDTH 9 0
BBX 8 13 1 0
BITMAP
7B
DE
00
00
3E
67
E7
E3
FF
E0
E0
73
3E
ENDCHAR
STARTCHAR 1EBE
ENCODING 7870
SWIDTH 617 0
DWIDTH 12 0
BBX 10 19 1 0
BITMAP
00C0
0180
0C00
3E00
2300
0000
FFC0
70C0
70C0
7000
7100
7300
7F00
7300
7100
7040
7040
78C0
FFC0
ENDCHAR
STARTCHAR 1EBF
ENCODING 7871
SWIDTH 462 0
DWIDTH 9 0
BBX 9 15 1 0
BITMAP
0180
0100
1900
3C00
6600
0000
3E00
6700
E700
E300
FF00
E000
E000
7300
3E00
ENDCHAR
STARTCHAR 1EC0
ENCODING 7872
SWIDTH 617 0
DWIDTH 12 0
BBX 10 19 1 0
BITMAP
0300
0100
0C00
3E00
2300
0000
FFC0
70C0
70C0
7000
7100
7300
7F00
7300
7100
7040
7040
78C0
FFC0
ENDCHAR
STARTCHAR 1EC1
ENCODING 7873
SWIDTH 462 0
DWIDTH 9 0
BBX 8 15 1 0
BITMAP
06
03
1B
3C
66
00
3E
67
E7
E3
FF
E0
E0
73
3E
ENDCHAR
STARTCHAR 1EC2
ENCODING 7874
SWIDTH 617 0
DWIDTH 12 0
BBX 10 20 1 0
BITMAP
03C0
02C0
0100
0C00
3E00
2300
0000
FFC0
70C0
70C0
7000
7100
7300
7F00
7300
7100
7040
7040
78C0
FFC0
ENDCHAR
STARTCHAR 1EC3
ENCODING 7875
SWIDTH 462 0
DWIDTH 9 0
BBX 9 16 1 0
BITMAP
0780
0580
0300
1800
3C00
6600
0000
3E00
6700
E700
E300
FF00
E000
E000
7300
3E00
ENDCHAR
STARTCHAR 1EC4
ENCODING 7876
SWIDTH 617 0
DWIDTH 12 0
BBX 10 21 1 0
BITMAP
1000
7F00
4E00
0000
0C00
3E00
2300
0000
FFC0
70C0
70C0
7000
7100
7300
7F00
7300
7100
7040
7040
78C0
FFC0
ENDCHAR
STARTCHAR 1EC5
ENCODING 7877
SWIDTH 462 0
DWIDTH 9 0
BBX 8 16 1 0
BITMAP
7F
5E
00
18
3C
66
00
3E
67
E7
E3
FF
E0
E0
73
3E
ENDCHAR
STARTCHAR 1EC6
ENCODING 7878
SWIDTH 617 0
DWIDTH 12 0
BBX 10 21 1 -4
BITMAP
0C00
3E00
2300
0000
FFC0
70C0
70C0
7000
7100
7300
7F00
7300
7100
7040
7040
78C0
FFC0
0000
0000
0E00
0E00
ENDCHAR
STARTCHAR 1EC7
ENCODING 7879
SWIDTH 462 0
DWIDTH 9 0
BBX 8 18 1 -4
BITMAP
08
1C
76
43
00
3E
67
E7
E3
FF
E0
E0
73
3E
00
00
1C
1C
ENDCHAR
STARTCHAR 1EC8
ENCODING 7880
SWIDTH 360 0
DWIDTH 7 0
BBX 6 17 1 0
BITMAP
78
50
20
00
FC
70
70
70
70
70
70
70
70
70
70
70
FC
ENDCHAR
STARTCHAR 1EC9
ENCODING 7881
SWIDTH 308 0
DWIDTH 6 0
BBX 5 14 1 0
BITMAP
70
D8
30
20
00
70
F0
70
70
70
70
70
70
F8
ENDCHAR
STARTCHAR 1ECA
ENCODING 7882
SWIDTH 360 0
DWIDTH 7 0
BBX 6 17 1 -4
BITMAP
FC
70
70
70
70
70
70
70
70
70
70
70
FC
00
00
70
70
ENDCHAR
STARTCHAR 1ECB
ENCODING 7883
SWIDTH 308 0
DWIDTH 6 0
BBX 5 17 1 -4
BITMAP
70
70
00
00
70
F0
70
70
70
70
70
70
F8
00
00
70
70
ENDCHAR
STARTCHAR 1ECC
ENCODING 7884
SWIDTH 720 0
DWIDTH 14 0
BBX 13 17 1 -4
BITMAP
1FC0
30E0
6070
E070
E038
E038
E038
E038
E038
E070
7070
38E0
1F80
0000
0000
0700
0700
ENDCHAR
STARTCHAR 1ECD
ENCODING 7885
SWIDTH 565 0
DWIDTH 11 0
BBX 9 13 1 -4
BITMAP
3E00
6700
E380
E380
E180
E180
E380
7300
3E00
0000
0000
1C00
1C00
ENDCHAR
STARTCHAR 1ECE
ENCODING 7886
SWIDTH 720 0
DWIDTH 14 0
BBX 13 17 1 0
BITMAP
0F00
0300
0200
0000
1FC0
30E0
6070
E070
E038
E038
E038
E038
E038
E070
7070
38E0
1F80
ENDCHAR
STARTCHAR 1ECF
ENCODING 7887
SWIDTH 565 0
DWIDTH 11 0
BBX 9 14 1 0
BITMAP
1C00
3600
0C00
0800
0000
3E00
6700
E380
E380
E180
E180
E380
7300
3E00
ENDCHAR
STARTCHAR 1ED0
ENCODING 7888
SWIDTH 720 0
DWIDTH 14 0
BBX 13 19 1 0
BITMAP
0060
0040
0700
0F80
1080
0000
1FC0
30E0
6070
E070
E038
E038
E038
E038
E038
E070
7070
38E0
1F80
ENDCHAR
STARTCHAR 1ED1
ENCODING 7889
SWIDTH 565 0
DWIDTH 11 0
BBX 10 15 1 0
BITMAP
01C0
0180
0D00
3E00
6300
0000
3E00
6700
E380
E380
E180
E180
E380
7300
3E00
ENDCHAR
STARTCHAR 1ED2
ENCODING 7890
SWIDTH 720 0
DWIDTH 14 0
BBX 13 19 1 0
BITMAP
0180
00C0
0700
0F80
1080
0000
1FC0
30E0
6070
E070
E038
E038
E038
E038
E038
E070
7070
38E0
1F80
ENDCHAR
STARTCHAR 1ED3
ENCODING 7891
SWIDTH 565 0
DWIDTH 11 0
BBX 9 15 1 0
BITMAP
0600
0300
0D00
3E00
6300
0000
3E00
6700
E380
E380
E180
E180
E380
7300
3E00
ENDCHAR
STARTCHAR 1ED4
ENCODING 7892
SWIDTH 720 0
DWIDTH 14 0
BBX 13 20 1 0
BITMAP
01E0
0160
00C0
0700
0F80
1080
0000
1FC0
30E0
6070
E070
E038
E038
E038
E038
E038
E070
7070
38E0
1F80
ENDCHAR
STARTCHAR 1ED5
ENCODING 7893
SWIDTH 565 0
DWIDTH 11 0
BBX 9 16 1 0
BITMAP
0780
0680
0100
0C00
3E00
6300
0000
3E00
6700
E380
E380
E180
E180
E380
7300
3E00
ENDCHAR
STARTCHAR 1ED6
ENCODING 7894
SWIDTH 720 0
DWIDTH 14 0
BBX 13 21 1 0
BITMAP
0400
1FC0
0380
0000
0700
0F80
1080
0000
1FC0
30E0
6070
E070
E038
E038
E038
E038
E038
E070
7070
38E0
1F80
ENDCHAR
STARTCHAR 1ED7
ENCODING 7895
SWIDTH 565 0
DWIDTH 11 0
BBX 9 16 1 0
BITMAP
7F00
4E00
0000
0C00
3E00
6300
0000
3E00
6700
E380
E380
E180
E180
E380
7300
3E00
ENDCHAR
STARTCHAR 1ED8
ENCODING 7896
SWIDTH 720 0
DWIDTH 14 0
BBX 13 21 1 -4
BITMAP
0700
0F80
1080
0000
1FC0
30E0
6070
E070
E038
E038
E038
E038
E038
E070
7070
38E0
1F80
0000
0000
0700
0700
ENDCHAR
STARTCHAR 1ED9
ENCODING 7897
SWIDTH 565 0
DWIDTH 11 0
BBX 9 18 1 -4
BITMAP
0C00
1E00
3700
4100
0000
3E00
6700
E380
E380
E180
E180
E380
7300
3E00
0000
0000
1C00
1C00
ENDCHAR
STARTCHAR 1EDA
ENCODING 7898
SWIDTH 720 0
DWIDTH 14 0
BBX 13 17 1 0
BITMAP
0300
0310
0618
0030
1FE0
30E0
6070
E070
E038
E038
E038
E038
E038
E070
7070
38E0
1F80
ENDCHAR
STARTCHAR 1EDB
ENCODING 7899
SWIDTH 565 0
DWIDTH 11 0
BBX 10 14 1 0
BITMAP
0600
0C00
0C00
08C0
00C0
3F80
6700
E380
E380
E180
E180
E380
7300
3E00
ENDCHAR
STARTCHAR 1EDC
ENCODING 7900
SWIDTH 720 0
DWIDTH 14 0
BBX 13 17 1 0
BITMAP
0C00
0610
0218
0030
1FE0
30E0
6070
E070
E038
E038
E038
E038
E038
E070
7070
38E0
1F80
ENDCHAR
STARTCHAR 1EDD
ENCODING 7901
SWIDTH 565 0
DWIDTH 11 0
BBX 10 14 1 0
BITMAP
3000
1800
1800
08C0
00C0
3F80
6700
E380
E380
E180
E180
E380
7300
3E00
ENDCHAR
STARTCHAR 1EDE
ENCODING 7902
SWIDTH 720 0
DWIDTH 14 0
BBX 13 17 1 0
BITMAP
0F00
0310
0218
0030
1FE0
30E0
6070
E070
E038
E038
E038
E038
E038
E070
7070
38E0
1F80
ENDCHAR
STARTCHAR 1EDF
ENCODING 7903
SWIDTH 565 0
DWIDTH 11 0
BBX 10 14 1 0
BITMAP
1C00
3600
0C00
08C0
00C0
3F80
6700
E380
E380
E180
E180
E380
7300
3E00
ENDCHAR
STARTCHAR 1EE0
ENCODING 7904
SWIDTH 720 0
DWIDTH 14 0
BBX 13 17 1 0
BITMAP
0E40
1F90
0118
0030
1FE0
30E0
6070
E070
E038
E038
E038
E038
E038
E070
7070
38E0
1F80
ENDCHAR
STARTCHAR 1EE1
ENCODING 7905
SWIDTH 565 0
DWIDTH 11 0
BBX 10 13 1 0
BITMAP
3900
7E00
00C0
00C0
3F80
6700
E380
E380
E180
E180
E380
7300
3E00
ENDCHAR
STARTCHAR 1EE2
ENCODING 7906
SWIDTH 720 0
DWIDTH 14 0
BBX 13 20 1 -4
BITMAP
0010
0018
0030
1FE0
30E0
6070
E070
E038
E038
E038
E038
E038
E070
7070
38E0
1F80
0000
0000
0700
0700
ENDCHAR
STARTCHAR 1EE3
ENCODING 7907
SWIDTH 565 0
DWIDTH 11 0
BBX 10 15 1 -4
BITMAP
00C0
00C0
3F80
6700
E380
E380
E180
E180
E380
7300
3E00
0000
0000
1C00
1C00
ENDCHAR
STARTCHAR 1EE4
ENCODING 7908
SWIDTH 668 0
DWIDTH 13 0
BBX 12 17 1 -4
BITMAP
F8F0
7060
7040
7040
7040
7040
7040
7040
7040
7040
7040
38C0
1F80
0000
0000
0E00
0E00
ENDCHAR
STARTCHAR 1EE5
ENCODING 7909
SWIDTH 565 0
DWIDTH 11 0
BBX 11 13 0 -4
BITMAP
73C0
F3C0
71C0
31C0
31C0
31C0
31C0
39E0
3FE0
0000
0000
0E00
0E00
ENDCHAR
STARTCHAR 1EE6
ENCODING 7910
SWIDTH 668 0
DWIDTH 13 0
BBX 12 17 1 0
BITMAP
0F00
0700
0200
0000
F8F0
7060
7040
7040
7040
7040
7040
7040
7040
7040
7040
38C0
1F80
ENDCHAR
STARTCHAR 1EE7
ENCODING 7911
SWIDTH 565 0
DWIDTH 11 0
BBX 11 14 0 0
BITMAP
0E00
0B00
0600
0600
0000
73C0
F3C0
71C0
31C0
31C0
31C0
31C0
39E0
3FE0
ENDCHAR
STARTCHAR 1EE8
ENCODING 7912
SWIDTH 720 0
DWIDTH 14 0
BBX 13 17 1 0
BITMAP
0380
0308
0608
0018
F8F8
7060
7040
7040
7040
7040
7040
7040
7040
7040
7040
38C0
1F80
ENDCHAR
STARTCHAR 1EE9
ENCODING 7913
SWIDTH 617 0
DWIDTH 12 0
BBX 12 14 0 0
BITMAP
0380
0300
0600
0430
0030
73E0
F3C0
71C0
31C0
31C0
31C0
31C0
39E0
3FE0
ENDCHAR
STARTCHAR 1EEA
ENCODING 7914
SWIDTH 720 0
DWIDTH 14 0
BBX 13 17 1 0
BITMAP
0C00
0608
0308
0018
F8F8
7060
7040
7040
7040
7040
7040
7040
7040
7040
7040
38C0
1F80
ENDCHAR
STARTCHAR 1EEB
ENCODING 7915
SWIDTH 617 0
DWIDTH 12 0
BBX 12 14 0 0
BITMAP
1C00
0C00
0400
0630
0030
73E0
F3C0
71C0
31C0
31C0
31C0
31C0
39E0
3FE0
ENDCHAR
STARTCHAR 1EEC
ENCODING 7916
SWIDTH 720 0
DWIDTH 14 0
BBX 13 17 1 0
BITMAP
0F00
0708
0208
0018
F8F8
7060
7040
7040
7040
7040
7040
7040
7040
7040
7040
38C0
1F80
ENDCHAR
STARTCHAR 1EED
ENCODING 7917
SWIDTH 617 0
DWIDTH 12 0
BBX 12 14 0 0
BITMAP
0E00
0B00
0600
0630
0030
73E0
F3C0
71C0
31C0
31C0
31C0
31C0
39E0
3FE0
ENDCHAR
STARTCHAR 1EEE
ENCODING 7918
SWIDTH 720 0
DWIDTH 14 0
BBX 13 17 1 0
BITMAP
0E40
1FC8
0108
0018
F8F8
7060
7040
7040
7040
7040
7040
7040
7040
7040
7040
38C0
1F80
ENDCHAR
STARTCHAR 1EEF
ENCODING 7919
SWIDTH 617 0
DWIDTH 12 0
BBX 12 13 0 0
BITMAP
1C80
3F80
0030
0030
73E0
F3C0
71C0
31C0
31C0
31C0
31C0
39E0
3FE0
ENDCHAR
STARTCHAR 1EF0
ENCODING 7920
SWIDTH 720 0
DWIDTH 14 0
BBX 13 20 1 -4
BITMAP
0008
0008
0018
F8F8
7060
7040
7040
7040
7040
7040
7040
7040
7040
7040
38C0
1F80
0000
0000
0E00
0E00
ENDCHAR
STARTCHAR 1EF1
ENCODING 7921
SWIDTH 617 0
DWIDTH 12 0
BBX 12 15 0 -4
BITMAP
0030
0030
73E0
F3C0
71C0
31C0
31C0
31C0
31C0
39E0
3FE0
0000
0000
0E00
0E00
ENDCHAR
STARTCHAR 1EF2
ENCODING 7922
SWIDTH 617 0
DWIDTH 12 0
BBX 12 17 0 0
BITMAP
0600
0300
0300
0000
FCF0
7860
3840
1C40
1C80
1E80
0F00
0F00
0700
0700
0700
0F00
1FC0
ENDCHAR
STARTCHAR 1EF3
ENCODING 7923
SWIDTH 514 0
DWIDTH 10 0
BBX 11 19 0 -5
BITMAP
1C00
0C00
0600
0200
0000
FDE0
78C0
3880
3880
1D00
1D00
0F00
0E00
0E00
0400
0400
5800
7800
7000
ENDCHAR
STARTCHAR 1EF4
ENCODING 7924
SWIDTH 617 0
DWIDTH 12 0
BBX 12 17 0 -4
BITMAP
FCF0
7860
3840
1C40
1C80
1E80
0F00
0F00
0700
0700
0700
0F00
1FC0
0000
0000
0700
0700
ENDCHAR
STARTCHAR 1EF5
ENCODING 7925
SWIDTH 514 0
DWIDTH 10 0
BBX 11 14 0 -5
BITMAP
FDE0
78C0
3880
3880
1D00
1D00
0F00
0E00
0E00
0400
0400
5BC0
7B80
7000
ENDCHAR
STARTCHAR 1EF6
ENCODING 7926
SWIDTH 617 0
DWIDTH 12 0
BBX 12 17 0 0
BITMAP
0780
0580
0300
0000
FCF0
7860
3840
1C40
1C80
1E80
0F00
0F00
0700
0700
0700
0F00
1FC0
ENDCHAR
STARTCHAR 1EF7
ENCODING 7927
SWIDTH 514 0
DWIDTH 10 0
BBX 11 19 0 -5
BITMAP
0700
0980
0300
0600
0000
FDE0
78C0
3880
3880
1D00
1D00
0F00
0E00
0E00
0400
0400
5800
7800
7000
ENDCHAR
STARTCHAR 1EF8
ENCODING 7928
SWIDTH 617 0
DWIDTH 12 0
BBX 12 17 0 0
BITMAP
0600
1FC0
0180
0000
FCF0
7860
3840
1C40
1C80
1E80
0F00
0F00
0700
0700
0700
0F00
1FC0
ENDCHAR
STARTCHAR 1EF9
ENCODING 7929
SWIDTH 514 0
DWIDTH 10 0
BBX 11 18 0 -5
BITMAP
1E40
1780
0000
0000
FDE0
78C0
3880
3880
1D00
1D00
0F00
0E00
0E00
0400
0400
5800
7800
7000
ENDCHAR
STARTCHAR 2007
ENCODING 8199
SWIDTH 514 0
DWIDTH 10 0
BBX 0 0 0 0
BITMAP
ENDCHAR
STARTCHAR 2008
ENCODING 8200
SWIDTH 154 0
DWIDTH 3 0
BBX 0 0 0 0
BITMAP
ENDCHAR
STARTCHAR 2009
ENCODING 8201
SWIDTH 51 0
DWIDTH 1 0
BBX 0 0 0 0
BITMAP
ENDCHAR
STARTCHAR 200A
ENCODING 8202
SWIDTH 0 0
DWIDTH 0 0
BBX 0 0 0 0
BITMAP
ENDCHAR
STARTCHAR 200B
ENCODING 8203
SWIDTH 0 0
DWIDTH 0 0
BBX 0 0 0 0
BITMAP
ENDCHAR
STARTCHAR 2010
ENCODING 8208
SWIDTH 411 0
DWIDTH 8 0
BBX 6 2 1 4
BITMAP
FC
FC
ENDCHAR
STARTCHAR 2011
ENCODING 8209
SWIDTH 411 0
DWIDTH 8 0
BBX 6 2 1 4
BITMAP
FC
FC
ENDCHAR
STARTCHAR 2012
ENCODING 8210
SWIDTH 514 0
DWIDTH 10 0
BBX 9 2 1 4
BITMAP
FF80
FF80
ENDCHAR
STARTCHAR 2013
ENCODING 8211
SWIDTH 565 0
DWIDTH 11 0
BBX 9 2 1 4
BITMAP
FF80
FF80
ENDCHAR
STARTCHAR 2014
ENCODING 8212
SWIDTH 977 0
DWIDTH 19 0
BBX 18 2 1 4
BITMAP
FFFFC0
FFFFC0
ENDCHAR
STARTCHAR 2015
ENCODING 8213
SWIDTH 977 0
DWIDTH 19 0
BBX 18 2 1 4
BITMAP
FFFFC0
FFFFC0
ENDCHAR
STARTCHAR 2016
ENCODING 8214
SWIDTH 308 0
DWIDTH 6 0
BBX 5 19 1 -5
BITMAP
D8
D8
D8
D8
D8
98
98
98
98
98
98
98
98
D8
D8
D8
D8
D8
D8
ENDCHAR
STARTCHAR 2018
ENCODING 8216
SWIDTH 257 0
DWIDTH 5 0
BBX 3 5 1 8
BITMAP
60
40
C0
E0
E0
ENDCHAR
STARTCHAR 2019
ENCODING 8217
SWIDTH 257 0
DWIDTH 5 0
BBX 3 5 1 8
BITMAP
60
E0
60
60
40
ENDCHAR
STARTCHAR 201A
ENCODING 8218
SWIDTH 257 0
DWIDTH 5 0
BBX 3 6 1 -3
BITMAP
20
E0
E0
60
60
40
ENDCHAR
STARTCHAR 201B
ENCODING 8219
SWIDTH 257 0
DWIDTH 5 0
BBX 3 5 1 8
BITMAP
E0
E0
E0
40
60
ENDCHAR
STARTCHAR 201C
ENCODING 8220
SWIDTH 411 0
DWIDTH 8 0
BBX 7 5 1 8
BITMAP
64
4C
CC
EE
EE
ENDCHAR
STARTCHAR 201D
ENCODING 8221
SWIDTH 411 0
DWIDTH 8 0
BBX 7 5 1 9
BITMAP
6E
EE
6E
64
4C
ENDCHAR
STARTCHAR 201E
ENCODING 8222
SWIDTH 411 0
DWIDTH 8 0
BBX 7 5 1 -2
BITMAP
EE
EE
66
64
48
ENDCHAR
STARTCHAR 201F
ENCODING 8223
SWIDTH 411 0
DWIDTH 8 0
BBX 7 5 1 9
BITMAP
EC
EE
CC
4C
64
ENDCHAR
STARTCHAR 2020
ENCODING 8224
SWIDTH 462 0
DWIDTH 9 0
BBX 8 18 1 -5
BITMAP
18
18
18
18
FF
FE
10
10
10
10
10
10
10
10
10
10
10
10
ENDCHAR
STARTCHAR 2021
ENCODING 8225
SWIDTH 462 0
DWIDTH 9 0
BBX 8 17 1 -4
BITMAP
18
18
18
18
FF
FE
10
18
18
18
10
F7
FE
18
18
18
10
ENDCHAR
STARTCHAR 2022
ENCODING 8226
SWIDTH 360 0
DWIDTH 7 0
BBX 5 5 1 3
BITMAP
78
F8
F8
78
20
ENDCHAR
STARTCHAR 2023
ENCODING 8227
SWIDTH 360 0
DWIDTH 7 0
BBX 4 6 2 2
BITMAP
80
C0
F0
F0
C0
80
ENDCHAR
STARTCHAR 2024
ENCODING 8228
SWIDTH 257 0
DWIDTH 5 0
BBX 3 3 1 0
BITMAP
E0
E0
E0
ENDCHAR
STARTCHAR 2025
ENCODING 8229
SWIDTH 617 0
DWIDTH 12 0
BBX 10 3 1 0
BITMAP
6180
E1C0
E1C0
ENDCHAR
STARTCHAR 2026
ENCODING 8230
SWIDTH 925 0
DWIDTH 18 0
BBX 16 3 1 0
BITMAP
E1C7
E3C7
E1C7
ENDCHAR
STARTCHAR 2027
ENCODING 8231
SWIDTH 257 0
DWIDTH 5 0
BBX 3 3 1 4
BITMAP
40
E0
E0
ENDCHAR
STARTCHAR 202F
ENCODING 8239
SWIDTH 154 0
DWIDTH 3 0
BBX 0 0 0 0
BITMAP
ENDCHAR
STARTCHAR 2030
ENCODING 8240
SWIDTH 1234 0
DWIDTH 24 0
BBX 20 13 2 0
BITMAP
781000
CC2000
CC6000
CCC000
C98000
7B0000
020000
04F0E0
0D99B0
199B30
319B30
619B30
40F1E0
ENDCHAR
STARTCHAR 2031
ENCODING 8241
SWIDTH 1594 0
DWIDTH 31 0
BBX 28 13 2 0
BITMAP
78100000
CC200000
CC600000
CCC00000
C9800000
7B000000
06000000
04F1E1C0
0D993360
199B3630
319B3630
619B3360
40F1E3C0
ENDCHAR
STARTCHAR 2032
ENCODING 8242
SWIDTH 257 0
DWIDTH 5 0
BBX 4 5 1 9
BITMAP
30
60
60
40
C0
ENDCHAR
STARTCHAR 2033
ENCODING 8243
SWIDTH 462 0
DWIDTH 9 0
BBX 7 5 1 9
BITMAP
32
66
64
4C
C8
ENDCHAR
STARTCHAR 2034
ENCODING 8244
SWIDTH 617 0
DWIDTH 12 0
BBX 11 5 1 9
BITMAP
3260
66C0
64C0
4C80
C880
ENDCHAR
STARTCHAR 2035
ENCODING 8245
SWIDTH 257 0
DWIDTH 5 0
BBX 2 5 2 9
BITMAP
80
80
C0
40
40
ENDCHAR
STARTCHAR 2036
ENCODING 8246
SWIDTH 462 0
DWIDTH 9 0
BBX 6 5 2 9
BITMAP
98
98
C8
48
4C
ENDCHAR
STARTCHAR 2037
ENCODING 8247
SWIDTH 617 0
DWIDTH 12 0
BBX 9 5 2 9
BITMAP
9900
9980
C980
4880
4C80
ENDCHAR
STARTCHAR 2038
ENCODING 8248
SWIDTH 514 0
DWIDTH 10 0
BBX 9 6 1 0
BITMAP
1800
1C00
2600
6200
C100
8180
ENDCHAR
STARTCHAR 2039
ENCODING 8249
SWIDTH 308 0
DWIDTH 6 0
BBX 4 6 1 1
BITMAP
30
60
E0
E0
60
30
ENDCHAR
STARTCHAR 203A
ENCODING 8250
SWIDTH 308 0
DWIDTH 6 0
BBX 4 6 1 1
BITMAP
C0
60
30
30
60
40
ENDCHAR
STARTCHAR 203D
ENCODING 8253
SWIDTH 565 0
DWIDTH 11 0
BBX 9 14 2 0
BITMAP
7E00
E700
CB80
DB80
1B00
1B00
1E00
1C00
1800
1800
0000
1800
1C00
1C00
ENDCHAR
STARTCHAR 203F
ENCODING 8255
SWIDTH 668 0
DWIDTH 13 0
BBX 12 3 1 -3
BITMAP
E070
3FC0
0600
ENDCHAR
STARTCHAR 2040
ENCODING 8256
SWIDTH 668 0
DWIDTH 13 0
BBX 12 3 1 13
BITMAP
3FC0
F0F0
8010
ENDCHAR
STARTCHAR 2043
ENCODING 8259
SWIDTH 360 0
DWIDTH 7 0
BBX 5 4 1 3
BITMAP
F8
F8
F8
F8
ENDCHAR
STARTCHAR 2044
ENCODING 8260
SWIDTH 205 0
DWIDTH 4 0
BBX 11 14 -3 0
BITMAP
0060
00C0
0080
0180
0300
0600
0400
0C00
1800
1000
2000
6000
C000
8000
ENDCHAR
STARTCHAR 204B
ENCODING 8267
SWIDTH 565 0
DWIDTH 11 0
BBX 11 18 0 -5
BITMAP
FF80
29C0
28E0
28E0
28E0
29C0
2F80
2800
2800
2800
2800
2800
2800
2800
2800
2800
2800
2800
ENDCHAR
STARTCHAR 2052
ENCODING 8274
SWIDTH 565 0
DWIDTH 11 0
BBX 10 11 1 2
BITMAP
E0C0
E180
E300
0600
0400
0800
1800
3000
6180
C380
8180
ENDCHAR
STARTCHAR 205D
ENCODING 8285
SWIDTH 257 0
DWIDTH 5 0
BBX 3 13 1 0
BITMAP
E0
E0
60
00
00
E0
E0
60
00
00
60
E0
E0
ENDCHAR
STARTCHAR 2070
ENCODING 8304
SWIDTH 411 0
DWIDTH 8 0
BBX 8 7 0 8
BITMAP
1C
66
63
E3
63
66
3C
ENDCHAR
STARTCHAR 2074
ENCODING 8308
SWIDTH 411 0
DWIDTH 8 0
BBX 8 9 0 6
BITMAP
04
0C
1C
2C
6C
7F
FF
0C
0C
ENDCHAR
STARTCHAR 2075
ENCODING 8309
SWIDTH 308 0
DWIDTH 6 0
BBX 5 10 1 6
BITMAP
08
F8
F8
80
E0
F0
38
18
18
F0
ENDCHAR
STARTCHAR 2076
ENCODING 8310
SWIDTH 360 0
DWIDTH 7 0
BBX 7 9 0 8
BITMAP
04
18
70
60
7E
E6
66
66
3C
ENDCHAR
STARTCHAR 2077
ENCODING 8311
SWIDTH 308 0
DWIDTH 6 0
BBX 6 9 0 6
BITMAP
7C
7C
C8
08
10
30
30
30
30
ENDCHAR
STARTCHAR 2078
ENCODING 8312
SWIDTH 360 0
DWIDTH 7 0
BBX 6 9 1 8
BITMAP
30
D8
CC
F8
78
DC
CC
CC
F8
ENDCHAR
STARTCHAR 2079
ENCODING 8313
SWIDTH 360 0
DWIDTH 7 0
BBX 7 9 0 6
BITMAP
3C
6E
66
E6
66
3E
0C
1C
70
ENDCHAR
STARTCHAR 2080
ENCODING 8320
SWIDTH 411 0
DWIDTH 8 0
BBX 8 7 0 -3
BITMAP
3E
67
63
E3
63
76
1C
ENDCHAR
STARTCHAR 2081
ENCODING 8321
SWIDTH 257 0
DWIDTH 5 0
BBX 4 7 1 -3
BITMAP
F0
60
60
60
60
60
F0
ENDCHAR
STARTCHAR 2082
ENCODING 8322
SWIDTH 308 0
DWIDTH 6 0
BBX 5 7 1 -3
BITMAP
F8
98
18
30
48
F8
F8
ENDCHAR
STARTCHAR 2083
ENCODING 8323
SWIDTH 308 0
DWIDTH 6 0
BBX 5 9 1 -5
BITMAP
F8
F8
90
20
78
18
18
18
F0
ENDCHAR
STARTCHAR 2084
ENCODING 8324
SWIDTH 411 0
DWIDTH 8 0
BBX 8 9 0 -5
BITMAP
0C
0C
1C
2C
4C
FF
7F
0C
0C
ENDCHAR
STARTCHAR 2085
ENCODING 8325
SWIDTH 308 0
DWIDTH 6 0
BBX 5 10 1 -5
BITMAP
08
F8
F8
80
E0
F8
38
18
38
E0
ENDCHAR
STARTCHAR 2086
ENCODING 8326
SWIDTH 360 0
DWIDTH 7 0
BBX 7 9 0 -3
BITMAP
0C
30
60
68
7E
E6
66
66
3C
ENDCHAR
STARTCHAR 2087
ENCODING 8327
SWIDTH 308 0
DWIDTH 6 0
BBX 6 9 0 -5
BITMAP
7C
7C
C8
18
10
30
30
30
20
ENDCHAR
STARTCHAR 2088
ENCODING 8328
SWIDTH 360 0
DWIDTH 7 0
BBX 6 9 1 -3
BITMAP
78
CC
CC
F8
78
DC
CC
CC
78
ENDCHAR
STARTCHAR 2089
ENCODING 8329
SWIDTH 360 0
DWIDTH 7 0
BBX 7 9 0 -5
BITMAP
3C
66
E6
66
7E
06
0C
18
60
ENDCHAR
STARTCHAR 20A1
ENCODING 8353
SWIDTH 617 0
DWIDTH 12 0
BBX 11 17 1 -2
BITMAP
0080
0280
1FC0
30C0
6040
E040
E000
E000
E000
E000
E000
F000
7000
3CE0
1F80
1200
1200
ENDCHAR
STARTCHAR 20A3
ENCODING 8355
SWIDTH 565 0
DWIDTH 11 0
BBX 11 13 0 0
BITMAP
7FE0
3860
3860
3800
3800
3880
3F80
3F80
3880
7E00
FA00
3C00
7E00
ENDCHAR
STARTCHAR 20A4
ENCODING 8356
SWIDTH 565 0
DWIDTH 11 0
BBX 10 13 1 0
BITMAP
3F80
7380
7180
7000
7000
7800
FE00
3800
3000
3000
7FC0
7F80
8700
ENDCHAR
STARTCHAR 20A6
ENCODING 8358
SWIDTH 720 0
DWIDTH 14 0
BBX 14 13 0 0
BITMAP
7878
3C10
3C10
3E10
3F10
FFFC
F390
31D0
31F0
30F0
3070
3030
7830
ENDCHAR
STARTCHAR 20A7
ENCODING 8359
SWIDTH 617 0
DWIDTH 12 0
BBX 13 13 0 0
BITMAP
7FC0
38E0
38F0
3870
FFF8
3860
38E0
3BC0
3800
3800
3800
3C00
7E00
ENDCHAR
STARTCHAR 20A9
ENCODING 8361
SWIDTH 977 0
DWIDTH 19 0
BBX 19 13 0 0
BITMAP
FC21E0
7870C0
3870C0
387880
FFBFE0
FFBFE0
1DBD00
FD1DE0
0F1D00
0F0E00
0E0E00
060E00
060600
ENDCHAR
STARTCHAR 20AB
ENCODING 8363
SWIDTH 565 0
DWIDTH 11 0
BBX 10 14 1 0
BITMAP
0180
0780
0380
1FC0
0380
3F80
6380
E380
E380
E380
FDC0
7900
0000
FFC0
ENDCHAR
STARTCHAR 20AC
ENCODING 8364
SWIDTH 720 0
DWIDTH 14 0
BBX 13 13 1 0
BITMAP
07F0
1C30
1810
3810
FF80
FF80
3800
FF80
3800
3800
1C00
0F38
07E0
ENDCHAR
STARTCHAR 20AD
ENCODING 8365
SWIDTH 720 0
DWIDTH 14 0
BBX 14 13 0 0
BITMAP
7EF8
3860
38C0
3880
3900
3A00
FFF0
3B80
39C0
39E0
38E0
3878
7E7C
ENDCHAR
STARTCHAR 20AE
ENCODING 8366
SWIDTH 617 0
DWIDTH 12 0
BBX 11 13 1 0
BITMAP
FFE0
CE60
8E20
0E00
0E80
0F80
7E00
0F80
1F00
7E00
0E00
0E00
3F80
ENDCHAR
STARTCHAR 20B1
ENCODING 8369
SWIDTH 617 0
DWIDTH 12 0
BBX 13 13 0 0
BITMAP
7FC0
38E0
78F8
B878
3870
F878
38E0
3BC0
3800
3800
3800
3C00
7E00
ENDCHAR
STARTCHAR 20B2
ENCODING 8370
SWIDTH 668 0
DWIDTH 13 0
BBX 12 17 1 -2
BITMAP
0200
0200
1FE0
3060
7060
E060
E000
E000
E000
E1F0
E060
E060
7060
38E0
1FC0
0200
0200
ENDCHAR
STARTCHAR 20B4
ENCODING 8372
SWIDTH 617 0
DWIDTH 12 0
BBX 10 13 1 0
BITMAP
3F00
7380
6180
0380
FFC0
FFC0
0000
FFC0
3800
70C0
70C0
71C0
3F80
ENDCHAR
STARTCHAR 20B5
ENCODING 8373
SWIDTH 617 0
DWIDTH 12 0
BBX 11 17 1 -2
BITMAP
0200
0200
1FC0
32C0
6240
E240
E200
E200
E200
E200
E200
F200
7200
3EE0
1F80
0200
0200
ENDCHAR
STARTCHAR 20B8
ENCODING 8376
SWIDTH 617 0
DWIDTH 12 0
BBX 11 13 1 0
BITMAP
FFE0
0000
FFE0
FFE0
CE60
8E20
0E00
0E00
0E00
0E00
0E00
0E00
3F80
ENDCHAR
STARTCHAR 20B9
ENCODING 8377
SWIDTH 514 0
DWIDTH 10 0
BBX 9 13 1 0
BITMAP
FF80
1C00
0E00
FF80
FF80
0E00
3C00
F000
3C00
1C00
0E00
0F00
0780
ENDCHAR
STARTCHAR 20BA
ENCODING 8378
SWIDTH 565 0
DWIDTH 11 0
BBX 11 13 0 0
BITMAP
7E00
3800
3800
3B00
3C00
3800
FF00
BC60
3860
F840
B8C0
3980
3F00
ENDCHAR
STARTCHAR 20BC
ENCODING 8380
SWIDTH 771 0
DWIDTH 15 0
BBX 14 15 1 0
BITMAP
0200
0200
1FC0
32E0
3270
2270
6270
6270
6270
6270
6270
6270
6270
6078
F8FC
ENDCHAR
STARTCHAR 20BD
ENCODING 8381
SWIDTH 668 0
DWIDTH 13 0
BBX 12 13 1 0
BITMAP
7FC0
38E0
38F0
3870
3870
38E0
FFC0
3800
3800
FF80
3800
3800
7E00
ENDCHAR
STARTCHAR 2102
ENCODING 8450
SWIDTH 617 0
DWIDTH 12 0
BBX 11 13 1 0
BITMAP
1FC0
30C0
7040
D040
D000
D000
D000
D000
D000
D000
7000
38E0
1F80
ENDCHAR
STARTCHAR 210D
ENCODING 8461
SWIDTH 771 0
DWIDTH 15 0
BBX 13 13 1 0
BITMAP
FEF8
6C30
6C30
6C30
6C30
6C30
6FF0
6C30
6C30
6C30
6C30
6C70
FEF8
ENDCHAR
STARTCHAR 2113
ENCODING 8467
SWIDTH 411 0
DWIDTH 8 0
BBX 8 14 0 0
BITMAP
0E
1F
19
39
39
3A
3A
3C
38
F8
38
38
3F
1E
ENDCHAR
STARTCHAR 2115
ENCODING 8469
SWIDTH 771 0
DWIDTH 15 0
BBX 13 13 1 0
BITMAP
FC78
6430
7610
7310
7990
6C90
66D0
6270
6330
6190
60D0
6050
F070
ENDCHAR
STARTCHAR 2116
ENCODING 8470
SWIDTH 1131 0
DWIDTH 22 0
BBX 21 13 1 0
BITMAP
F0F1F0
782330
782738
7C2738
7E2738
6F23B0
6720C0
63A000
63E7F8
61E780
60E000
606000
F06000
ENDCHAR
STARTCHAR 2117
ENCODING 8471
SWIDTH 771 0
DWIDTH 15 0
BBX 14 13 1 -2
BITMAP
0FC0
3060
6F10
4EE8
CE68
8E68
8E6C
8FC8
CE08
4F08
6F10
3060
0FC0
ENDCHAR
STARTCHAR 2119
ENCODING 8473
SWIDTH 617 0
DWIDTH 12 0
BBX 11 13 1 0
BITMAP
FFC0
6CE0
6C60
6C60
6C60
6C60
6C60
6FC0
6C00
6C00
6C00
6C00
FF00
ENDCHAR
STARTCHAR 211A
ENCODING 8474
SWIDTH 720 0
DWIDTH 14 0
BBX 14 17 1 -4
BITMAP
1FC0
30E0
7070
D030
D038
D038
D018
D038
D038
D030
7070
30E0
1F80
01C0
00F0
007C
0030
ENDCHAR
STARTCHAR 211D
ENCODING 8477
SWIDTH 668 0
DWIDTH 13 0
BBX 12 13 1 0
BITMAP
FFC0
68E0
6860
6860
6860
68E0
6FC0
6F80
6980
68C0
68C0
6C60
FC70
ENDCHAR
STARTCHAR 2122
ENCODING 8482
SWIDTH 977 0
DWIDTH 19 0
BBX 17 7 1 8
BITMAP
FEE380
DAE700
18F700
18BB00
18BB00
389B00
7DD380
ENDCHAR
STARTCHAR 2124
ENCODING 8484
SWIDTH 668 0
DWIDTH 13 0
BBX 11 13 1 0
BITMAP
7FE0
6360
C6C0
C6C0
0D80
0980
1B00
1200
3600
6C20
6C60
D860
FFE0
ENDCHAR
STARTCHAR 2126
ENCODING 8486
SWIDTH 822 0
DWIDTH 16 0
BBX 14 13 1 0
BITMAP
0FE0
3870
7038
7038
701C
701C
701C
7018
3038
1834
C84C
FCFC
FCFC
ENDCHAR
STARTCHAR 212E
ENCODING 8494
SWIDTH 565 0
DWIDTH 11 0
BBX 11 11 0 0
BITMAP
1F80
2040
6060
6060
E060
FF80
E000
6000
6040
2080
1F00
ENDCHAR
STARTCHAR 2153
ENCODING 8531
SWIDTH 925 0
DWIDTH 18 0
BBX 17 14 1 0
BITMAP
F00C00
F01800
301000
303000
306000
30DF80
309F80
799B00
FF0600
020F00
040380
0C0180
180380
101F00
ENDCHAR
STARTCHAR 2154
ENCODING 8532
SWIDTH 977 0
DWIDTH 19 0
BBX 18 14 1 0
BITMAP
FC0600
DC0C00
9C0800
181800
303000
642FC0
FC4FC0
FCCD80
FD8300
010780
0201C0
0600C0
0C01C0
080F80
ENDCHAR
STARTCHAR 215B
ENCODING 8539
SWIDTH 925 0
DWIDTH 18 0
BBX 17 14 1 0
BITMAP
F00C00
F01800
301000
303000
306000
30CE00
309980
79B980
FF1F00
021F00
041F80
0C3980
183980
101F00
ENDCHAR
STARTCHAR 215C
ENCODING 8540
SWIDTH 925 0
DWIDTH 18 0
BBX 17 14 1 0
BITMAP
F80800
F81800
903000
202000
786000
1CCE00
1DBB80
B93B80
E33F00
061F00
041F80
083380
183980
301F00
ENDCHAR
STARTCHAR 215D
ENCODING 8541
SWIDTH 925 0
DWIDTH 18 0
BBX 17 15 1 0
BITMAP
040000
FC0C00
FC0800
801000
F03000
FC6000
1C4E00
1C9980
BD9980
F31F00
020F00
061F80
0C3980
183980
101F00
ENDCHAR
STARTCHAR 215E
ENCODING 8542
SWIDTH 874 0
DWIDTH 17 0
BBX 17 14 0 0
BITMAP
7E0800
7C1800
CC3000
182000
186000
30CE00
309B80
313B80
333F00
061F00
041F80
083380
183980
301F00
ENDCHAR
STARTCHAR 2190
ENCODING 8592
SWIDTH 822 0
DWIDTH 16 0
BBX 15 7 1 1
BITMAP
0800
1800
7000
FFFE
7000
1800
0800
ENDCHAR
STARTCHAR 2191
ENCODING 8593
SWIDTH 462 0
DWIDTH 9 0
BBX 7 15 1 -1
BITMAP
10
38
3C
7C
D6
10
10
10
10
10
18
18
18
18
08
ENDCHAR
STARTCHAR 2192
ENCODING 8594
SWIDTH 822 0
DWIDTH 16 0
BBX 15 7 1 1
BITMAP
0060
0030
003C
FFFE
0038
0030
0060
ENDCHAR
STARTCHAR 2193
ENCODING 8595
SWIDTH 462 0
DWIDTH 9 0
BBX 7 15 1 -1
BITMAP
10
10
10
10
10
10
10
10
10
92
FE
7C
38
38
10
ENDCHAR
STARTCHAR 2194
ENCODING 8596
SWIDTH 925 0
DWIDTH 18 0
BBX 16 7 1 1
BITMAP
0810
381C
700E
FFFF
700E
1808
0810
ENDCHAR
STARTCHAR 2195
ENCODING 8597
SWIDTH 462 0
DWIDTH 9 0
BBX 7 15 1 -1
BITMAP
10
38
3C
7E
D2
10
10
10
10
10
D6
7C
38
38
10
ENDCHAR
STARTCHAR 2196
ENCODING 8598
SWIDTH 720 0
DWIDTH 14 0
BBX 12 12 1 1
BITMAP
C000
FC00
F000
7000
5800
4C00
0600
0300
0180
00C0
0060
0030
ENDCHAR
STARTCHAR 2197
ENCODING 8599
SWIDTH 668 0
DWIDTH 13 0
BBX 12 12 1 1
BITMAP
0030
03F0
01E0
01E0
03A0
0720
0E00
1C00
3800
7000
E000
C000
ENDCHAR
STARTCHAR 2198
ENCODING 8600
SWIDTH 720 0
DWIDTH 14 0
BBX 12 12 1 1
BITMAP
4000
E000
7000
3800
1C00
0E00
0720
03A0
01F0
00F0
03F0
0070
ENDCHAR
STARTCHAR 2199
ENCODING 8601
SWIDTH 720 0
DWIDTH 14 0
BBX 12 12 1 1
BITMAP
0010
0030
0060
00C0
0180
0300
4600
4C00
7800
7000
FC00
E000
ENDCHAR
STARTCHAR 21A4
ENCODING 8612
SWIDTH 822 0
DWIDTH 16 0
BBX 15 7 1 1
BITMAP
0806
1806
7006
FFFE
7006
1806
0806
ENDCHAR
STARTCHAR 21A5
ENCODING 8613
SWIDTH 462 0
DWIDTH 9 0
BBX 7 14 1 0
BITMAP
10
38
3C
7C
D6
10
10
10
10
10
18
18
18
FE
ENDCHAR
STARTCHAR 21A6
ENCODING 8614
SWIDTH 822 0
DWIDTH 16 0
BBX 15 7 1 1
BITMAP
C020
C030
C01C
FFFE
C018
C030
C020
ENDCHAR
STARTCHAR 21A7
ENCODING 8615
SWIDTH 462 0
DWIDTH 9 0
BBX 7 15 1 -1
BITMAP
FE
FE
10
10
10
10
10
10
10
92
FE
7C
38
38
10
ENDCHAR
STARTCHAR 21B0
ENCODING 8624
SWIDTH 668 0
DWIDTH 13 0
BBX 10 14 1 0
BITMAP
0800
3800
7000
FFC0
7040
1840
0840
0040
0040
0040
0040
0040
0040
0040
ENDCHAR
STARTCHAR 21B1
ENCODING 8625
SWIDTH 668 0
DWIDTH 13 0
BBX 11 14 2 0
BITMAP
0200
0380
01E0
FFE0
8180
8300
8200
8000
8000
8000
8000
8000
8000
8000
ENDCHAR
STARTCHAR 21B2
ENCODING 8626
SWIDTH 668 0
DWIDTH 13 0
BBX 10 15 1 -1
BITMAP
0040
0040
0040
0040
0040
0040
0040
0040
0840
3840
7040
FFC0
7000
1800
0800
ENDCHAR
STARTCHAR 21B3
ENCODING 8627
SWIDTH 720 0
DWIDTH 14 0
BBX 11 15 2 -1
BITMAP
8000
8000
8000
8000
8000
8000
8000
8000
8300
8380
81E0
FFE0
01C0
0300
0200
ENDCHAR
STARTCHAR 21BC
ENCODING 8636
SWIDTH 822 0
DWIDTH 16 0
BBX 15 4 1 4
BITMAP
0800
3800
7000
FFFE
ENDCHAR
STARTCHAR 21BD
ENCODING 8637
SWIDTH 822 0
DWIDTH 16 0
BBX 15 4 1 1
BITMAP
FFFE
7000
1800
0800
ENDCHAR
STARTCHAR 21BE
ENCODING 8638
SWIDTH 360 0
DWIDTH 7 0
BBX 4 15 2 -1
BITMAP
80
C0
E0
E0
B0
80
80
80
80
80
80
C0
C0
C0
40
ENDCHAR
STARTCHAR 21BF
ENCODING 8639
SWIDTH 360 0
DWIDTH 7 0
BBX 5 15 1 -1
BITMAP
18
38
38
78
D8
18
18
18
18
18
18
18
18
18
08
ENDCHAR
STARTCHAR 21C0
ENCODING 8640
SWIDTH 822 0
DWIDTH 16 0
BBX 15 4 1 4
BITMAP
0060
0030
003C
FFFE
ENDCHAR
STARTCHAR 21C1
ENCODING 8641
SWIDTH 822 0
DWIDTH 16 0
BBX 15 4 1 1
BITMAP
FFFE
0038
0030
0060
ENDCHAR
STARTCHAR 21C2
ENCODING 8642
SWIDTH 360 0
DWIDTH 7 0
BBX 4 15 2 -1
BITMAP
C0
C0
C0
80
80
80
80
80
80
90
B0
E0
C0
C0
80
ENDCHAR
STARTCHAR 21C3
ENCODING 8643
SWIDTH 360 0
DWIDTH 7 0
BBX 4 15 1 -1
BITMAP
10
10
10
10
10
10
10
10
10
90
D0
70
30
30
10
ENDCHAR
STARTCHAR 21C4
ENCODING 8644
SWIDTH 822 0
DWIDTH 16 0
BBX 15 13 1 -2
BITMAP
0040
0030
0038
FFFC
FFFC
0030
0820
1800
7000
FFFE
7000
3800
0800
ENDCHAR
STARTCHAR 21C5
ENCODING 8645
SWIDTH 771 0
DWIDTH 15 0
BBX 13 15 1 -1
BITMAP
1060
3860
3C60
7C60
D660
1060
1060
1060
1060
1268
19F8
19F0
18F0
1860
0840
ENDCHAR
STARTCHAR 21C6
ENCODING 8646
SWIDTH 822 0
DWIDTH 16 0
BBX 15 13 1 -2
BITMAP
0800
1800
3000
FFFE
FFFC
3800
1860
0030
0038
FFFE
803C
0030
0060
ENDCHAR
STARTCHAR 21C7
ENCODING 8647
SWIDTH 822 0
DWIDTH 16 0
BBX 15 13 1 -2
BITMAP
0800
1800
7000
FFFE
7000
1800
0800
3800
7000
FFFE
7000
1800
0800
ENDCHAR
STARTCHAR 21C8
ENCODING 8648
SWIDTH 771 0
DWIDTH 15 0
BBX 13 15 1 -1
BITMAP
1040
38E0
3CF0
7DF0
D768
1060
1060
1060
1060
1060
1860
1860
1860
1860
0820
ENDCHAR
STARTCHAR 21C9
ENCODING 8649
SWIDTH 822 0
DWIDTH 16 0
BBX 15 13 1 -2
BITMAP
0060
0030
003C
FFFE
0038
0030
0060
0030
003C
FFFE
0038
0030
0060
ENDCHAR
STARTCHAR 21CA
ENCODING 8650
SWIDTH 771 0
DWIDTH 15 0
BBX 13 15 1 -1
BITMAP
1040
1040
1040
1040
1040
1040
1040
1040
1040
9248
FFF8
7DF0
38E0
38E0
1040
ENDCHAR
STARTCHAR 21CB
ENCODING 8651
SWIDTH 874 0
DWIDTH 17 0
BBX 15 11 1 0
BITMAP
0C00
3800
7FFE
FFFE
0000
0000
0000
FFFE
C01C
0030
0020
ENDCHAR
STARTCHAR 21CC
ENCODING 8652
SWIDTH 874 0
DWIDTH 17 0
BBX 15 11 1 0
BITMAP
0020
0038
FFFE
FFFE
0000
0000
0000
FFFE
7006
1800
0C00
ENDCHAR
STARTCHAR 21D2
ENCODING 8658
SWIDTH 822 0
DWIDTH 16 0
BBX 15 11 1 -1
BITMAP
0040
0060
0030
FFF8
001C
001E
001C
FFF8
0030
0020
0040
ENDCHAR
STARTCHAR 21D4
ENCODING 8660
SWIDTH 925 0
DWIDTH 18 0
BBX 16 11 1 -1
BITMAP
0810
1818
300C
3FFE
E007
E007
7007
3FFE
180C
0818
0810
ENDCHAR
STARTCHAR 21F5
ENCODING 8693
SWIDTH 771 0
DWIDTH 15 0
BBX 14 15 1 -1
BITMAP
1060
1060
10F0
11F8
13EC
1060
1060
1060
1060
9260
FE60
7C60
3860
3860
1020
ENDCHAR
STARTCHAR 2200
ENCODING 8704
SWIDTH 668 0
DWIDTH 13 0
BBX 13 13 0 0
BITMAP
FC38
7818
3810
3870
1FE0
1C60
0E40
0E40
0FC0
0780
0780
0300
0300
ENDCHAR
STARTCHAR 2202
ENCODING 8706
SWIDTH 514 0
DWIDTH 10 0
BBX 9 14 1 0
BITMAP
3800
3C00
0E00
0700
0700
3F80
6380
E380
E380
E380
E380
E380
E300
3E00
ENDCHAR
STARTCHAR 2203
ENCODING 8707
SWIDTH 617 0
DWIDTH 12 0
BBX 10 13 1 0
BITMAP
7FC0
6380
C380
0380
3380
3380
3F80
3380
2380
8380
8380
C380
FFC0
ENDCHAR
STARTCHAR 2204
ENCODING 8708
SWIDTH 565 0
DWIDTH 11 0
BBX 10 19 1 -3
BITMAP
0400
0400
0400
7FC0
6B80
CB80
0B80
3B80
3B80
3F80
3380
3380
9380
9380
D380
FFC0
2000
2000
2000
ENDCHAR
STARTCHAR 2205
ENCODING 8709
SWIDTH 514 0
DWIDTH 10 0
BBX 11 10 0 0
BITMAP
0E60
3BC0
61C0
43C0
4640
4C40
5840
70C0
7F80
CE00
ENDCHAR
STARTCHAR 2206
ENCODING 8710
SWIDTH 617 0
DWIDTH 12 0
BBX 12 13 0 0
BITMAP
0200
0700
0700
0B80
0B80
1BC0
11C0
31E0
20E0
60F0
4070
4070
FFF0
ENDCHAR
STARTCHAR 2207
ENCODING 8711
SWIDTH 617 0
DWIDTH 12 0
BBX 13 13 0 0
BITMAP
FFF8
7010
7010
3820
3820
3C40
1C40
1EC0
0E80
0F80
0700
0700
0200
ENDCHAR
STARTCHAR 2208
ENCODING 8712
SWIDTH 514 0
DWIDTH 10 0
BBX 9 10 1 0
BITMAP
1F80
7F80
C000
C000
FF80
FF00
C000
C000
7F80
0F80
ENDCHAR
STARTCHAR 2209
ENCODING 8713
SWIDTH 514 0
DWIDTH 10 0
BBX 9 14 1 -2
BITMAP
0100
0300
1F80
7F80
C600
C400
FF80
FF00
C800
D800
7F80
1F80
3000
2000
ENDCHAR
STARTCHAR 220B
ENCODING 8715
SWIDTH 514 0
DWIDTH 10 0
BBX 9 10 1 0
BITMAP
FC00
FF00
0300
0180
FF80
FF80
0180
0300
FE00
F800
ENDCHAR
STARTCHAR 220C
ENCODING 8716
SWIDTH 514 0
DWIDTH 10 0
BBX 9 14 1 -2
BITMAP
0200
0600
FC00
FF00
0F00
0980
FF80
FF80
1180
3300
FE00
F800
6000
4000
ENDCHAR
STARTCHAR 220E
ENCODING 8718
SWIDTH 514 0
DWIDTH 10 0
BBX 9 13 1 0
BITMAP
FF80
FF80
FF80
FF80
FF80
FF80
FF80
FF80
FF80
FF80
FF80
FF80
FF80
ENDCHAR
STARTCHAR 220F
ENCODING 8719
SWIDTH 771 0
DWIDTH 15 0
BBX 13 15 1 -2
BITMAP
FFF8
7070
7070
7070
7070
7070
7070
7070
7070
7070
7070
7070
7070
7870
FCF8
ENDCHAR
STARTCHAR 2211
ENCODING 8721
SWIDTH 668 0
DWIDTH 13 0
BBX 11 15 1 -2
BITMAP
FFE0
F060
7020
3800
3C00
1C00
1E00
0E00
0C00
1800
1020
2020
7FE0
FFE0
FFE0
ENDCHAR
STARTCHAR 2212
ENCODING 8722
SWIDTH 514 0
DWIDTH 10 0
BBX 9 2 1 4
BITMAP
FF80
FF80
ENDCHAR
STARTCHAR 2213
ENCODING 8723
SWIDTH 514 0
DWIDTH 10 0
BBX 9 9 1 0
BITMAP
FF80
0000
0800
0800
0800
7F00
0800
0800
0800
ENDCHAR
STARTCHAR 2215
ENCODING 8725
SWIDTH 514 0
DWIDTH 10 0
BBX 6 14 2 -2
BITMAP
04
04
0C
08
08
18
10
30
20
20
60
40
40
C0
ENDCHAR
STARTCHAR 2216
ENCODING 8726
SWIDTH 514 0
DWIDTH 10 0
BBX 6 14 2 -2
BITMAP
C0
40
40
60
20
30
30
10
18
08
08
0C
04
04
ENDCHAR
STARTCHAR 2217
ENCODING 8727
SWIDTH 514 0
DWIDTH 10 0
BBX 8 8 1 1
BITMAP
08
49
EB
3C
3E
EB
49
08
ENDCHAR
STARTCHAR 2218
ENCODING 8728
SWIDTH 514 0
DWIDTH 10 0
BBX 5 6 3 2
BITMAP
70
D8
88
88
D8
60
ENDCHAR
STARTCHAR 2219
ENCODING 8729
SWIDTH 514 0
DWIDTH 10 0
BBX 5 6 3 2
BITMAP
20
F8
F8
F8
F8
20
ENDCHAR
STARTCHAR 221A
ENCODING 8730
SWIDTH 514 0
DWIDTH 10 0
BBX 13 19 0 -3
BITMAP
0078
00C0
00C0
0080
0080
0080
0180
0100
0100
0100
7B00
FB00
3A00
1A00
1E00
1E00
0C00
0C00
0C00
ENDCHAR
STARTCHAR 221D
ENCODING 8733
SWIDTH 720 0
DWIDTH 14 0
BBX 13 8 1 1
BITMAP
3E18
6F60
C3C0
C380
C1C0
C3E0
6678
3C38
ENDCHAR
STARTCHAR 221E
ENCODING 8734
SWIDTH 925 0
DWIDTH 18 0
BBX 17 8 1 1
BITMAP
3E1E00
6F6300
C3C100
C3C180
C1C180
C3E100
667F00
3C3E00
ENDCHAR
STARTCHAR 221F
ENCODING 8735
SWIDTH 514 0
DWIDTH 10 0
BBX 8 9 2 0
BITMAP
80
80
80
80
80
80
80
80
FF
ENDCHAR
STARTCHAR 2220
ENCODING 8736
SWIDTH 514 0
DWIDTH 10 0
BBX 10 9 0 0
BITMAP
0100
0300
0600
0C00
1800
3000
6000
C000
7FC0
ENDCHAR
STARTCHAR 2221
ENCODING 8737
SWIDTH 514 0
DWIDTH 10 0
BBX 10 9 0 0
BITMAP
0100
0300
0E00
0E00
1A00
3300
6100
C100
7FC0
ENDCHAR
STARTCHAR 2222
ENCODING 8738
SWIDTH 514 0
DWIDTH 10 0
BBX 9 10 1 0
BITMAP
0800
0D80
0F00
3C00
E600
C600
3C00
0F00
0D80
0800
ENDCHAR
STARTCHAR 2223
ENCODING 8739
SWIDTH 514 0
DWIDTH 10 0
BBX 1 19 5 -5
BITMAP
80
80
80
80
80
80
80
80
80
80
80
80
80
80
80
80
80
80
80
ENDCHAR
STARTCHAR 2224
ENCODING 8740
SWIDTH 514 0
DWIDTH 10 0
BBX 8 19 1 -5
BITMAP
08
08
08
08
08
08
08
0B
0E
18
38
E8
08
08
08
08
08
08
08
ENDCHAR
STARTCHAR 2225
ENCODING 8741
SWIDTH 514 0
DWIDTH 10 0
BBX 5 19 3 -5
BITMAP
88
88
88
88
88
88
88
88
88
88
88
88
88
88
88
88
88
88
88
ENDCHAR
STARTCHAR 2226
ENCODING 8742
SWIDTH 514 0
DWIDTH 10 0
BBX 10 19 0 -5
BITMAP
1100
1100
1100
1100
1100
1100
1140
11C0
1300
1F00
1900
7100
D100
1100
1100
1100
1100
1100
1100
ENDCHAR
STARTCHAR 2227
ENCODING 8743
SWIDTH 514 0
DWIDTH 10 0
BBX 9 10 1 0
BITMAP
0800
1800
1C00
3400
2600
6200
4300
C100
8180
8080
ENDCHAR
STARTCHAR 2228
ENCODING 8744
SWIDTH 514 0
DWIDTH 10 0
BBX 9 10 1 0
BITMAP
8080
8180
C180
4100
6300
2200
3600
1400
1C00
0800
ENDCHAR
STARTCHAR 2229
ENCODING 8745
SWIDTH 514 0
DWIDTH 10 0
BBX 9 10 1 0
BITMAP
0800
7F00
4300
C180
8180
8180
8180
8180
8180
8180
ENDCHAR
STARTCHAR 222A
ENCODING 8746
SWIDTH 514 0
DWIDTH 10 0
BBX 9 10 1 0
BITMAP
8080
8180
8180
8180
8180
8180
C180
C100
7700
3C00
ENDCHAR
STARTCHAR 222B
ENCODING 8747
SWIDTH 308 0
DWIDTH 6 0
BBX 7 17 0 -3
BITMAP
0E
1E
38
30
30
30
38
38
38
38
38
38
38
38
30
E0
C0
ENDCHAR
STARTCHAR 222C
ENCODING 8748
SWIDTH 565 0
DWIDTH 11 0
BBX 12 17 0 -3
BITMAP
0E70
1EF0
3980
3180
3180
3180
3980
3980
39C0
39C0
39C0
39C0
39C0
3980
3180
E700
C600
ENDCHAR
STARTCHAR 222D
ENCODING 8749
SWIDTH 822 0
DWIDTH 16 0
BBX 17 17 0 -3
BITMAP
0E7380
1EF780
398C00
318C00
318C00
318C00
398C00
398C00
39CC00
39CE00
39CE00
39CE00
39CE00
398C00
318C00
E77800
C63000
ENDCHAR
STARTCHAR 222E
ENCODING 8750
SWIDTH 411 0
DWIDTH 8 0
BBX 8 17 0 -3
BITMAP
06
0F
18
18
18
7E
5B
D9
99
DD
5E
3C
1C
18
18
F0
60
ENDCHAR
STARTCHAR 222F
ENCODING 8751
SWIDTH 617 0
DWIDTH 12 0
BBX 13 17 0 -3
BITMAP
0630
0F70
18C0
18C0
19C0
3FE0
79F0
D9D8
99D8
D8D0
78F0
3FC0
18C0
18C0
18C0
F780
6300
ENDCHAR
STARTCHAR 2230
ENCODING 8752
SWIDTH 874 0
DWIDTH 17 0
BBX 17 17 0 -3
BITMAP
063180
0F7780
18C600
18CE00
39CE00
3FFE00
79CF80
59CE80
D9CE80
58CE80
78C700
1FFE00
18C600
18C600
18CE00
F7BC00
631800
ENDCHAR
STARTCHAR 2234
ENCODING 8756
SWIDTH 514 0
DWIDTH 10 0
BBX 9 8 1 1
BITMAP
0800
1C00
1C00
0800
0000
6300
E380
E380
ENDCHAR
STARTCHAR 2235
ENCODING 8757
SWIDTH 514 0
DWIDTH 10 0
BBX 9 8 1 1
BITMAP
4000
E380
E380
4000
0000
1800
1C00
1C00
ENDCHAR
STARTCHAR 2236
ENCODING 8758
SWIDTH 514 0
DWIDTH 10 0
BBX 3 8 4 1
BITMAP
E0
E0
C0
00
00
C0
E0
E0
ENDCHAR
STARTCHAR 223C
ENCODING 8764
SWIDTH 514 0
DWIDTH 10 0
BBX 9 3 1 3
BITMAP
7980
8F00
8000
ENDCHAR
STARTCHAR 223D
ENCODING 8765
SWIDTH 514 0
DWIDTH 10 0
BBX 9 3 1 3
BITMAP
8F00
7980
2000
ENDCHAR
STARTCHAR 2241
ENCODING 8769
SWIDTH 514 0
DWIDTH 10 0
BBX 9 6 1 2
BITMAP
0400
0C00
7980
9F00
9800
1000
ENDCHAR
STARTCHAR 2243
ENCODING 8771
SWIDTH 514 0
DWIDTH 10 0
BBX 9 7 1 2
BITMAP
2000
7D80
8F00
0000
0000
FF80
FF00
ENDCHAR
STARTCHAR 2245
ENCODING 8773
SWIDTH 514 0
DWIDTH 10 0
BBX 9 8 1 1
BITMAP
7080
FF00
8600
0000
FF80
0000
0000
FF80
ENDCHAR
STARTCHAR 2248
ENCODING 8776
SWIDTH 514 0
DWIDTH 10 0
BBX 9 7 1 2
BITMAP
2000
7980
8F00
0000
2000
7980
8F00
ENDCHAR
STARTCHAR 2249
ENCODING 8777
SWIDTH 514 0
DWIDTH 10 0
BBX 9 14 1 -2
BITMAP
0300
0200
0600
2400
7D80
8F00
0800
3800
7980
9F00
3000
2000
2000
6000
ENDCHAR
STARTCHAR 2254
ENCODING 8788
SWIDTH 514 0
DWIDTH 10 0
BBX 9 6 1 2
BITMAP
C000
DF80
C000
0000
DF80
C000
ENDCHAR
STARTCHAR 2259
ENCODING 8793
SWIDTH 514 0
DWIDTH 10 0
BBX 9 11 1 3
BITMAP
0800
1C00
3400
2600
6200
0000
0000
FF80
0000
0000
FF80
ENDCHAR
STARTCHAR 225C
ENCODING 8796
SWIDTH 514 0
DWIDTH 10 0
BBX 9 11 1 3
BITMAP
0800
1C00
3400
2600
7E00
0000
0000
FF80
0000
0000
FF80
ENDCHAR
STARTCHAR 2260
ENCODING 8800
SWIDTH 514 0
DWIDTH 10 0
BBX 9 14 1 -2
BITMAP
0300
0200
0600
0400
0400
FF80
0800
1800
FF80
1000
3000
2000
2000
6000
ENDCHAR
STARTCHAR 2261
ENCODING 8801
SWIDTH 514 0
DWIDTH 10 0
BBX 9 8 1 1
BITMAP
FF80
FF80
0000
FF80
FF80
0000
FF80
FF80
ENDCHAR
STARTCHAR 2262
ENCODING 8802
SWIDTH 514 0
DWIDTH 10 0
BBX 9 14 1 -2
BITMAP
0300
0200
0600
FF80
FF80
0C00
FF80
FF80
1800
FF80
FF80
2000
2000
6000
ENDCHAR
STARTCHAR 2263
ENCODING 8803
SWIDTH 514 0
DWIDTH 10 0
BBX 9 9 1 0
BITMAP
FF80
0000
FF80
0000
0000
FF80
0000
FF80
FF80
ENDCHAR
STARTCHAR 2264
ENCODING 8804
SWIDTH 514 0
DWIDTH 10 0
BBX 9 10 1 0
BITMAP
0100
0700
1C00
E000
C000
3800
0E00
0100
0000
FF80
ENDCHAR
STARTCHAR 2265
ENCODING 8805
SWIDTH 514 0
DWIDTH 10 0
BBX 9 10 1 0
BITMAP
C000
7000
1C00
0700
0380
0E00
7800
C000
0000
FF80
ENDCHAR
STARTCHAR 226A
ENCODING 8810
SWIDTH 514 0
DWIDTH 10 0
BBX 10 10 0 0
BITMAP
0440
0CC0
3980
6300
C400
C600
7300
1980
0CC0
0440
ENDCHAR
STARTCHAR 226B
ENCODING 8811
SWIDTH 514 0
DWIDTH 10 0
BBX 11 10 0 0
BITMAP
4400
6600
3300
1980
0C60
0CC0
1980
3300
C600
0400
ENDCHAR
STARTCHAR 2270
ENCODING 8816
SWIDTH 514 0
DWIDTH 10 0
BBX 9 14 1 -2
BITMAP
0200
0600
0500
0700
1C00
E800
C800
3800
1E00
3100
3000
FF80
6000
4000
ENDCHAR
STARTCHAR 2271
ENCODING 8817
SWIDTH 514 0
DWIDTH 10 0
BBX 9 14 1 -2
BITMAP
0600
0400
CC00
7800
1C00
1F00
1380
1E00
7800
E000
6000
FF80
4000
C000
ENDCHAR
STARTCHAR 2282
ENCODING 8834
SWIDTH 514 0
DWIDTH 10 0
BBX 9 10 1 0
BITMAP
1F80
7F80
C000
C000
8000
8000
C000
C000
7F80
0F80
ENDCHAR
STARTCHAR 2283
ENCODING 8835
SWIDTH 514 0
DWIDTH 10 0
BBX 9 10 1 0
BITMAP
FC00
FF00
0300
0180
0180
0180
0180
0300
FE00
F800
ENDCHAR
STARTCHAR 2284
ENCODING 8836
SWIDTH 514 0
DWIDTH 10 0
BBX 9 14 1 -2
BITMAP
0100
0300
1F80
7F80
C600
C400
8400
8C00
C800
D800
7F80
1F80
3000
2000
ENDCHAR
STARTCHAR 2285
ENCODING 8837
SWIDTH 514 0
DWIDTH 10 0
BBX 9 14 1 -2
BITMAP
0200
0600
FC00
FF00
0B00
0980
1980
1180
1180
3300
FE00
F800
4000
4000
ENDCHAR
STARTCHAR 2286
ENCODING 8838
SWIDTH 514 0
DWIDTH 10 0
BBX 9 10 1 0
BITMAP
3F80
7F80
C000
C000
C000
E000
3F80
0000
FF80
FF00
ENDCHAR
STARTCHAR 2287
ENCODING 8839
SWIDTH 514 0
DWIDTH 10 0
BBX 9 10 1 0
BITMAP
FE00
FF00
0180
0180
0180
0300
FE00
0000
FF80
FF00
ENDCHAR
STARTCHAR 2288
ENCODING 8840
SWIDTH 514 0
DWIDTH 10 0
BBX 9 14 1 -2
BITMAP
0300
0200
3F80
7F80
C400
CC00
C800
F800
7F80
1000
FF80
FF00
2000
6000
ENDCHAR
STARTCHAR 2289
ENCODING 8841
SWIDTH 514 0
DWIDTH 10 0
BBX 9 14 1 -2
BITMAP
0600
0400
FE00
FF00
0980
0980
1980
1300
FE00
2000
FF80
FF00
4000
4000
ENDCHAR
STARTCHAR 2295
ENCODING 8853
SWIDTH 514 0
DWIDTH 10 0
BBX 9 10 1 0
BITMAP
1C00
7700
C180
8980
BE80
BE80
8880
C180
7F00
1C00
ENDCHAR
STARTCHAR 22C5
ENCODING 8901
SWIDTH 514 0
DWIDTH 10 0
BBX 3 3 4 4
BITMAP
40
E0
E0
ENDCHAR
STARTCHAR 2308
ENCODING 8968
SWIDTH 257 0
DWIDTH 5 0
BBX 5 19 1 -5
BITMAP
F8
C0
C0
C0
C0
C0
C0
C0
C0
C0
C0
C0
C0
C0
C0
C0
C0
C0
C0
ENDCHAR
STARTCHAR 2309
ENCODING 8969
SWIDTH 257 0
DWIDTH 5 0
BBX 5 19 0 -5
BITMAP
F8
18
18
18
18
18
18
18
18
18
18
18
18
18
18
18
18
18
18
ENDCHAR
STARTCHAR 230A
ENCODING 8970
SWIDTH 257 0
DWIDTH 5 0
BBX 5 19 1 -5
BITMAP
C0
C0
C0
C0
C0
C0
C0
C0
C0
C0
C0
C0
C0
C0
C0
C0
C0
C0
F8
ENDCHAR
STARTCHAR 230B
ENCODING 8971
SWIDTH 257 0
DWIDTH 5 0
BBX 5 19 0 -5
BITMAP
18
18
18
18
18
18
18
18
18
18
18
18
18
18
18
18
18
18
F8
ENDCHAR
STARTCHAR 23DE
ENCODING 9182
SWIDTH 822 0
DWIDTH 16 0
BBX 16 6 0 2
BITMAP
0080
01C0
3FFE
7F7F
4E33
C001
ENDCHAR
STARTCHAR 23DF
ENCODING 9183
SWIDTH 822 0
DWIDTH 16 0
BBX 16 6 0 1
BITMAP
C001
4E33
7F7F
3FFE
01C0
0080
ENDCHAR
STARTCHAR 25A0
ENCODING 9632
SWIDTH 720 0
DWIDTH 14 0
BBX 14 13 0 0
BITMAP
FFFC
FFFC
FFFC
FFFC
FFFC
FFFC
FFFC
FFFC
FFFC
FFFC
FFFC
FFFC
FFFC
ENDCHAR
STARTCHAR 25A1
ENCODING 9633
SWIDTH 720 0
DWIDTH 14 0
BBX 14 13 0 0
BITMAP
FFFC
C00C
C00C
C00C
C00C
C00C
C00C
C00C
C00C
C00C
C00C
C00C
FFFC
ENDCHAR
STARTCHAR 25B2
ENCODING 9650
SWIDTH 771 0
DWIDTH 15 0
BBX 14 13 1 0
BITMAP
0300
0780
0780
0FC0
0FC0
1FE0
1FE0
3FF0
7FF0
7FF8
FFFC
FFFC
FFFC
ENDCHAR
STARTCHAR 25B3
ENCODING 9651
SWIDTH 771 0
DWIDTH 15 0
BBX 14 13 1 0
BITMAP
0300
0700
0480
0CC0
0840
1860
1020
2030
6010
4008
C00C
8004
FFFC
ENDCHAR
STARTCHAR 25B6
ENCODING 9654
SWIDTH 720 0
DWIDTH 14 0
BBX 13 15 1 -1
BITMAP
C000
F000
FC00
FE00
FF80
FFE0
FFF8
FFF8
FFF0
FFE0
FF80
FE00
F800
E000
C000
ENDCHAR
STARTCHAR 25B7
ENCODING 9655
SWIDTH 720 0
DWIDTH 14 0
BBX 13 15 1 -1
BITMAP
C000
F000
9C00
8600
8180
80E0
8038
8018
8030
80C0
8380
8E00
9800
E000
C000
ENDCHAR
STARTCHAR 25BC
ENCODING 9660
SWIDTH 771 0
DWIDTH 15 0
BBX 14 13 1 0
BITMAP
FFFC
FFFC
FFFC
7FF8
7FF0
3FF0
1FE0
1FE0
0FC0
0FC0
0780
0700
0300
ENDCHAR
STARTCHAR 25BD
ENCODING 9661
SWIDTH 771 0
DWIDTH 15 0
BBX 14 13 1 0
BITMAP
FFFC
8004
C008
4018
2010
3030
1020
1860
0840
0C80
0580
0700
0300
ENDCHAR
STARTCHAR 25C0
ENCODING 9664
SWIDTH 720 0
DWIDTH 14 0
BBX 13 15 1 -1
BITMAP
0018
0078
01F8
07F8
0FF8
3FF8
FFF8
FFF8
7FF8
3FF8
0FF8
03F8
00F8
0078
0018
ENDCHAR
STARTCHAR 25C1
ENCODING 9665
SWIDTH 720 0
DWIDTH 14 0
BBX 13 15 1 -1
BITMAP
0018
0078
01C8
0308
0C08
3808
E008
8008
6008
3808
0E08
0308
00C8
0078
0018
ENDCHAR
STARTCHAR 25C6
ENCODING 9670
SWIDTH 720 0
DWIDTH 14 0
BBX 13 13 1 0
BITMAP
0600
0F00
1F80
3FC0
7FE0
FFF0
FFF8
7FF0
3FE0
1FC0
1F80
0F00
0600
ENDCHAR
STARTCHAR 25C7
ENCODING 9671
SWIDTH 720 0
DWIDTH 14 0
BBX 13 13 1 0
BITMAP
0600
0F00
1980
30C0
6060
C030
8018
4030
2060
10C0
1980
0F00
0600
ENDCHAR
STARTCHAR 25CA
ENCODING 9674
SWIDTH 565 0
DWIDTH 11 0
BBX 10 13 1 0
BITMAP
0800
1C00
3600
2200
4100
C180
80C0
C180
6100
2200
1600
1C00
0800
ENDCHAR
STARTCHAR 26AD
ENCODING 9901
SWIDTH 977 0
DWIDTH 19 0
BBX 18 12 1 -1
BITMAP
040800
3FFF00
60C180
C16080
8120C0
8320C0
8320C0
8120C0
C16080
41C180
7BE700
1F3C00
ENDCHAR
STARTCHAR 26AE
ENCODING 9902
SWIDTH 1285 0
DWIDTH 25 0
BBX 23 15 1 -3
BITMAP
001000
0E10E0
3F93F8
60D60C
C07C06
803802
803802
803802
803802
C07C06
405604
3B93BC
1F11F0
001000
001000
ENDCHAR
STARTCHAR 26AF
ENCODING 9903
SWIDTH 1337 0
DWIDTH 26 0
BBX 25 12 1 -1
BITMAP
04001000
3F80FE00
60C18300
C0630180
80220180
80260080
803E0080
80220180
C0620180
60430300
3BC1EE00
1F007C00
ENDCHAR
STARTCHAR 27C2
ENCODING 10178
SWIDTH 514 0
DWIDTH 10 0
BBX 9 10 1 0
BITMAP
0800
0800
0800
0800
0800
0800
0800
0800
0800
FF80
ENDCHAR
STARTCHAR 27E8
ENCODING 10216
SWIDTH 360 0
DWIDTH 7 0
BBX 6 19 1 -5
BITMAP
0C
08
18
18
30
30
70
60
E0
C0
E0
60
70
30
10
18
08
08
0C
ENDCHAR
STARTCHAR 27E9
ENCODING 10217
SWIDTH 360 0
DWIDTH 7 0
BBX 6 19 1 -5
BITMAP
80
80
C0
40
60
60
30
38
18
1C
18
38
30
60
60
40
C0
80
80
ENDCHAR
STARTCHAR 2983
ENCODING 10627
SWIDTH 565 0
DWIDTH 11 0
BBX 9 19 1 -5
BITMAP
1F80
3600
3600
7600
3600
3600
3600
7600
E600
C600
7600
3600
3600
3600
3600
7600
3600
3600
1F80
ENDCHAR
STARTCHAR 2984
ENCODING 10628
SWIDTH 565 0
DWIDTH 11 0
BBX 9 19 1 -5
BITMAP
FC00
3600
3700
3700
3700
3600
3600
3700
3380
3180
3700
3700
3600
3600
3700
3700
3600
3600
FC00
ENDCHAR
STARTCHAR 299B
ENCODING 10651
SWIDTH 514 0
DWIDTH 10 0
BBX 10 9 0 0
BITMAP
3000
1800
0E00
0E00
1E00
1300
1180
10C0
FFC0
ENDCHAR
STARTCHAR 299D
ENCODING 10653
SWIDTH 514 0
DWIDTH 10 0
BBX 8 9 2 0
BITMAP
80
80
E0
98
8C
B4
A4
86
FF
ENDCHAR
STARTCHAR 2A2F
ENCODING 10799
SWIDTH 514 0
DWIDTH 10 0
BBX 8 10 1 0
BITMAP
01
C1
62
34
1C
1C
36
63
C1
80
ENDCHAR
STARTCHAR 2B58
ENCODING 11096
SWIDTH 514 0
DWIDTH 10 0
BBX 9 10 1 0
BITMAP
1C00
7700
C180
8180
8080
8080
8180
C100
7F00
1C00
ENDCHAR
STARTCHAR 2E18
ENCODING 11800
SWIDTH 514 0
DWIDTH 10 0
BBX 9 14 1 -5
BITMAP
1C00
1C00
1C00
0000
0800
1400
1C00
3C00
6C00
6C00
ED00
E980
7380
3F00
ENDCHAR
STARTCHAR 2E22
ENCODING 11810
SWIDTH 257 0
DWIDTH 5 0
BBX 5 9 1 5
BITMAP
F8
C0
C0
C0
C0
C0
C0
C0
C0
ENDCHAR
STARTCHAR 2E23
ENCODING 11811
SWIDTH 257 0
DWIDTH 5 0
BBX 5 9 0 5
BITMAP
F8
18
18
18
18
18
18
18
18
ENDCHAR
STARTCHAR 2E24
ENCODING 11812
SWIDTH 257 0
DWIDTH 5 0
BBX 5 10 1 -5
BITMAP
80
C0
C0
C0
C0
C0
C0
C0
C0
F8
ENDCHAR
STARTCHAR 2E25
ENCODING 11813
SWIDTH 257 0
DWIDTH 5 0
BBX 5 10 0 -5
BITMAP
08
18
18
18
18
18
18
18
18
F8
ENDCHAR
STARTCHAR 2E3A
ENCODING 11834
SWIDTH 2005 0
DWIDTH 39 0
BBX 38 2 1 4
BITMAP
FFFFFFFFFC
FFFFFFFFF8
ENDCHAR
STARTCHAR 2E3B
ENCODING 11835
SWIDTH 3034 0
DWIDTH 59 0
BBX 58 2 1 4
BITMAP
FFFFFFFFFFFFFFC0
FFFFFFFFFFFFFF80
ENDCHAR
STARTCHAR FB01
ENCODING 64257
SWIDTH 668 0
DWIDTH 13 0
BBX 12 14 1 0
BITMAP
0FC0
39C0
30C0
7000
7000
FFE0
FFE0
70E0
70E0
70E0
70E0
70E0
70E0
F9F0
ENDCHAR
STARTCHAR FB02
ENCODING 64258
SWIDTH 668 0
DWIDTH 13 0
BBX 12 14 1 0
BITMAP
0FE0
39E0
30E0
70E0
70E0
FCE0
FCE0
70E0
70E0
70E0
70E0
70E0
70E0
F9F0
ENDCHAR
ENDFONT
